<svg xmlns="http://www.w3.org/2000/svg" width="89.679" height="89.679" viewBox="0 0 89.679 89.679">
  <path id="bitcoin-brands" d="M97.679,52.839A44.839,44.839,0,1,1,52.839,8,44.832,44.832,0,0,1,97.679,52.839Zm-25.62-6.382c.886-5.967-3.652-9.167-9.854-11.318l2.007-8.082-4.918-1.229-1.971,7.865c-1.3-.325-2.622-.633-3.942-.922l1.971-7.919-4.918-1.229L48.41,31.7c-1.067-.235-2.115-.488-3.146-.741v-.018l-6.78-1.7-1.3,5.261s3.652.832,3.58.886a2.628,2.628,0,0,1,2.3,2.857l-2.3,9.2a5.249,5.249,0,0,1,.506.163c-.163-.036-.344-.09-.524-.127L37.525,60.379a1.8,1.8,0,0,1-2.26,1.175c.054.072-3.58-.886-3.58-.886l-2.441,5.623,6.4,1.591c1.193.307,2.35.615,3.508.9l-2.043,8.172,4.918,1.229,2.025-8.082c1.3.362,2.6.687,3.923,1.013l-2.007,8.046,4.918,1.229L52.93,72.24c8.389,1.591,14.7.94,17.357-6.636,2.133-6.111-.108-9.637-4.52-11.933,3.236-.741,5.659-2.857,6.292-7.214ZM60.831,62.205c-1.519,6.111-11.807,2.8-15.151,1.971l2.694-10.83C51.718,54.2,62.422,55.841,60.831,62.205ZM62.35,46.367c-1.392,5.551-9.944,2.73-12.729,2.043l2.441-9.818C54.846,39.279,63.8,40.563,62.35,46.367Z" transform="translate(-8 -8)" fill="#ff3157"/>
</svg>
