<svg xmlns="http://www.w3.org/2000/svg" width="92.572" height="81.009" viewBox="0 0 92.572 81.009">
  <path id="cubes-solid" d="M88.341,71.431,70.875,64.886V45.269a6.508,6.508,0,0,0-4.231-6.093L48.564,32.4a6.432,6.432,0,0,0-4.574,0l-18.08,6.78a6.508,6.508,0,0,0-4.231,6.093V64.886L4.213,71.431A6.517,6.517,0,0,0,0,77.524V97.431a6.515,6.515,0,0,0,3.6,5.822l18.08,9.04a6.472,6.472,0,0,0,5.822,0l18.786-9.4,18.786,9.4a6.472,6.472,0,0,0,5.822,0l18.08-9.04a6.515,6.515,0,0,0,3.6-5.822V77.524A6.508,6.508,0,0,0,88.341,71.431Zm-23.613-6.4L49.36,70.8V58.467l15.368-6.69ZM27.844,45.016l18.442-6.907,18.442,6.907v.108L46.286,52.609,27.844,45.124ZM43.031,97.648l-15.368,7.684V91.03l15.368-7.015Zm0-20.25L24.589,84.883,6.147,77.4v-.108l18.442-6.907,18.442,6.907Zm43.393,20.25-15.368,7.684V91.03l15.368-7.015Zm0-20.25L67.982,84.883,49.54,77.4v-.108l18.442-6.907,18.442,6.907Z" transform="translate(0 -31.975)" fill="#ff3157"/>
</svg>
