<svg id="Layer_1" data-name="Layer 1" xmlns="http://www.w3.org/2000/svg" xmlns:xlink="http://www.w3.org/1999/xlink" viewBox="0 0 852 252"><defs><style>.cls-1{fill:#f2f2f2;}.cls-2{fill:url(#linear-gradient);}.cls-3{fill:url(#linear-gradient-7);}</style><linearGradient id="linear-gradient" x1="396.7" y1="124.05" x2="676.2" y2="124.05" gradientUnits="userSpaceOnUse"><stop offset="0" stop-color="#f70"/><stop offset="1" stop-color="#ff0095"/></linearGradient><linearGradient id="linear-gradient-7" x1="61.12" y1="48.13" x2="247.46" y2="243.24" xlink:href="#linear-gradient"/></defs><title>fullcolorlight</title><path class="cls-1" d="M282.55,100.63h5.05l29,38.05h.13V100.63h5.11v46.84h-5.11L287.8,108.83h-.13v38.64h-5.12Z"/><path class="cls-1" d="M358.58,99.19c13.64,0,22.76,10.76,22.76,24.86s-11,24.86-22.76,24.86c-13.65,0-22.77-10.76-22.77-24.86S346.77,99.19,358.58,99.19Zm0,4.46c-9.71,0-17.12,9.31-17.12,20.4,0,10.43,5.31,20.4,17.12,20.4,9.71,0,17.12-9.31,17.12-20.4C375.7,113.62,370.38,103.65,358.58,103.65Z"/><path class="cls-2" d="M395.64,100.63h5.57l18.63,39.49,19.09-39.49h5v46.84H438.8v-36h-.13l-16.92,36h-4.07l-16.79-36h-.14v36h-5.11Z"/><path class="cls-2" d="M460.25,100.63h5.11v46.84h-5.11Z"/><path class="cls-2" d="M481.5,100.63h16.33c14.43,0,24.54,9.45,24.54,23.42s-10.11,23.42-24.54,23.42H481.5ZM486.62,143h10.69c11.68,0,19.42-8.14,19.42-19s-7.74-19-19.42-19H486.62Z"/><path class="cls-2" d="M536.66,100.63H553c14.43,0,24.53,9.45,24.53,23.42s-10.1,23.42-24.53,23.42H536.66ZM541.78,143h10.69c11.68,0,19.42-8.14,19.42-19s-7.74-19-19.42-19H541.78Z"/><path class="cls-2" d="M592,100.63h5.12v42.12h24.53v4.72H592Z"/><path class="cls-2" d="M633.61,100.63h29.65v4.72H638.73v14.7H660v4.72H638.73v18h24.53v4.72H633.61Z"/><path class="cls-1" d="M676.77,100.63h5.58L701,140.12l19.09-39.49h5v46.84h-5.12v-36h-.13l-16.93,36h-4.06l-16.8-36h-.13v36h-5.12Z"/><path class="cls-1" d="M756.8,100.63h4.53l19.48,46.84H775.3L771,136.84H746.31l-4.47,10.63h-5.51Zm-8.72,31.75h21.25l-10.49-26Z"/><path class="cls-1" d="M791.63,100.63h5l29,38.05h.13V100.63h5.12v46.84h-5.12l-28.93-38.64h-.13v38.64h-5.12Z"/><path class="cls-1" d="M297.08,167.78C296,164.65,293.24,163,290,163c-4.58,0-8.09,4.4-8.09,9.63,0,4.93,2.51,9.64,8.09,9.64,3.56,0,6.91-2.39,7.38-5.67h2.57a9.68,9.68,0,0,1-9.95,7.78c-6.44,0-10.75-5.09-10.75-11.75s5.17-11.74,10.75-11.74c5.05,0,8.58,2.54,9.61,6.85Z"/><path class="cls-1" d="M329.79,183.73a6.18,6.18,0,0,1-.68-3.25v-3.31c0-2.54-.9-3.35-3.62-3.35h-7.1v9.91H316V161.61h9.61c3.72,0,6.26,2.11,6.26,6a5.16,5.16,0,0,1-3.6,4.87v.06c2.73.81,3.29,1.55,3.29,4.77v2.48a5.52,5.52,0,0,0,1.18,3.9Zm-11.4-12h6.82c2.38,0,4.21-1.3,4.21-4s-1.83-4-4.21-4h-6.82Z"/><path class="cls-1" d="M354.24,175.68l-8.43-14.07h2.82l6.88,11.59,6.91-11.59h2.82l-8.59,14.07v8h-2.41Z"/><path class="cls-1" d="M380.2,161.61h8c4.46,0,7.62,2.42,7.62,6.79s-3.16,6.78-7.62,6.78h-5.57v8.55H380.2Zm2.42,11.47h5.82c2.85,0,5-1.37,5-4.68s-2.11-4.68-5-4.68h-5.82Z"/><path class="cls-1" d="M425.37,161.61v2.23h-6.88v19.89h-2.42V163.84H409.2v-2.23Z"/><path class="cls-1" d="M450.06,160.93c6.45,0,10.75,5.08,10.75,11.74s-5.17,11.75-10.75,11.75c-6.44,0-10.75-5.09-10.75-11.75S444.48,160.93,450.06,160.93Zm0,2.11c-4.58,0-8.09,4.4-8.09,9.63,0,4.93,2.51,9.64,8.09,9.64,4.59,0,8.09-4.4,8.09-9.64C458.15,167.75,455.64,163,450.06,163Z"/><circle class="cls-1" cx="146.65" cy="134.77" r="82.98"/><path class="cls-1" d="M65,212.77a13.16,13.16,0,0,0-7.11,2.07A117,117,0,0,1,224.74,51a13.31,13.31,0,1,0,4.71-3.88A123.05,123.05,0,0,0,53.68,219.19,13.25,13.25,0,1,0,65,212.77ZM229.09,55.36a7.18,7.18,0,0,1,5.08-3.48,6.08,6.08,0,0,1,1.13-.09A7.19,7.19,0,1,1,228.1,59,7.07,7.07,0,0,1,229.09,55.36ZM65,233.22a7.2,7.2,0,0,1-7.2-7.19,7.07,7.07,0,0,1,.35-2.22,7.22,7.22,0,0,1,4.12-4.44,7.3,7.3,0,0,1,2.73-.54,7.2,7.2,0,0,1,0,14.39Z"/><path class="cls-3" d="M146.65,38.65a99,99,0,1,0,99,99A99,99,0,0,0,146.65,38.65ZM166.46,192H153.07a5.48,5.48,0,0,1-4.47-2.31L116.28,144a5.47,5.47,0,0,0-9.93,3.16v39.33a5.47,5.47,0,0,1-5.47,5.48H89.94a5.47,5.47,0,0,1-5.47-5.48V88.85a5.47,5.47,0,0,1,5.47-5.47h7.4a5.46,5.46,0,0,1,4.47,2.31l2.85,4,66.27,93.62A5.48,5.48,0,0,1,166.46,192Zm42.37-5.48a5.47,5.47,0,0,1-5.47,5.48H192.42a5.47,5.47,0,0,1-5.47-5.48V147.37a5.47,5.47,0,0,0-9.94-3.16l-10.1,14.32a5.47,5.47,0,0,1-8.94,0l-40.27-56.9A5.48,5.48,0,0,1,122.17,93l13.43,0a5.47,5.47,0,0,1,4.45,2.32l17.88,25.27a5.47,5.47,0,0,0,8.94,0l21.76-30.88,2.85-4A5.48,5.48,0,0,1,196,83.38h7.41a5.47,5.47,0,0,1,5.47,5.47Z"/></svg>