<svg xmlns="http://www.w3.org/2000/svg" width="115.715" height="92.564" viewBox="0 0 115.715 92.564">
  <path id="hands-helping-solid" d="M88.214,34.732H60.732V44.857a13.018,13.018,0,0,1-26.036,0V22.871L22.962,29.923a11.547,11.547,0,0,0-5.623,9.908v8.552L2.874,56.736a5.772,5.772,0,0,0-2.115,7.9L15.223,89.7a5.788,5.788,0,0,0,7.9,2.115l18.7-10.794h24.7A11.582,11.582,0,0,0,78.089,69.447h2.893a5.78,5.78,0,0,0,5.786-5.786V52.089h1.446a4.329,4.329,0,0,0,4.339-4.339V39.071A4.329,4.329,0,0,0,88.214,34.732Zm26.7-6.762L100.454,2.911A5.788,5.788,0,0,0,92.553.8l-18.7,10.794H55.38a11.658,11.658,0,0,0-6.129,1.754l-6.057,3.779a5.747,5.747,0,0,0-2.712,4.9V44.857a7.232,7.232,0,0,0,14.464,0V28.946H88.214A10.132,10.132,0,0,1,98.339,39.071v5.153L112.8,35.871A5.792,5.792,0,0,0,114.919,27.97Z" transform="translate(0.023 -0.022)" fill="#ff3157"/>
</svg>
