<svg xmlns="http://www.w3.org/2000/svg" width="104.149" height="92.576" viewBox="0 0 104.149 92.576">
  <path id="hand-holding-heart-solid" d="M49.775,45.274a3.15,3.15,0,0,0,4.611,0l19.69-20.648a14.987,14.987,0,0,0-1.013-21.48C67.494-1.681,59.2-.813,54.1,4.539L52.072,6.654l-2.007-2.1c-5.1-5.37-13.4-6.238-18.966-1.41a15,15,0,0,0-1.013,21.48ZM102.209,59.3a5.985,5.985,0,0,0-7.7,0L77.8,72.666A11.511,11.511,0,0,1,70.568,75.2H49.179a2.893,2.893,0,1,1,0-5.786H63.336A6.019,6.019,0,0,0,69.357,64.6a5.792,5.792,0,0,0-5.713-6.762H34.714a21.28,21.28,0,0,0-13.4,4.755l-8.407,6.816H2.893A2.9,2.9,0,0,0,0,72.3V89.661a2.9,2.9,0,0,0,2.893,2.893H67.4a11.586,11.586,0,0,0,7.232-2.531l27.338-21.877A5.783,5.783,0,0,0,102.209,59.3Z" transform="translate(0 0.022)" fill="#ff3157"/>
</svg>
