<svg xmlns="http://www.w3.org/2000/svg" xmlns:xlink="http://www.w3.org/1999/xlink" width="1920" height="3035" viewBox="0 0 1920 3035">
  <defs>
    <linearGradient id="linear-gradient" x1="0.5" x2="0.5" y2="1" gradientUnits="objectBoundingBox">
      <stop offset="0" stop-color="#1f0131"/>
      <stop offset="1" stop-color="#695575"/>
    </linearGradient>
    <radialGradient id="radial-gradient" cx="0.5" cy="0.5" r="0.5" gradientUnits="objectBoundingBox">
      <stop offset="0" stop-color="#dd8147"/>
      <stop offset="1" stop-color="#fd2f5c"/>
    </radialGradient>
    <filter id="Features" x="679" y="1238.5" width="273" height="954" filterUnits="userSpaceOnUse">
      <feOffset dy="3" input="SourceAlpha"/>
      <feGaussianBlur stdDeviation="3" result="blur"/>
      <feFlood flood-color="#fd2f5c"/>
      <feComposite operator="in" in2="blur"/>
      <feComposite in="SourceGraphic"/>
    </filter>
    <linearGradient id="linear-gradient-2" x1="-0.225" y1="0.5" x2="5.211" y2="0.5" gradientUnits="objectBoundingBox">
      <stop offset="0" stop-color="#f15e12"/>
      <stop offset="1" stop-color="#e0007e"/>
    </linearGradient>
    <linearGradient id="linear-gradient-3" x1="-8.439" y1="0.5" x2="23.476" y2="0.5" xlink:href="#linear-gradient-2"/>
    <linearGradient id="linear-gradient-4" x1="-2.456" y1="0.5" x2="4.74" y2="0.5" xlink:href="#linear-gradient-2"/>
    <linearGradient id="linear-gradient-5" x1="-3.742" y1="0.5" x2="3.453" y2="0.5" xlink:href="#linear-gradient-2"/>
    <linearGradient id="linear-gradient-6" x1="-6.733" y1="0.5" x2="2.885" y2="0.5" xlink:href="#linear-gradient-2"/>
    <linearGradient id="linear-gradient-7" x1="-7.163" y1="0.5" x2="1.393" y2="0.5" xlink:href="#linear-gradient-2"/>
    <linearGradient id="linear-gradient-8" x1="0" y1="1.463" x2="1" y2="1.524" xlink:href="#linear-gradient-2"/>
    <clipPath id="clip-Home">
      <rect width="1920" height="3035"/>
    </clipPath>
  </defs>
  <g id="Home" clip-path="url(#clip-Home)">
    <rect width="1920" height="3035" fill="url(#linear-gradient)"/>
    <g id="H2-_get_it_free" data-name="H2- get it free" transform="translate(1047 877)">
      <g id="Button1" transform="translate(297 213)">
        <g id="Rectangle_5" data-name="Rectangle 5" stroke="#707070" stroke-linejoin="round" stroke-width="1" fill="url(#radial-gradient)">
          <rect width="214" height="82" rx="19" stroke="none"/>
          <rect x="0.5" y="0.5" width="213" height="81" rx="18.5" fill="none"/>
        </g>
        <text id="Get_it_Free" data-name="Get it Free" transform="translate(107 53)" fill="#430b64" font-size="30" font-family="SegoeUI, Segoe UI"><tspan x="-68.379" y="0">Get it Free</tspan></text>
      </g>
      <text id="Introducing_our_first_product_a_crypto_currency_payment_gateway_for_Woocommerce_without_the_middleman." data-name="Introducing our first product, a crypto currency payment gateway for Woocommerce without the middleman." transform="translate(18 82)" fill="#de8541" font-size="30" font-family="SegoeUI, Segoe UI"><tspan x="13.439" y="32">Introducing our first product, a crypto currency payment </tspan><tspan x="41.432" y="72">gateway for Woocommerce without the middleman.</tspan></text>
      <text id="Crypto_Payments_for_Woocommerce" data-name="Crypto Payments for Woocommerce" transform="translate(404 39)" fill="#fff" font-size="39" font-family="SegoeUI, Segoe UI"><tspan x="-311.153" y="0">Crypto Payments for Woocommerce</tspan></text>
    </g>
    <g id="Whyus" transform="translate(0 150)">
      <g id="Group_8" data-name="Group 8" transform="translate(-1220 924)">
        <text id="Using_just_the_blockchain_we_provide_features_that_save_time_and_increase_customer_success." data-name="Using just the blockchain, we provide features that save time and increase customer success." transform="translate(1270 856)" fill="#de8541" font-size="30" font-family="SegoeUI, Segoe UI"><tspan x="53.796" y="32">Using just the blockchain, we provide </tspan><tspan x="62.593" y="72">features that save time and increase </tspan><tspan x="181.721" y="112">customer success.</tspan></text>
        <text id="Feature_Rich" data-name="Feature Rich" transform="translate(1570 848)" fill="#f5f5f5" font-size="30" font-family="SegoeUI, Segoe UI"><tspan x="-81.563" y="0">Feature Rich</tspan></text>
        <path id="cubes-solid" d="M88.341,71.431,70.875,64.886V45.269a6.508,6.508,0,0,0-4.231-6.093L48.564,32.4a6.432,6.432,0,0,0-4.574,0l-18.08,6.78a6.508,6.508,0,0,0-4.231,6.093V64.886L4.213,71.431A6.517,6.517,0,0,0,0,77.524V97.431a6.515,6.515,0,0,0,3.6,5.822l18.08,9.04a6.472,6.472,0,0,0,5.822,0l18.786-9.4,18.786,9.4a6.472,6.472,0,0,0,5.822,0l18.08-9.04a6.515,6.515,0,0,0,3.6-5.822V77.524A6.508,6.508,0,0,0,88.341,71.431Zm-23.613-6.4L49.36,70.8V58.467l15.368-6.69ZM27.844,45.016l18.442-6.907,18.442,6.907v.108L46.286,52.609,27.844,45.124ZM43.031,97.648l-15.368,7.684V91.03l15.368-7.015Zm0-20.25L24.589,84.883,6.147,77.4v-.108l18.442-6.907,18.442,6.907Zm43.393,20.25-15.368,7.684V91.03l15.368-7.015Zm0-20.25L67.982,84.883,49.54,77.4v-.108l18.442-6.907,18.442,6.907Z" transform="translate(1523.487 689.025)" fill="#ff3157"/>
      </g>
      <g id="Group_7" data-name="Group 7" transform="translate(-610 310)">
        <text id="Our_goal_is_to_extend_Satoshi_s_idea_of_not_having_a_middle_man_to_ecommerce." data-name="Our goal is to extend Satoshi&apos;s idea of not having a middle man to ecommerce." transform="translate(660 856)" fill="#de8541" font-size="30" font-family="SegoeUI, Segoe UI"><tspan x="22.822" y="32">Our goal is to extend Satoshi&apos;s idea of not </tspan><tspan x="58.469" y="72">having a middle man to ecommerce.</tspan></text>
        <text id="No_Fees" data-name="No Fees" transform="translate(960 848)" fill="#f5f5f5" font-size="30" font-family="SegoeUI, Segoe UI"><tspan x="-53.496" y="0">No Fees</tspan></text>
        <path id="hands-helping-solid" d="M88.214,34.732H60.732V44.857a13.018,13.018,0,0,1-26.036,0V22.871L22.962,29.923a11.547,11.547,0,0,0-5.623,9.908v8.552L2.874,56.736a5.772,5.772,0,0,0-2.115,7.9L15.223,89.7a5.788,5.788,0,0,0,7.9,2.115l18.7-10.794h24.7A11.582,11.582,0,0,0,78.089,69.447h2.893a5.78,5.78,0,0,0,5.786-5.786V52.089h1.446a4.329,4.329,0,0,0,4.339-4.339V39.071A4.329,4.329,0,0,0,88.214,34.732Zm26.7-6.762L100.454,2.911A5.788,5.788,0,0,0,92.553.8l-18.7,10.794H55.38a11.658,11.658,0,0,0-6.129,1.754l-6.057,3.779a5.747,5.747,0,0,0-2.712,4.9V44.857a7.232,7.232,0,0,0,14.464,0V28.946H88.214A10.132,10.132,0,0,1,98.339,39.071v5.153L112.8,35.871A5.792,5.792,0,0,0,114.919,27.97Z" transform="translate(901.841 703.978)" fill="#ff3157"/>
      </g>
      <g id="Group_6" data-name="Group 6" transform="translate(0 6)">
        <text id="Our_plugin_provides_more_for_less._We_provide_all_our_core_features_at_no_cost." data-name="Our plugin provides more for less. We provide all our core features at no cost." transform="translate(50 856)" fill="#de8541" font-size="30" font-family="SegoeUI, Segoe UI"><tspan x="49.563" y="32">Our plugin provides more for less. We </tspan><tspan x="41.177" y="72">provide all our core features at no cost.</tspan></text>
        <text id="Free" transform="translate(350 848)" fill="#f5f5f5" font-size="30" font-family="SegoeUI, Segoe UI"><tspan x="-28.228" y="0">Free</tspan></text>
        <path id="hand-holding-heart-solid" d="M49.775,45.274a3.15,3.15,0,0,0,4.611,0l19.69-20.648a14.987,14.987,0,0,0-1.013-21.48C67.494-1.681,59.2-.813,54.1,4.539L52.072,6.654l-2.007-2.1c-5.1-5.37-13.4-6.238-18.966-1.41a15,15,0,0,0-1.013,21.48ZM102.209,59.3a5.985,5.985,0,0,0-7.7,0L77.8,72.666A11.511,11.511,0,0,1,70.568,75.2H49.179a2.893,2.893,0,1,1,0-5.786H63.336A6.019,6.019,0,0,0,69.357,64.6a5.792,5.792,0,0,0-5.713-6.762H34.714a21.28,21.28,0,0,0-13.4,4.755l-8.407,6.816H2.893A2.9,2.9,0,0,0,0,72.3V89.661a2.9,2.9,0,0,0,2.893,2.893H67.4a11.586,11.586,0,0,0,7.232-2.531l27.338-21.877A5.783,5.783,0,0,0,102.209,59.3Z" transform="translate(297.867 704.021)" fill="#ff3157"/>
      </g>
      <g id="Group_5" data-name="Group 5" transform="translate(-610 614)">
        <text id="Starting_for_humble_beginnings_offering_Dogecoin_we_now_support_43_cryptocurrencies._" data-name="Starting for humble beginnings offering Dogecoin, we now support 43 cryptocurrencies. " transform="translate(660 862)" fill="#de8541" font-size="30" font-family="SegoeUI, Segoe UI"><tspan x="37.603" y="32">Starting for humble beginnings offering </tspan><tspan x="101.938" y="72">Dogecoin, we now support 43 </tspan><tspan x="187.705" y="112">cryptocurrencies. </tspan></text>
        <text id="Open_Source" data-name="Open Source" transform="translate(960 848)" fill="#f5f5f5" font-size="30" font-family="SegoeUI, Segoe UI"><tspan x="-85.803" y="0">Open Source</tspan></text>
        <path id="lock-open-solid" d="M76.571,0A27.661,27.661,0,0,0,49.179,27.753V40.5H8.679A8.681,8.681,0,0,0,0,49.178V83.892a8.681,8.681,0,0,0,8.679,8.679H72.322A8.681,8.681,0,0,0,81,83.892V49.178A8.681,8.681,0,0,0,72.322,40.5H63.643V27.644a13.018,13.018,0,1,1,26.036-.163V41.946a4.329,4.329,0,0,0,4.339,4.339H99.8a4.329,4.329,0,0,0,4.339-4.339V27.481A27.513,27.513,0,0,0,76.571,0Z" transform="translate(915.341 707.215)" fill="#ff3157"/>
      </g>
      <g id="Group_4" data-name="Group 4" transform="translate(0 1538)">
        <text id="We_believ_in_open_source_software._Visit_our_GitHub_software_repo_today_to_collaborate_with_our_developers." data-name="We believ in open source software. Visit our GitHub software repo today to collaborate with our developers." transform="translate(50 862)" fill="#de8541" font-size="30" font-family="SegoeUI, Segoe UI"><tspan x="11.082" y="32">We believ in open source software. Visit our </tspan><tspan x="19.9" y="72" text-decoration="underline">GitHub </tspan><tspan y="72">software repo today to collaborate </tspan><tspan x="165.623" y="112">with our developers.</tspan></text>
        <text id="Choose_Your_Cryptos" data-name="Choose Your Cryptos" transform="translate(350 848)" fill="#f5f5f5" font-size="30" font-family="SegoeUI, Segoe UI"><tspan x="-138.062" y="0">Choose Your Cryptos</tspan></text>
        <path id="bitcoin-brands" d="M97.679,52.839A44.839,44.839,0,1,1,52.839,8,44.832,44.832,0,0,1,97.679,52.839Zm-25.62-6.382c.886-5.967-3.652-9.167-9.854-11.318l2.007-8.082-4.918-1.229-1.971,7.865c-1.3-.325-2.622-.633-3.942-.922l1.971-7.919-4.918-1.229L48.41,31.7c-1.067-.235-2.115-.488-3.146-.741v-.018l-6.78-1.7-1.3,5.261s3.652.832,3.58.886a2.628,2.628,0,0,1,2.3,2.857l-2.3,9.2a5.249,5.249,0,0,1,.506.163c-.163-.036-.344-.09-.524-.127L37.525,60.379a1.8,1.8,0,0,1-2.26,1.175c.054.072-3.58-.886-3.58-.886l-2.441,5.623,6.4,1.591c1.193.307,2.35.615,3.508.9l-2.043,8.172,4.918,1.229,2.025-8.082c1.3.362,2.6.687,3.923,1.013l-2.007,8.046,4.918,1.229L52.93,72.24c8.389,1.591,14.7.94,17.357-6.636,2.133-6.111-.108-9.637-4.52-11.933,3.236-.741,5.659-2.857,6.292-7.214ZM60.831,62.205c-1.519,6.111-11.807,2.8-15.151,1.971l2.694-10.83C51.718,54.2,62.422,55.841,60.831,62.205ZM62.35,46.367c-1.392,5.551-9.944,2.73-12.729,2.043l2.441-9.818C54.846,39.279,63.8,40.563,62.35,46.367Z" transform="translate(297 712)" fill="#ff3157"/>
      </g>
      <g id="Group_3" data-name="Group 3" transform="translate(-1220 1228)">
        <text id="No_website_registration_or_api_key_needed._Just_enter_your_wallet_addresses_and_start_accepting_payments_immediately." data-name="No website registration or api key needed. Just enter your wallet addresses and start accepting payments immediately." transform="translate(1270 862)" fill="#de8541" font-size="30" font-family="SegoeUI, Segoe UI"><tspan x="19.512" y="32">No website registration or api key needed. </tspan><tspan x="27.539" y="72">Just enter your wallet addresses and start </tspan><tspan x="78.699" y="112">accepting payments immediately.</tspan></text>
        <text id="Simple_Setup" data-name="Simple Setup" transform="translate(1570 848)" fill="#f5f5f5" font-size="30" font-family="SegoeUI, Segoe UI"><tspan x="-87.129" y="0">Simple Setup</tspan></text>
        <path id="check-circle-solid" d="M96.151,52.076A44.076,44.076,0,1,1,52.076,8,44.068,44.068,0,0,1,96.151,52.076ZM46.975,75.411l32.7-32.7a2.853,2.853,0,0,0,0-4.017L75.66,34.676a2.853,2.853,0,0,0-4.017,0L44.967,61.335,32.508,48.877a2.853,2.853,0,0,0-4.017,0l-4.017,4.017a2.853,2.853,0,0,0,0,4.017L42.958,75.393a2.806,2.806,0,0,0,4.017.018Z" transform="translate(1518 706)" fill="#ff3157"/>
      </g>
    </g>
    <g id="Features-2" data-name="Features" transform="translate(688 1244.5)">
      <g id="features-3" data-name="features" transform="translate(232 -124.5)">
        <text id="Tired_of_waking_up_to_a_bunch_of_Pending_Payment_orders_With_automatic_order_processing_every_time_a_customer_makes_a_valid_cryptocurrency_transaction_we_will_update_the_order_to_Paid_" data-name="Tired of waking up to a bunch of Pending Payment orders? With automatic order processing every time a customer makes a valid cryptocurrency transaction we will update the order to Paid!" transform="translate(50 203)" fill="#dd8147" font-size="30" font-family="SegoeUI, Segoe UI"><tspan x="0" y="32">Tired of waking up to a bunch of Pending Payment orders? With </tspan><tspan x="0" y="72">automatic order processing every time a customer makes a valid </tspan><tspan x="0" y="112">cryptocurrency transaction we will update the order to Paid!</tspan></text>
        <text id="Automatic_Payment_Processing" data-name="Automatic Payment Processing" transform="translate(50 138)" fill="#dd8147" font-size="30" font-family="SegoeUI, Segoe UI"><tspan x="0" y="32">Automatic Payment Processing</tspan></text>
        <text id="We_retrieve_real_time_pricing_information_for_every_order." data-name="We retrieve real time pricing information for every order." transform="translate(50 419.5)" fill="#dd8147" font-size="30" font-family="SegoeUI, Segoe UI"><tspan x="0" y="32">We retrieve real time pricing information for every order.</tspan></text>
        <text id="Real_Time_Crypto_Valuation" data-name="Real Time Crypto Valuation" transform="translate(50 354.5)" fill="#dd8147" font-size="30" font-family="SegoeUI, Segoe UI"><tspan x="0" y="32">Real Time Crypto Valuation</tspan></text>
        <text id="Privacy_mode_generates_a_unique_address_for_every_order." data-name="Privacy mode generates a unique address for every order." transform="translate(50 592.5)" fill="#dd8147" font-size="30" font-family="SegoeUI, Segoe UI"><tspan x="0" y="32">Privacy mode generates a unique address for every order.</tspan></text>
        <text id="Privacy_Mode" data-name="Privacy Mode" transform="translate(50 527.5)" fill="#dd8147" font-size="30" font-family="SegoeUI, Segoe UI"><tspan x="0" y="32">Privacy Mode</tspan></text>
        <text id="Fully_automated_QR_code." data-name="Fully automated QR code." transform="translate(50 765.5)" fill="#dd8147" font-size="30" font-family="SegoeUI, Segoe UI"><tspan x="0" y="32">Fully automated QR code.</tspan></text>
        <text id="Customer_QR_Code" data-name="Customer QR Code" transform="translate(50 700.5)" fill="#dd8147" font-size="30" font-family="SegoeUI, Segoe UI"><tspan x="0" y="32">Customer QR Code</tspan></text>
        <text id="We_support_all_Woocommerce_Fiat_Currencies._USD_EUR_CAD_ect.._" data-name="We support all Woocommerce Fiat Currencies. (USD, EUR, CAD, ect..)" transform="translate(50 938.5)" fill="#dd8147" font-size="30" font-family="SegoeUI, Segoe UI"><tspan x="0" y="32">We support all Woocommerce Fiat Currencies. (USD, EUR, CAD, </tspan><tspan x="0" y="72">ect..)</tspan></text>
        <text id="MULTI-FIAT_Support" data-name="MULTI-FIAT Support" transform="translate(50 873.5)" fill="#dd8147" font-size="30" font-family="SegoeUI, Segoe UI"><tspan x="0" y="32">MULTI-FIAT Support</tspan></text>
      </g>
      <g transform="matrix(1, 0, 0, 1, -688, -1244.5)" filter="url(#Features)">
        <text id="Features-4" data-name="Features" transform="translate(688 2180.5) rotate(-90)" fill="#dd8147" font-size="181" font-family="CocogooseProBlock-Border, Cocogoose Pro Block Border"><tspan x="12.106" y="188">Features</tspan></text>
      </g>
    </g>
    <g id="HALFSQUIGGLE" transform="translate(960 1024.198)">
      <g id="Group_13" data-name="Group 13" transform="translate(-22 -623.198)" opacity="0.23">
        <g id="Group_11" data-name="Group 11">
          <g id="Group_10" data-name="Group 10">
            <g id="Group_9" data-name="Group 9" transform="translate(2574 1506.66) rotate(180)">
              <path id="Path_27" data-name="Path 27" d="M3156,2906.123c-145.162-108.536-270.033-47.87-325.445-17.537s-141.262,37.917-275.5-98.583c-25.1-25.525-51.624-36.068-78.027-36.338-115.479-1.179-231.03,191.8-231.03,191.8" transform="translate(-632 -2061.999)" fill="none" stroke="#fd2f5c" stroke-width="9"/>
            </g>
            <g id="Ellipse_3" data-name="Ellipse 3" transform="translate(22 634)" fill="none" stroke="#fd2f5c" stroke-width="9">
              <circle cx="20" cy="20" r="20" stroke="none"/>
              <circle cx="20" cy="20" r="15.5" fill="none"/>
            </g>
          </g>
        </g>
      </g>
    </g>
    <g id="SQUIGGLE" transform="translate(22 431.719)">
      <g id="Group_12" data-name="Group 12" transform="translate(-22 -431.719)" opacity="0.23">
        <g id="Group_11-2" data-name="Group 11">
          <g id="Group_10-2" data-name="Group 10">
            <g id="Group_9-2" data-name="Group 9" transform="translate(2574 1506.66) rotate(180)">
              <g id="Group_15" data-name="Group 15">
                <path id="Path_27-2" data-name="Path 27" d="M3156,2906.123c-145.162-108.536-270.033-47.87-325.445-17.537s-141.262,37.917-275.5-98.583c-25.1-25.525-51.624-36.068-78.027-36.338-115.479-1.179-231.03,191.8-231.03,191.8" transform="translate(-632 -2061.999)" fill="none" stroke="#fd2f5c" stroke-width="9"/>
                <path id="Path_28" data-name="Path 28" d="M0,39.339c145.163,108.536,270.034,47.87,325.446,17.536s141.261-37.917,275.5,98.583c25.1,25.525,51.624,36.068,78.027,36.338C794.449,192.975,910,0,910,0" transform="translate(704 883.139)" fill="none" stroke="#fd2f5c" stroke-width="9"/>
              </g>
            </g>
            <g id="Ellipse_2" data-name="Ellipse 2" transform="translate(1856 574)" fill="none" stroke="#fd2f5c" stroke-width="9">
              <circle cx="20" cy="20" r="20" stroke="none"/>
              <circle cx="20" cy="20" r="15.5" fill="none"/>
            </g>
            <g id="Ellipse_3-2" data-name="Ellipse 3" transform="translate(22 634)" fill="none" stroke="#fd2f5c" stroke-width="9">
              <circle cx="20" cy="20" r="20" stroke="none"/>
              <circle cx="20" cy="20" r="15.5" fill="none"/>
            </g>
          </g>
        </g>
      </g>
    </g>
    <g id="H2" transform="translate(269 512)">
      <text id="NO_FEES_NO_REGISTRATION_NO_LOGINS_NO_MIDDLEMAN" data-name="NO FEES
NO REGISTRATION
NO LOGINS
NO MIDDLEMAN" transform="translate(219 96)" fill="#de8541" font-size="30" font-family="SegoeUI, Segoe UI"><tspan x="633.893" y="32">NO FEES</tspan><tspan x="565.741" y="72">NO REGISTRATION</tspan><tspan x="613.034" y="112">NO LOGINS</tspan><tspan x="576.852" y="152">NO MIDDLEMAN</tspan></text>
      <text id="WooCommerce_Bitcoin_and_Cryptocurrency_Payment_Gateway" data-name="WooCommerce Bitcoin and Cryptocurrency Payment Gateway" transform="translate(691 39)" fill="#fff" font-size="39" font-family="SegoeUI, Segoe UI"><tspan x="-530.29" y="0">WooCommerce Bitcoin and Cryptocurrency Payment Gateway</tspan></text>
    </g>
    <g id="NEWLOGO" transform="translate(50 68)">
      <path id="Path_29" data-name="Path 29" d="M553.085,111.728a2.533,2.533,0,0,0-.723-1.662,2.311,2.311,0,0,0-1.741-.7H537.171a2.6,2.6,0,0,0-2.465,2.036q-4.716,13.29-9.511,26.363t-9.565,26.364l-18.915-52.728a2.435,2.435,0,0,0-2.465-2.036h-13.4a2.449,2.449,0,0,0-1.768.67,2.653,2.653,0,0,0-.8,1.689l-8.038,74.855a2.083,2.083,0,0,0,2.358,2.358H483q2.463,0,2.465-2.358l5.466-50.635q4.5,12.43,8.948,24.647t8.841,24.595a3.719,3.719,0,0,0,.857,1.42,1.758,1.758,0,0,0,1.286.616h9.645a1.688,1.688,0,0,0,1.232-.643,4.106,4.106,0,0,0,.857-1.393l17.843-49.3,5.465,50.689a2.217,2.217,0,0,0,2.518,2.358h10.4q2.357,0,2.358-2.2v-.162q-2.038-18.754-4.072-37.4T553.085,111.728Z" transform="translate(159.69 37.14)" fill="url(#linear-gradient-2)"/>
      <path id="Path_30" data-name="Path 30" d="M567.249,110.012a2.679,2.679,0,0,0-1.708-.643H554.914a2.177,2.177,0,0,0-1.761.7,2.5,2.5,0,0,0-.588,1.662v74.855a2.08,2.08,0,0,0,2.349,2.358h10.627q2.51,0,2.51-2.358V111.728A2.086,2.086,0,0,0,567.249,110.012Z" transform="translate(187.644 37.14)" fill="url(#linear-gradient-3)"/>
      <path id="Path_31" data-name="Path 31" d="M637.874,120.916a40.176,40.176,0,0,0-12.843-8.465,40.814,40.814,0,0,0-15.9-3.082H583.39a2.2,2.2,0,0,0-2.465,2.52v74.8a1.924,1.924,0,0,0,.749,1.822,3.393,3.393,0,0,0,1.716.429h25.74a41.442,41.442,0,0,0,20.485-5.332,39.223,39.223,0,0,0,14.48-14.146,39.81,39.81,0,0,0,4.075-9.538,40.486,40.486,0,0,0-1.688-26.363A39.583,39.583,0,0,0,637.874,120.916Zm-5.59,37.705a24.4,24.4,0,0,1-5.143,7.914,25.037,25.037,0,0,1-7.8,5.39,25.7,25.7,0,0,1-9.8,2.171q-4.019.161-8.038.161h-5.092V124.051h12.164a27.31,27.31,0,0,1,9.914,1.8,24.77,24.77,0,0,1,8.145,5.068,23.718,23.718,0,0,1,5.491,7.858,24.925,24.925,0,0,1,2.009,10.111A25.517,25.517,0,0,1,632.283,158.622Z" transform="translate(197.275 37.14)" fill="url(#linear-gradient-4)"/>
      <path id="Path_32" data-name="Path 32" d="M703.833,120.916a40.174,40.174,0,0,0-12.843-8.465,40.815,40.815,0,0,0-15.9-3.082h-25.74a2.2,2.2,0,0,0-2.465,2.52v74.8a1.924,1.924,0,0,0,.749,1.822,3.393,3.393,0,0,0,1.716.429h25.74a41.443,41.443,0,0,0,20.485-5.332,39.224,39.224,0,0,0,14.48-14.146,39.807,39.807,0,0,0,4.075-9.538,40.487,40.487,0,0,0-1.688-26.363A39.583,39.583,0,0,0,703.833,120.916Zm-5.59,37.705a24.423,24.423,0,0,1-5.143,7.914,25.052,25.052,0,0,1-7.8,5.39,25.7,25.7,0,0,1-9.8,2.171q-4.019.161-8.038.161h-5.092V124.051h12.163a27.31,27.31,0,0,1,9.914,1.8,24.77,24.77,0,0,1,8.145,5.068,23.718,23.718,0,0,1,5.491,7.858,24.925,24.925,0,0,1,2.009,10.111A25.52,25.52,0,0,1,698.243,158.622Z" transform="translate(219.674 37.14)" fill="url(#linear-gradient-5)"/>
      <path id="Path_33" data-name="Path 33" d="M762.313,174.259H728.77V111.728a2.167,2.167,0,0,0-.722-1.743,2.513,2.513,0,0,0-1.681-.616H715.74a2.343,2.343,0,0,0-1.815.7,2.371,2.371,0,0,0-.642,1.662v74.855a2.08,2.08,0,0,0,2.35,2.358h46.681a2.182,2.182,0,0,0,1.715-.723,2.466,2.466,0,0,0,.642-1.688v-9.806a2.379,2.379,0,0,0-.7-1.8A2.321,2.321,0,0,0,762.313,174.259Z" transform="translate(242.222 37.14)" fill="url(#linear-gradient-6)"/>
      <path id="Path_34" data-name="Path 34" d="M819.181,174.259H779.69V154.808h29.471a1.961,1.961,0,0,0,1.715-.75,2.881,2.881,0,0,0,.536-1.715v-9.7a2.427,2.427,0,0,0-.642-1.9,2.169,2.169,0,0,0-1.716-.455H779.69V124.051h38.1a2.548,2.548,0,0,0,2.009-.753,2.519,2.519,0,0,0,.67-1.721v-9.464a3.161,3.161,0,0,0-.589-1.962,2.328,2.328,0,0,0-1.983-.781H766.24q-2.357,0-2.356,2.572V186.69a2.023,2.023,0,0,0,.7,1.715,2.643,2.643,0,0,0,1.661.536h53.048q2.357,0,2.358-2.259v-9.788a3.317,3.317,0,0,0-.482-1.989A2.382,2.382,0,0,0,819.181,174.259Z" transform="translate(259.406 37.14)" fill="url(#linear-gradient-7)"/>
      <circle id="Ellipse_1" data-name="Ellipse 1" cx="139.217" cy="139.217" r="139.217" transform="translate(71.109 65.189)" fill="#efefef"/>
      <path id="Path_22" data-name="Path 22" d="M73.34,335.267a22.09,22.09,0,0,0-11.929,3.471C-11.648,258.645-5.945,134.489,74.149,61.431a196.292,196.292,0,0,1,267.19,2.434,22.327,22.327,0,1,0,7.9-6.51C266.9-21.51,136.22-18.694,57.354,63.644a206.444,206.444,0,0,0-3,282.392,22.231,22.231,0,1,0,18.986-10.772Zm275.3-264.088a12.044,12.044,0,0,1,8.522-5.838,10.115,10.115,0,0,1,1.9-.151,12.063,12.063,0,1,1-12.083,12.1,11.874,11.874,0,0,1,1.661-6.107Zm-275.3,298.4a12.08,12.08,0,0,1-12.079-12.063,11.853,11.853,0,0,1,.588-3.725,12.11,12.11,0,0,1,6.911-7.451,12.239,12.239,0,0,1,4.58-.907,12.079,12.079,0,0,1,0,24.142Z" transform="translate(0 0)" fill="#efefef"/>
      <path id="Path_23" data-name="Path 23" d="M199.112,32.207A166.094,166.094,0,1,0,365.2,198.3h0A166.093,166.093,0,0,0,199.112,32.207Zm33.235,257.277H209.884a9.2,9.2,0,0,1-7.5-3.879l-54.223-76.647a9.178,9.178,0,0,0-16.66,5.3v65.984a9.176,9.176,0,0,1-9.159,9.195H103.97a9.177,9.177,0,0,1-9.178-9.178V116.428a9.177,9.177,0,0,1,9.178-9.178h12.414a9.164,9.164,0,0,1,7.5,3.879l4.781,6.711L239.847,274.9a9.194,9.194,0,0,1-7.5,14.579Zm71.085-9.194a9.177,9.177,0,0,1-9.16,9.194H275.9a9.177,9.177,0,0,1-9.176-9.178v-65.7a9.177,9.177,0,0,0-16.678-5.3L233.1,233.33a9.177,9.177,0,0,1-15,0l-67.561-95.46a9.194,9.194,0,0,1,7.5-14.478h22.532a9.172,9.172,0,0,1,7.466,3.892l30,42.4a9.174,9.174,0,0,0,15,0l36.506-51.807,4.782-6.71a9.193,9.193,0,0,1,7.583-3.909h12.431a9.177,9.177,0,0,1,9.178,9.178Z" transform="translate(11.213 10.937)" fill="url(#linear-gradient-8)"/>
      <path id="Path_35" data-name="Path 35" d="M330.489,111.823a2.493,2.493,0,0,1,.616-1.715,2.2,2.2,0,0,1,1.741-.7h12.324a3.03,3.03,0,0,1,1.42.35,3.481,3.481,0,0,1,1.206,1.1q9.163,13.073,18.165,25.96t18.165,25.963V111.448a2.377,2.377,0,0,1,.8-1.5,2.345,2.345,0,0,1,1.554-.537h10.342a2.81,2.81,0,0,1,1.849.644,2.116,2.116,0,0,1,.777,1.715v75.017q0,2.2-2.518,2.2H385.3a2.794,2.794,0,0,1-2.2-1.447q-9.432-13.664-18.781-27.3T345.6,132.881v53.744a2.468,2.468,0,0,1-.563,1.767,2.551,2.551,0,0,1-1.9.591H332.847a2.321,2.321,0,0,1-1.8-.616,2.41,2.41,0,0,1-.563-1.688Z" transform="translate(112.23 37.154)" fill="#efefef"/>
      <path id="Path_36" data-name="Path 36" d="M396.688,149.562a40.757,40.757,0,0,1,1.448-10.877,40.325,40.325,0,0,1,4.126-9.806,41.826,41.826,0,0,1,6.4-8.305,39.88,39.88,0,0,1,8.28-6.4,42.01,42.01,0,0,1,9.778-4.126,40.889,40.889,0,0,1,21.756,0,42.035,42.035,0,0,1,9.778,4.126,40.855,40.855,0,0,1,14.709,14.709,41.851,41.851,0,0,1,4.126,9.806,40.29,40.29,0,0,1,1.475,10.931,39.7,39.7,0,0,1-1.475,10.876,42.09,42.09,0,0,1-4.126,9.754,39.936,39.936,0,0,1-6.4,8.279A41.356,41.356,0,0,1,426.668,189a40.462,40.462,0,0,1-9.778-4.126,41.139,41.139,0,0,1-8.28-6.4,40.643,40.643,0,0,1-11.922-28.908Zm15.486-.107a26.151,26.151,0,0,0,1.956,10.127,25.714,25.714,0,0,0,5.358,8.2,25.391,25.391,0,0,0,8.037,5.519,25.689,25.689,0,0,0,20.04,0,25.3,25.3,0,0,0,13.449-13.717,27.06,27.06,0,0,0,0-20.2,25.782,25.782,0,0,0-5.385-8.225,25.509,25.509,0,0,0-8.064-5.546,25.673,25.673,0,0,0-20.04,0,25.182,25.182,0,0,0-8.037,5.546,26.194,26.194,0,0,0-7.314,18.3Z" transform="translate(134.71 36.869)" fill="#efefef"/>
      <path id="Path_37" data-name="Path 37" d="M825.683,111.769a2.648,2.648,0,0,1,.805-1.689,2.445,2.445,0,0,1,1.767-.67h13.4a2.434,2.434,0,0,1,2.465,2.038l18.915,52.726q4.768-13.288,9.566-26.363t9.511-26.363a2.6,2.6,0,0,1,2.464-2.038H898.02a2.3,2.3,0,0,1,1.741.7,2.526,2.526,0,0,1,.723,1.661q1.983,18.808,4.019,37.455t4.072,37.4v.161q0,2.2-2.356,2.2h-10.4a2.217,2.217,0,0,1-2.518-2.358l-5.465-50.69L870,185.232a4.106,4.106,0,0,1-.857,1.393,1.7,1.7,0,0,1-1.232.643h-9.645a1.761,1.761,0,0,1-1.286-.616,3.751,3.751,0,0,1-.859-1.42q-4.393-12.378-8.84-24.595t-8.948-24.648l-5.465,50.636q0,2.359-2.465,2.358H820a2.083,2.083,0,0,1-2.358-2.358Z" transform="translate(277.662 37.154)" fill="#efefef"/>
      <path id="Path_38" data-name="Path 38" d="M895.86,187a16.953,16.953,0,0,1,.616-1.981q.346-.91.616-1.661l28.88-71.909a3.206,3.206,0,0,1,.884-1.314,2.651,2.651,0,0,1,1.956-.723h8.628a2.347,2.347,0,0,1,1.849.644,6.983,6.983,0,0,1,.831,1.125l1.767,4.18,28.292,70.784a3.453,3.453,0,0,0,.082.563,3.519,3.519,0,0,1,.079.67q0,1.606-2.356,1.608H957.427a2.985,2.985,0,0,1-1.823-.484,3.512,3.512,0,0,1-1.072-1.5l-.963-2.464q-1.021-2.572-2.037-5.144t-1.981-5.2H916.488q-1.393,3.752-2.7,7.046T911.558,187a2.771,2.771,0,0,1-2.786,1.984H898.055a3.1,3.1,0,0,1-1.633-.375,1.227,1.227,0,0,1-.616-1.125A1.578,1.578,0,0,1,895.86,187Zm37.294-57.172q-2.9,7.393-5.76,15.325t-5.762,15.271h22.827Z" transform="translate(304.205 37.154)" fill="#efefef"/>
      <path id="Path_39" data-name="Path 39" d="M964.163,111.823a2.487,2.487,0,0,1,.618-1.715,2.2,2.2,0,0,1,1.741-.7h12.324a3.03,3.03,0,0,1,1.42.35,3.493,3.493,0,0,1,1.206,1.1q9.163,13.073,18.165,25.96t18.164,25.963V111.448a2.372,2.372,0,0,1,.805-1.5,2.345,2.345,0,0,1,1.554-.537H1030.5a2.8,2.8,0,0,1,1.847.644,2.113,2.113,0,0,1,.778,1.715v75.017q0,2.2-2.518,2.2H1018.98a2.8,2.8,0,0,1-2.2-1.447q-9.43-13.664-18.78-27.3t-18.729-27.354v53.744a2.462,2.462,0,0,1-.563,1.767,2.548,2.548,0,0,1-1.9.591H966.522a2.319,2.319,0,0,1-1.8-.616,2.411,2.411,0,0,1-.564-1.688Z" transform="translate(327.418 37.154)" fill="#efefef"/>
      <g id="Group_14" data-name="Group 14" transform="translate(455.615 247.775)">
        <path id="Path_40" data-name="Path 40" d="M371.8,188.751a1.965,1.965,0,0,1,.47.485,1,1,0,0,1,.182.561.969.969,0,0,1-.209.626l-1.385,2.3a1.2,1.2,0,0,1-.914.628,1.094,1.094,0,0,1-.406-.091,2.572,2.572,0,0,1-.508-.3,15.383,15.383,0,0,0-3.958-2.038,16.446,16.446,0,0,0-4.375-.836,15.7,15.7,0,0,0-11.141,4.48,15.077,15.077,0,0,0-3.253,4.754,14.17,14.17,0,0,0-1.175,5.708,14.331,14.331,0,0,0,1.2,5.89,14.757,14.757,0,0,0,13.557,8.816,15,15,0,0,0,2.143-.155,12.305,12.305,0,0,0,2.18-.536,20,20,0,0,0,2.313-.967,26.775,26.775,0,0,0,2.559-1.449,1.75,1.75,0,0,1,.81-.288q.47,0,.861.654l1.49,2.455a1.341,1.341,0,0,1,.182.627,1.11,1.11,0,0,1-.626.993,20.385,20.385,0,0,1-5.408,2.782,19.621,19.621,0,0,1-6.374,1.006,19.821,19.821,0,0,1-5.315-.706,19.476,19.476,0,0,1-4.755-2.012,20.168,20.168,0,0,1-4.021-3.121,19.936,19.936,0,0,1-3.1-24.149,20.358,20.358,0,0,1,3.121-4.05,19.477,19.477,0,0,1,4.036-3.121,20.524,20.524,0,0,1,4.768-2.012,20.174,20.174,0,0,1,11.506.249A20.784,20.784,0,0,1,371.8,188.751Z" transform="translate(-340.116 -184.964)" fill="#efefef"/>
        <path id="Path_41" data-name="Path 41" d="M376.814,186.608q0-1.254,1.149-1.254h15.073a12.033,12.033,0,0,1,4.859.979A12.516,12.516,0,0,1,401.813,189a12.38,12.38,0,0,1,3.578,8.764,12.1,12.1,0,0,1-.509,3.514,12.551,12.551,0,0,1-1.424,3.121,12.2,12.2,0,0,1-2.194,2.573,12.351,12.351,0,0,1-2.847,1.893l6.9,14.131v.34q0,.812-.967.81h-3.16a1.378,1.378,0,0,1-1.254-.967l-6.269-13.165a3.7,3.7,0,0,1-.458.027c-.165,0-.4,0-.7.012s-.71.013-1.215.013h-9.4V223q0,1.151-1.2,1.151h-2.717A1.016,1.016,0,0,1,376.814,223Zm23.562,11.1a7.065,7.065,0,0,0-.561-2.768,7.666,7.666,0,0,0-1.542-2.352,7.512,7.512,0,0,0-2.324-1.633,6.963,6.963,0,0,0-2.912-.614H381.882v14.733h11.259a6.907,6.907,0,0,0,2.873-.6,7.227,7.227,0,0,0,2.3-1.62,7.569,7.569,0,0,0,1.515-2.351A7.268,7.268,0,0,0,400.376,197.709Z" transform="translate(-327.654 -184.832)" fill="#efefef"/>
        <path id="Path_42" data-name="Path 42" d="M408.971,186.608a1.3,1.3,0,0,1-.3-.9q.064-.352.666-.352h4.232c.157.017.288.035.392.052a.728.728,0,0,1,.287.118,1.031,1.031,0,0,1,.261.3c.087.139.2.331.34.575L424.2,202.62h.078l9.534-16.4a1.831,1.831,0,0,1,.524-.666,1.617,1.617,0,0,1,.626-.2h4.363q.575,0,.575.47a1.432,1.432,0,0,1-.287.679q-1.622,2.586-3.214,5.263t-3.173,5.382q-1.581,2.7-3.187,5.38t-3.253,5.265v15.1q0,1.254-1.149,1.255h-2.794q-1.1,0-1.1-1.255V207.923Z" transform="translate(-316.839 -184.832)" fill="#efefef"/>
        <path id="Path_43" data-name="Path 43" d="M443.641,186.608q0-1.254,1.2-1.254h12.982a11.841,11.841,0,0,1,4.793.966,12.124,12.124,0,0,1,7.275,11.155,11.783,11.783,0,0,1-.9,4.572,12.1,12.1,0,0,1-6.295,6.465,11.455,11.455,0,0,1-4.742.979h-9.273V223a1.016,1.016,0,0,1-1.149,1.151H444.79A1.016,1.016,0,0,1,443.641,223Zm21.211,10.814a6.7,6.7,0,0,0-.549-2.664,7.358,7.358,0,0,0-3.736-3.827,6.5,6.5,0,0,0-2.742-.588h-9.143V204.5h9.143a6.514,6.514,0,0,0,2.69-.575,7.374,7.374,0,0,0,2.248-1.555,7.461,7.461,0,0,0,1.527-2.26A6.628,6.628,0,0,0,464.852,197.422Z" transform="translate(-304.96 -184.832)" fill="#efefef"/>
        <path id="Path_44" data-name="Path 44" d="M502.284,185.354a1.367,1.367,0,0,1,.848.288,1.155,1.155,0,0,1,.431.861v2.639a1.371,1.371,0,0,1-.313.9,1.185,1.185,0,0,1-.966.378H491.416v32.521a1.236,1.236,0,0,1-.313.836,1.1,1.1,0,0,1-.888.367h-2.638a1.2,1.2,0,0,1-.836-.34,1.125,1.125,0,0,1-.366-.863V190.422H475.457a1.217,1.217,0,0,1-.861-.313,1.248,1.248,0,0,1-.34-.966V186.5a1.079,1.079,0,0,1,.34-.836,1.217,1.217,0,0,1,.861-.313Z" transform="translate(-294.564 -184.832)" fill="#efefef"/>
        <path id="Path_45" data-name="Path 45" d="M527.362,184.964a19.736,19.736,0,0,1,5.29.706,19.464,19.464,0,0,1,4.754,2.011,20.583,20.583,0,0,1,4.035,3.123,19.3,19.3,0,0,1,3.123,4.048,20.713,20.713,0,0,1,2.011,4.793,19.828,19.828,0,0,1-2,15.373,20.266,20.266,0,0,1-3.121,4.023,19.758,19.758,0,0,1-4.035,3.108,20.286,20.286,0,0,1-15.425,2,19.444,19.444,0,0,1-4.754-2.012,20.138,20.138,0,0,1-4.023-3.121,19.936,19.936,0,0,1-3.1-24.149,20.405,20.405,0,0,1,3.121-4.05,19.514,19.514,0,0,1,4.036-3.121,20.522,20.522,0,0,1,4.768-2.012A19.517,19.517,0,0,1,527.362,184.964ZM512.42,204.843a14.451,14.451,0,0,0,.536,3.957,15.249,15.249,0,0,0,1.5,3.551,14.625,14.625,0,0,0,2.326,3.018A14.781,14.781,0,0,0,519.8,217.7a15.347,15.347,0,0,0,3.553,1.5,14.867,14.867,0,0,0,7.9,0,14.817,14.817,0,0,0,6.557-3.827,14.718,14.718,0,0,0,2.325-3.018,15.365,15.365,0,0,0,1.5-3.551,14.866,14.866,0,0,0-.64-9.743,14.981,14.981,0,0,0-7.9-7.9,14.852,14.852,0,0,0-9.743-.639,15.232,15.232,0,0,0-3.553,1.5,14.727,14.727,0,0,0-3.017,2.324,14.836,14.836,0,0,0-3.827,6.557A14.492,14.492,0,0,0,512.42,204.843Z" transform="translate(-283.307 -184.964)" fill="#efefef"/>
      </g>
    </g>
  </g>
</svg>
