<svg xmlns="http://www.w3.org/2000/svg" width="104.143" height="92.572" viewBox="0 0 104.143 92.572">
  <path id="lock-open-solid" d="M76.571,0A27.661,27.661,0,0,0,49.179,27.753V40.5H8.679A8.681,8.681,0,0,0,0,49.178V83.892a8.681,8.681,0,0,0,8.679,8.679H72.322A8.681,8.681,0,0,0,81,83.892V49.178A8.681,8.681,0,0,0,72.322,40.5H63.643V27.644a13.018,13.018,0,1,1,26.036-.163V41.946a4.329,4.329,0,0,0,4.339,4.339H99.8a4.329,4.329,0,0,0,4.339-4.339V27.481A27.513,27.513,0,0,0,76.571,0Z" transform="translate(0 0.001)" fill="#ff3157"/>
</svg>
