<svg id="NEWLOGO" xmlns="http://www.w3.org/2000/svg" xmlns:xlink="http://www.w3.org/1999/xlink" width="1360.545" height="379.727" viewBox="0 0 1360.545 379.727">
  <defs>
    <linearGradient id="linear-gradient" x1="-0.225" y1="0.5" x2="5.211" y2="0.5" gradientUnits="objectBoundingBox">
      <stop offset="0" stop-color="#f15e12"/>
      <stop offset="1" stop-color="#e0007e"/>
    </linearGradient>
    <linearGradient id="linear-gradient-2" x1="-8.439" y1="0.5" x2="23.476" y2="0.5" xlink:href="#linear-gradient"/>
    <linearGradient id="linear-gradient-3" x1="-2.456" y1="0.5" x2="4.74" y2="0.5" xlink:href="#linear-gradient"/>
    <linearGradient id="linear-gradient-4" x1="-3.742" y1="0.5" x2="3.453" y2="0.5" xlink:href="#linear-gradient"/>
    <linearGradient id="linear-gradient-5" x1="-6.733" y1="0.5" x2="2.885" y2="0.5" xlink:href="#linear-gradient"/>
    <linearGradient id="linear-gradient-6" x1="-7.163" y1="0.5" x2="1.393" y2="0.5" xlink:href="#linear-gradient"/>
    <linearGradient id="linear-gradient-7" x1="0" y1="1.463" x2="1" y2="1.524" xlink:href="#linear-gradient"/>
  </defs>
  <path id="Path_29" data-name="Path 29" d="M553.085,111.728a2.533,2.533,0,0,0-.723-1.662,2.311,2.311,0,0,0-1.741-.7H537.171a2.6,2.6,0,0,0-2.465,2.036q-4.716,13.29-9.511,26.363t-9.565,26.364l-18.915-52.728a2.435,2.435,0,0,0-2.465-2.036h-13.4a2.449,2.449,0,0,0-1.768.67,2.653,2.653,0,0,0-.8,1.689l-8.038,74.855a2.083,2.083,0,0,0,2.358,2.358H483q2.463,0,2.465-2.358l5.466-50.635q4.5,12.43,8.948,24.647t8.841,24.595a3.719,3.719,0,0,0,.857,1.42,1.758,1.758,0,0,0,1.286.616h9.645a1.688,1.688,0,0,0,1.232-.643,4.106,4.106,0,0,0,.857-1.393l17.843-49.3,5.465,50.689a2.217,2.217,0,0,0,2.518,2.358h10.4q2.357,0,2.358-2.2v-.162q-2.038-18.754-4.072-37.4T553.085,111.728Z" transform="translate(159.69 37.14)" fill="url(#linear-gradient)"/>
  <path id="Path_30" data-name="Path 30" d="M567.249,110.012a2.679,2.679,0,0,0-1.708-.643H554.914a2.177,2.177,0,0,0-1.761.7,2.5,2.5,0,0,0-.588,1.662v74.855a2.08,2.08,0,0,0,2.349,2.358h10.627q2.51,0,2.51-2.358V111.728A2.086,2.086,0,0,0,567.249,110.012Z" transform="translate(187.644 37.14)" fill="url(#linear-gradient-2)"/>
  <path id="Path_31" data-name="Path 31" d="M637.874,120.916a40.176,40.176,0,0,0-12.843-8.465,40.814,40.814,0,0,0-15.9-3.082H583.39a2.2,2.2,0,0,0-2.465,2.52v74.8a1.924,1.924,0,0,0,.749,1.822,3.393,3.393,0,0,0,1.716.429h25.74a41.442,41.442,0,0,0,20.485-5.332,39.223,39.223,0,0,0,14.48-14.146,39.81,39.81,0,0,0,4.075-9.538,40.486,40.486,0,0,0-1.688-26.363A39.583,39.583,0,0,0,637.874,120.916Zm-5.59,37.705a24.4,24.4,0,0,1-5.143,7.914,25.037,25.037,0,0,1-7.8,5.39,25.7,25.7,0,0,1-9.8,2.171q-4.019.161-8.038.161h-5.092V124.051h12.164a27.31,27.31,0,0,1,9.914,1.8,24.77,24.77,0,0,1,8.145,5.068,23.718,23.718,0,0,1,5.491,7.858,24.925,24.925,0,0,1,2.009,10.111A25.517,25.517,0,0,1,632.283,158.622Z" transform="translate(197.275 37.14)" fill="url(#linear-gradient-3)"/>
  <path id="Path_32" data-name="Path 32" d="M703.833,120.916a40.174,40.174,0,0,0-12.843-8.465,40.815,40.815,0,0,0-15.9-3.082h-25.74a2.2,2.2,0,0,0-2.465,2.52v74.8a1.924,1.924,0,0,0,.749,1.822,3.393,3.393,0,0,0,1.716.429h25.74a41.443,41.443,0,0,0,20.485-5.332,39.224,39.224,0,0,0,14.48-14.146,39.807,39.807,0,0,0,4.075-9.538,40.487,40.487,0,0,0-1.688-26.363A39.583,39.583,0,0,0,703.833,120.916Zm-5.59,37.705a24.423,24.423,0,0,1-5.143,7.914,25.052,25.052,0,0,1-7.8,5.39,25.7,25.7,0,0,1-9.8,2.171q-4.019.161-8.038.161h-5.092V124.051h12.163a27.31,27.31,0,0,1,9.914,1.8,24.77,24.77,0,0,1,8.145,5.068,23.718,23.718,0,0,1,5.491,7.858,24.925,24.925,0,0,1,2.009,10.111A25.52,25.52,0,0,1,698.243,158.622Z" transform="translate(219.674 37.14)" fill="url(#linear-gradient-4)"/>
  <path id="Path_33" data-name="Path 33" d="M762.313,174.259H728.77V111.728a2.167,2.167,0,0,0-.722-1.743,2.513,2.513,0,0,0-1.681-.616H715.74a2.343,2.343,0,0,0-1.815.7,2.371,2.371,0,0,0-.642,1.662v74.855a2.08,2.08,0,0,0,2.35,2.358h46.681a2.182,2.182,0,0,0,1.715-.723,2.466,2.466,0,0,0,.642-1.688v-9.806a2.379,2.379,0,0,0-.7-1.8A2.321,2.321,0,0,0,762.313,174.259Z" transform="translate(242.222 37.14)" fill="url(#linear-gradient-5)"/>
  <path id="Path_34" data-name="Path 34" d="M819.181,174.259H779.69V154.808h29.471a1.961,1.961,0,0,0,1.715-.75,2.881,2.881,0,0,0,.536-1.715v-9.7a2.427,2.427,0,0,0-.642-1.9,2.169,2.169,0,0,0-1.716-.455H779.69V124.051h38.1a2.548,2.548,0,0,0,2.009-.753,2.519,2.519,0,0,0,.67-1.721v-9.464a3.161,3.161,0,0,0-.589-1.962,2.328,2.328,0,0,0-1.983-.781H766.24q-2.357,0-2.356,2.572V186.69a2.023,2.023,0,0,0,.7,1.715,2.643,2.643,0,0,0,1.661.536h53.048q2.357,0,2.358-2.259v-9.788a3.317,3.317,0,0,0-.482-1.989A2.382,2.382,0,0,0,819.181,174.259Z" transform="translate(259.406 37.14)" fill="url(#linear-gradient-6)"/>
  <circle id="Ellipse_1" data-name="Ellipse 1" cx="139.217" cy="139.217" r="139.217" transform="translate(71.109 65.189)" fill="#efefef"/>
  <path id="Path_22" data-name="Path 22" d="M73.34,335.267a22.09,22.09,0,0,0-11.929,3.471C-11.648,258.645-5.945,134.489,74.149,61.431a196.292,196.292,0,0,1,267.19,2.434,22.327,22.327,0,1,0,7.9-6.51C266.9-21.51,136.22-18.694,57.354,63.644a206.444,206.444,0,0,0-3,282.392,22.231,22.231,0,1,0,18.986-10.772Zm275.3-264.088a12.044,12.044,0,0,1,8.522-5.838,10.115,10.115,0,0,1,1.9-.151,12.063,12.063,0,1,1-12.083,12.1,11.874,11.874,0,0,1,1.661-6.107Zm-275.3,298.4a12.08,12.08,0,0,1-12.079-12.063,11.853,11.853,0,0,1,.588-3.725,12.11,12.11,0,0,1,6.911-7.451,12.239,12.239,0,0,1,4.58-.907,12.079,12.079,0,0,1,0,24.142Z" transform="translate(0 0)" fill="#efefef"/>
  <path id="Path_23" data-name="Path 23" d="M199.112,32.207A166.094,166.094,0,1,0,365.2,198.3h0A166.093,166.093,0,0,0,199.112,32.207Zm33.235,257.277H209.884a9.2,9.2,0,0,1-7.5-3.879l-54.223-76.647a9.178,9.178,0,0,0-16.66,5.3v65.984a9.176,9.176,0,0,1-9.159,9.195H103.97a9.177,9.177,0,0,1-9.178-9.178V116.428a9.177,9.177,0,0,1,9.178-9.178h12.414a9.164,9.164,0,0,1,7.5,3.879l4.781,6.711L239.847,274.9a9.194,9.194,0,0,1-7.5,14.579Zm71.085-9.194a9.177,9.177,0,0,1-9.16,9.194H275.9a9.177,9.177,0,0,1-9.176-9.178v-65.7a9.177,9.177,0,0,0-16.678-5.3L233.1,233.33a9.177,9.177,0,0,1-15,0l-67.561-95.46a9.194,9.194,0,0,1,7.5-14.478h22.532a9.172,9.172,0,0,1,7.466,3.892l30,42.4a9.174,9.174,0,0,0,15,0l36.506-51.807,4.782-6.71a9.193,9.193,0,0,1,7.583-3.909h12.431a9.177,9.177,0,0,1,9.178,9.178Z" transform="translate(11.213 10.937)" fill="url(#linear-gradient-7)"/>
  <path id="Path_35" data-name="Path 35" d="M330.489,111.823a2.493,2.493,0,0,1,.616-1.715,2.2,2.2,0,0,1,1.741-.7h12.324a3.03,3.03,0,0,1,1.42.35,3.481,3.481,0,0,1,1.206,1.1q9.163,13.073,18.165,25.96t18.165,25.963V111.448a2.377,2.377,0,0,1,.8-1.5,2.345,2.345,0,0,1,1.554-.537h10.342a2.81,2.81,0,0,1,1.849.644,2.116,2.116,0,0,1,.777,1.715v75.017q0,2.2-2.518,2.2H385.3a2.794,2.794,0,0,1-2.2-1.447q-9.432-13.664-18.781-27.3T345.6,132.881v53.744a2.468,2.468,0,0,1-.563,1.767,2.551,2.551,0,0,1-1.9.591H332.847a2.321,2.321,0,0,1-1.8-.616,2.41,2.41,0,0,1-.563-1.688Z" transform="translate(112.23 37.154)" fill="#efefef"/>
  <path id="Path_36" data-name="Path 36" d="M396.688,149.562a40.757,40.757,0,0,1,1.448-10.877,40.325,40.325,0,0,1,4.126-9.806,41.826,41.826,0,0,1,6.4-8.305,39.88,39.88,0,0,1,8.28-6.4,42.01,42.01,0,0,1,9.778-4.126,40.889,40.889,0,0,1,21.756,0,42.035,42.035,0,0,1,9.778,4.126,40.855,40.855,0,0,1,14.709,14.709,41.851,41.851,0,0,1,4.126,9.806,40.29,40.29,0,0,1,1.475,10.931,39.7,39.7,0,0,1-1.475,10.876,42.09,42.09,0,0,1-4.126,9.754,39.936,39.936,0,0,1-6.4,8.279A41.356,41.356,0,0,1,426.668,189a40.462,40.462,0,0,1-9.778-4.126,41.139,41.139,0,0,1-8.28-6.4,40.643,40.643,0,0,1-11.922-28.908Zm15.486-.107a26.151,26.151,0,0,0,1.956,10.127,25.714,25.714,0,0,0,5.358,8.2,25.391,25.391,0,0,0,8.037,5.519,25.689,25.689,0,0,0,20.04,0,25.3,25.3,0,0,0,13.449-13.717,27.06,27.06,0,0,0,0-20.2,25.782,25.782,0,0,0-5.385-8.225,25.509,25.509,0,0,0-8.064-5.546,25.673,25.673,0,0,0-20.04,0,25.182,25.182,0,0,0-8.037,5.546,26.194,26.194,0,0,0-7.314,18.3Z" transform="translate(134.71 36.869)" fill="#efefef"/>
  <path id="Path_37" data-name="Path 37" d="M825.683,111.769a2.648,2.648,0,0,1,.805-1.689,2.445,2.445,0,0,1,1.767-.67h13.4a2.434,2.434,0,0,1,2.465,2.038l18.915,52.726q4.768-13.288,9.566-26.363t9.511-26.363a2.6,2.6,0,0,1,2.464-2.038H898.02a2.3,2.3,0,0,1,1.741.7,2.526,2.526,0,0,1,.723,1.661q1.983,18.808,4.019,37.455t4.072,37.4v.161q0,2.2-2.356,2.2h-10.4a2.217,2.217,0,0,1-2.518-2.358l-5.465-50.69L870,185.232a4.106,4.106,0,0,1-.857,1.393,1.7,1.7,0,0,1-1.232.643h-9.645a1.761,1.761,0,0,1-1.286-.616,3.751,3.751,0,0,1-.859-1.42q-4.393-12.378-8.84-24.595t-8.948-24.648l-5.465,50.636q0,2.359-2.465,2.358H820a2.083,2.083,0,0,1-2.358-2.358Z" transform="translate(277.662 37.154)" fill="#efefef"/>
  <path id="Path_38" data-name="Path 38" d="M895.86,187a16.953,16.953,0,0,1,.616-1.981q.346-.91.616-1.661l28.88-71.909a3.206,3.206,0,0,1,.884-1.314,2.651,2.651,0,0,1,1.956-.723h8.628a2.347,2.347,0,0,1,1.849.644,6.983,6.983,0,0,1,.831,1.125l1.767,4.18,28.292,70.784a3.453,3.453,0,0,0,.082.563,3.519,3.519,0,0,1,.079.67q0,1.606-2.356,1.608H957.427a2.985,2.985,0,0,1-1.823-.484,3.512,3.512,0,0,1-1.072-1.5l-.963-2.464q-1.021-2.572-2.037-5.144t-1.981-5.2H916.488q-1.393,3.752-2.7,7.046T911.558,187a2.771,2.771,0,0,1-2.786,1.984H898.055a3.1,3.1,0,0,1-1.633-.375,1.227,1.227,0,0,1-.616-1.125A1.578,1.578,0,0,1,895.86,187Zm37.294-57.172q-2.9,7.393-5.76,15.325t-5.762,15.271h22.827Z" transform="translate(304.205 37.154)" fill="#efefef"/>
  <path id="Path_39" data-name="Path 39" d="M964.163,111.823a2.487,2.487,0,0,1,.618-1.715,2.2,2.2,0,0,1,1.741-.7h12.324a3.03,3.03,0,0,1,1.42.35,3.493,3.493,0,0,1,1.206,1.1q9.163,13.073,18.165,25.96t18.164,25.963V111.448a2.372,2.372,0,0,1,.805-1.5,2.345,2.345,0,0,1,1.554-.537H1030.5a2.8,2.8,0,0,1,1.847.644,2.113,2.113,0,0,1,.778,1.715v75.017q0,2.2-2.518,2.2H1018.98a2.8,2.8,0,0,1-2.2-1.447q-9.43-13.664-18.78-27.3t-18.729-27.354v53.744a2.462,2.462,0,0,1-.563,1.767,2.548,2.548,0,0,1-1.9.591H966.522a2.319,2.319,0,0,1-1.8-.616,2.411,2.411,0,0,1-.564-1.688Z" transform="translate(327.418 37.154)" fill="#efefef"/>
  <g id="Group_14" data-name="Group 14" transform="translate(455.615 247.775)">
    <path id="Path_40" data-name="Path 40" d="M371.8,188.751a1.965,1.965,0,0,1,.47.485,1,1,0,0,1,.182.561.969.969,0,0,1-.209.626l-1.385,2.3a1.2,1.2,0,0,1-.914.628,1.094,1.094,0,0,1-.406-.091,2.572,2.572,0,0,1-.508-.3,15.383,15.383,0,0,0-3.958-2.038,16.446,16.446,0,0,0-4.375-.836,15.7,15.7,0,0,0-11.141,4.48,15.077,15.077,0,0,0-3.253,4.754,14.17,14.17,0,0,0-1.175,5.708,14.331,14.331,0,0,0,1.2,5.89,14.757,14.757,0,0,0,13.557,8.816,15,15,0,0,0,2.143-.155,12.305,12.305,0,0,0,2.18-.536,20,20,0,0,0,2.313-.967,26.775,26.775,0,0,0,2.559-1.449,1.75,1.75,0,0,1,.81-.288q.47,0,.861.654l1.49,2.455a1.341,1.341,0,0,1,.182.627,1.11,1.11,0,0,1-.626.993,20.385,20.385,0,0,1-5.408,2.782,19.621,19.621,0,0,1-6.374,1.006,19.821,19.821,0,0,1-5.315-.706,19.476,19.476,0,0,1-4.755-2.012,20.168,20.168,0,0,1-4.021-3.121,19.936,19.936,0,0,1-3.1-24.149,20.358,20.358,0,0,1,3.121-4.05,19.477,19.477,0,0,1,4.036-3.121,20.524,20.524,0,0,1,4.768-2.012,20.174,20.174,0,0,1,11.506.249A20.784,20.784,0,0,1,371.8,188.751Z" transform="translate(-340.116 -184.964)" fill="#efefef"/>
    <path id="Path_41" data-name="Path 41" d="M376.814,186.608q0-1.254,1.149-1.254h15.073a12.033,12.033,0,0,1,4.859.979A12.516,12.516,0,0,1,401.813,189a12.38,12.38,0,0,1,3.578,8.764,12.1,12.1,0,0,1-.509,3.514,12.551,12.551,0,0,1-1.424,3.121,12.2,12.2,0,0,1-2.194,2.573,12.351,12.351,0,0,1-2.847,1.893l6.9,14.131v.34q0,.812-.967.81h-3.16a1.378,1.378,0,0,1-1.254-.967l-6.269-13.165a3.7,3.7,0,0,1-.458.027c-.165,0-.4,0-.7.012s-.71.013-1.215.013h-9.4V223q0,1.151-1.2,1.151h-2.717A1.016,1.016,0,0,1,376.814,223Zm23.562,11.1a7.065,7.065,0,0,0-.561-2.768,7.666,7.666,0,0,0-1.542-2.352,7.512,7.512,0,0,0-2.324-1.633,6.963,6.963,0,0,0-2.912-.614H381.882v14.733h11.259a6.907,6.907,0,0,0,2.873-.6,7.227,7.227,0,0,0,2.3-1.62,7.569,7.569,0,0,0,1.515-2.351A7.268,7.268,0,0,0,400.376,197.709Z" transform="translate(-327.654 -184.832)" fill="#efefef"/>
    <path id="Path_42" data-name="Path 42" d="M408.971,186.608a1.3,1.3,0,0,1-.3-.9q.064-.352.666-.352h4.232c.157.017.288.035.392.052a.728.728,0,0,1,.287.118,1.031,1.031,0,0,1,.261.3c.087.139.2.331.34.575L424.2,202.62h.078l9.534-16.4a1.831,1.831,0,0,1,.524-.666,1.617,1.617,0,0,1,.626-.2h4.363q.575,0,.575.47a1.432,1.432,0,0,1-.287.679q-1.622,2.586-3.214,5.263t-3.173,5.382q-1.581,2.7-3.187,5.38t-3.253,5.265v15.1q0,1.254-1.149,1.255h-2.794q-1.1,0-1.1-1.255V207.923Z" transform="translate(-316.839 -184.832)" fill="#efefef"/>
    <path id="Path_43" data-name="Path 43" d="M443.641,186.608q0-1.254,1.2-1.254h12.982a11.841,11.841,0,0,1,4.793.966,12.124,12.124,0,0,1,7.275,11.155,11.783,11.783,0,0,1-.9,4.572,12.1,12.1,0,0,1-6.295,6.465,11.455,11.455,0,0,1-4.742.979h-9.273V223a1.016,1.016,0,0,1-1.149,1.151H444.79A1.016,1.016,0,0,1,443.641,223Zm21.211,10.814a6.7,6.7,0,0,0-.549-2.664,7.358,7.358,0,0,0-3.736-3.827,6.5,6.5,0,0,0-2.742-.588h-9.143V204.5h9.143a6.514,6.514,0,0,0,2.69-.575,7.374,7.374,0,0,0,2.248-1.555,7.461,7.461,0,0,0,1.527-2.26A6.628,6.628,0,0,0,464.852,197.422Z" transform="translate(-304.96 -184.832)" fill="#efefef"/>
    <path id="Path_44" data-name="Path 44" d="M502.284,185.354a1.367,1.367,0,0,1,.848.288,1.155,1.155,0,0,1,.431.861v2.639a1.371,1.371,0,0,1-.313.9,1.185,1.185,0,0,1-.966.378H491.416v32.521a1.236,1.236,0,0,1-.313.836,1.1,1.1,0,0,1-.888.367h-2.638a1.2,1.2,0,0,1-.836-.34,1.125,1.125,0,0,1-.366-.863V190.422H475.457a1.217,1.217,0,0,1-.861-.313,1.248,1.248,0,0,1-.34-.966V186.5a1.079,1.079,0,0,1,.34-.836,1.217,1.217,0,0,1,.861-.313Z" transform="translate(-294.564 -184.832)" fill="#efefef"/>
    <path id="Path_45" data-name="Path 45" d="M527.362,184.964a19.736,19.736,0,0,1,5.29.706,19.464,19.464,0,0,1,4.754,2.011,20.583,20.583,0,0,1,4.035,3.123,19.3,19.3,0,0,1,3.123,4.048,20.713,20.713,0,0,1,2.011,4.793,19.828,19.828,0,0,1-2,15.373,20.266,20.266,0,0,1-3.121,4.023,19.758,19.758,0,0,1-4.035,3.108,20.286,20.286,0,0,1-15.425,2,19.444,19.444,0,0,1-4.754-2.012,20.138,20.138,0,0,1-4.023-3.121,19.936,19.936,0,0,1-3.1-24.149,20.405,20.405,0,0,1,3.121-4.05,19.514,19.514,0,0,1,4.036-3.121,20.522,20.522,0,0,1,4.768-2.012A19.517,19.517,0,0,1,527.362,184.964ZM512.42,204.843a14.451,14.451,0,0,0,.536,3.957,15.249,15.249,0,0,0,1.5,3.551,14.625,14.625,0,0,0,2.326,3.018A14.781,14.781,0,0,0,519.8,217.7a15.347,15.347,0,0,0,3.553,1.5,14.867,14.867,0,0,0,7.9,0,14.817,14.817,0,0,0,6.557-3.827,14.718,14.718,0,0,0,2.325-3.018,15.365,15.365,0,0,0,1.5-3.551,14.866,14.866,0,0,0-.64-9.743,14.981,14.981,0,0,0-7.9-7.9,14.852,14.852,0,0,0-9.743-.639,15.232,15.232,0,0,0-3.553,1.5,14.727,14.727,0,0,0-3.017,2.324,14.836,14.836,0,0,0-3.827,6.557A14.492,14.492,0,0,0,512.42,204.843Z" transform="translate(-283.307 -184.964)" fill="#efefef"/>
  </g>
</svg>
