<svg xmlns="http://www.w3.org/2000/svg" xmlns:xlink="http://www.w3.org/1999/xlink" viewBox="0 0 440.28 438.51"><defs><style>.cls-1{fill:#ffffff;}.cls-2{fill:url(#linear-gradient);}</style><linearGradient id="linear-gradient" x1="77.51" y1="68.55" x2="438.16" y2="446.17" gradientUnits="userSpaceOnUse"><stop offset="0" stop-color="#f70"/><stop offset="1" stop-color="#ff0095"/></linearGradient></defs><title>transparent icon</title><g id="Layer_2" data-name="Layer 2"><g id="Layer_1-2" data-name="Layer 1"><path class="cls-1" d="M85.07,387.19a25.58,25.58,0,0,0-13.76,4A226.48,226.48,0,0,1,11.73,238.14c0-124.84,101.59-226.41,226.44-226.41a225.71,225.71,0,0,1,156,62.32,25.65,25.65,0,1,0,9.11-7.52A237.42,237.42,0,0,0,238.17,0C106.84,0,0,106.84,0,238.14A238.35,238.35,0,0,0,63.1,399.62a25.64,25.64,0,1,0,22-12.43ZM402.6,82.54a13.85,13.85,0,0,1,9.82-6.73,11.54,11.54,0,0,1,2.2-.19,13.92,13.92,0,1,1-13.93,13.93A13.69,13.69,0,0,1,402.6,82.54ZM85.07,426.78a14,14,0,0,1-13.93-13.93,14.16,14.16,0,0,1,.67-4.29,13.93,13.93,0,1,1,13.26,18.22Z"/><path class="cls-2" d="M243,50.2C137.18,50.2,51.37,136,51.37,241.87S137.18,433.54,243,433.54,434.7,347.72,434.7,241.87,348.89,50.2,243,50.2ZM281.38,347H255.46a10.61,10.61,0,0,1-8.65-4.47l-62.54-88.36c-6-8.43-19.23-4.21-19.23,6.11v76.13A10.59,10.59,0,0,1,154.45,347H133.28a10.59,10.59,0,0,1-10.59-10.59v-189a10.59,10.59,0,0,1,10.59-10.59h14.33a10.58,10.58,0,0,1,8.65,4.48l5.52,7.8L290,330.26A10.59,10.59,0,0,1,281.38,347Zm82-10.59A10.59,10.59,0,0,1,352.79,347H331.62A10.59,10.59,0,0,1,321,336.38V260.61c0-10.34-13.28-14.55-19.24-6.11l-19.54,27.71a10.59,10.59,0,0,1-17.3,0L187,172.1a10.59,10.59,0,0,1,8.66-16.71l26,.05a10.56,10.56,0,0,1,8.63,4.47l34.59,48.92a10.6,10.6,0,0,0,17.31,0l42.13-59.77,5.51-7.8a10.6,10.6,0,0,1,8.65-4.48h14.33a10.59,10.59,0,0,1,10.59,10.59Z"/></g></g></svg>