<?xml version="1.0" encoding="utf-8"?>
<svg xmlns="http://www.w3.org/2000/svg" viewBox="0 0 48 48"><title>14-retort</title><g id="_14-retort" data-name="14-retort"><path d="M25.64,46.92c-.54.05-1.09.08-1.64.08s-1.1-.03-1.64-.08A16.986,16.986,0,0,1,11.78,18.2L4.82,11.23,3.63,12.41a1.431,1.431,0,0,1-2.04,0l-.17-.16a1.449,1.449,0,0,1,0-2.04L8.21,3.42a1.449,1.449,0,0,1,2.04,0l.16.17a1.431,1.431,0,0,1,0,2.04L9.23,6.82l7.73,7.72A16.663,16.663,0,0,1,21,13.28V4H19.39A1.387,1.387,0,0,1,18,2.61V2.39A1.387,1.387,0,0,1,19.39,1h9.22A1.387,1.387,0,0,1,30,2.39v.22A1.387,1.387,0,0,1,28.61,4H27v9.28a16.663,16.663,0,0,1,4.04,1.26l7.73-7.72L37.59,5.63a1.431,1.431,0,0,1,0-2.04l.16-.17a1.449,1.449,0,0,1,2.04,0l6.79,6.79a1.449,1.449,0,0,1,0,2.04l-.17.16a1.431,1.431,0,0,1-2.04,0l-1.19-1.18L36.22,18.2A16.986,16.986,0,0,1,25.64,46.92Z" style="fill:#dee3f3"/><circle cx="24.5" cy="19.5" r="1.5" style="fill:#567bff"/><path d="M37,25a17.355,17.355,0,0,1,1,5A14.024,14.024,0,0,1,23.96,44C16.72,44,10.77,39,10,32c.34-1.54,1.9-8,7-8,6.02,0,4.95,5,10.97,6C32.89,30.82,35,28,37,25Z" style="fill:#567bff"/><path d="M23.96,41A13.716,13.716,0,0,1,10.321,30.741c-.156.535-.259.98-.321,1.259.77,7,6.72,12,13.96,12A14.024,14.024,0,0,0,38,30a10.029,10.029,0,0,0-.1-1.354A14.027,14.027,0,0,1,23.96,41Z" style="fill:#4c64e0"/><circle cx="30" cy="25" r="2" style="fill:#567bff"/><path d="M24,13a16.963,16.963,0,0,0-4,.493,16.98,16.98,0,0,1,0,33.014A16.993,16.993,0,1,0,24,13Z" style="fill:#f0f3ff"/><path d="M37.972,29.345c.018.225.028.444.028.655C38,29.789,37.989,29.569,37.972,29.345Z" style="fill:#567bff"/><path d="M37.9,28.646c.03.223.055.443.073.659C37.95,29.089,37.925,28.869,37.9,28.646Z" style="fill:#567bff"/><path d="M29.992,39.633a14.015,14.015,0,0,0,7.9-10.987A20.826,20.826,0,0,0,37,25a12.579,12.579,0,0,1-4.03,4.311c.009.23.03.457.03.689A16.867,16.867,0,0,1,29.992,39.633Z" style="fill:#6b95ff"/><path d="M37.968,29.305l0,.04Z" style="fill:#4c64e0"/><polygon points="37.895 28.646 37.895 28.646 37.895 28.646 37.895 28.646" style="fill:#4c64e0"/><path d="M38,30c0-.211-.01-.43-.028-.655l0-.04c-.018-.216-.043-.436-.073-.659h0a14.015,14.015,0,0,1-7.9,10.987,17.077,17.077,0,0,1-4.209,4.236A14.011,14.011,0,0,0,38,30Z" style="fill:#567bff"/><path d="M46.58,10.21,39.79,3.42a1.449,1.449,0,0,0-2.04,0l-.16.17a1.431,1.431,0,0,0,0,2.04l1.18,1.19-.011.011.827.755a2,2,0,0,1,0,2.828L34,16l-2.947-1.473-.013.013A17.022,17.022,0,0,1,36.221,18.2L43.18,11.23l1.19,1.18a1.431,1.431,0,0,0,2.04,0l.17-.16A1.449,1.449,0,0,0,46.58,10.21Z" style="fill:#f0f3ff"/><path d="M27.007,13.281H27V5H25a2,2,0,0,0-2,2v6.05c.333-.019.662-.05,1-.05A17.123,17.123,0,0,1,27.007,13.281Z" style="fill:#f0f3ff"/><path d="M12.436,17.564l.15-.15a2,2,0,0,0,0-2.828L8.414,10.414a2,2,0,0,0-2.828,0L3.508,12.492a1.369,1.369,0,0,0,.122-.082l1.19-1.18L11.779,18.2C11.991,17.98,12.213,17.772,12.436,17.564Z" style="fill:#ccd3eb"/><path d="M10.41,3.59A1.43,1.43,0,0,1,10.6,5.4L3.4,12.6a1.43,1.43,0,0,1-1.81-.19l-.17-.16a1.449,1.449,0,0,1,0-2.04L8.21,3.42a1.449,1.449,0,0,1,2.04,0Z" style="fill:#ccd3eb"/><path d="M30,2.39v.22A1.387,1.387,0,0,1,28.61,4H19.39A1.387,1.387,0,0,1,18,2.61V2.39A1.387,1.387,0,0,1,19.39,1h9.22A1.387,1.387,0,0,1,30,2.39Z" style="fill:#ccd3eb"/><path d="M46.58,10.21a1.449,1.449,0,0,1,0,2.04l-.17.16a1.431,1.431,0,0,1-2.04,0l-.39-.39L44,12,37.4,5.4a1.43,1.43,0,0,1,.19-1.81l.16-.17a1.449,1.449,0,0,1,2.04,0Z" style="fill:#ccd3eb"/><path d="M2.42,11.21,9.21,4.42A1.444,1.444,0,0,1,10.728,4.1a1.391,1.391,0,0,0-.318-.506l-.16-.17a1.449,1.449,0,0,0-2.04,0L1.42,10.21a1.449,1.449,0,0,0,0,2.04l.17.16a1.391,1.391,0,0,0,.506.318A1.444,1.444,0,0,1,2.42,11.21Z" style="fill:#f0f3ff"/><path d="M30,2.39A1.387,1.387,0,0,0,28.61,1H19.39A1.387,1.387,0,0,0,18,2.39v.22a1.4,1.4,0,0,0,.062.39A1.381,1.381,0,0,1,19.39,2h9.22a1.381,1.381,0,0,1,1.328,1A1.4,1.4,0,0,0,30,2.61Z" style="fill:#f0f3ff"/><path d="M46.58,10.21,39.79,3.42a1.449,1.449,0,0,0-2.04,0l-.16.17a1.391,1.391,0,0,0-.318.506,1.444,1.444,0,0,1,1.518.324l6.79,6.79a1.446,1.446,0,0,1,.322,1.527,1.41,1.41,0,0,0,.508-.327l.17-.16A1.449,1.449,0,0,0,46.58,10.21Z" style="fill:#f0f3ff"/><path d="M30,26a2,2,0,0,1-1.929-1.5A1.966,1.966,0,0,0,28,25a2,2,0,0,0,4,0,1.966,1.966,0,0,0-.071-.5A2,2,0,0,1,30,26Z" style="fill:#4c64e0"/><circle cx="22" cy="33" r="1" style="fill:#78a2ff"/><circle cx="19" cy="28" r="1" style="fill:#78a2ff"/><circle cx="26" cy="36" r="1" style="fill:#78a2ff"/><circle cx="28.5" cy="36.5" r="0.5" style="fill:#4c64e0"/><circle cx="34.5" cy="32.5" r="0.5" style="fill:#567bff"/><circle cx="21.5" cy="37.5" r="0.5" style="fill:#4c64e0"/><circle cx="24.5" cy="31.5" r="0.5" style="fill:#4c64e0"/><circle cx="14.5" cy="29.5" r="0.5" style="fill:#4c64e0"/><ellipse cx="32.152" cy="19.383" rx="1.642" ry="2.286" transform="translate(-4.285 28.425) rotate(-45.02)" style="fill:#f6fafd"/><ellipse cx="14.152" cy="34.383" rx="1.642" ry="2.286" transform="translate(-20.172 20.09) rotate(-45.02)" style="fill:#f6fafd"/><ellipse cx="35.258" cy="22.814" rx="0.825" ry="1.148" transform="translate(-5.802 31.627) rotate(-45.02)" style="fill:#f6fafd"/><ellipse cx="17.258" cy="37.814" rx="0.825" ry="1.148" transform="translate(-21.689 23.292) rotate(-45.02)" style="fill:#f6fafd"/><path d="M36.931,20.592a16.354,16.354,0,0,0-1.432-1.7,1,1,0,0,1,.012-1.4l6.967-6.967a1,1,0,0,1,1.414,0l1.185,1.186a.445.445,0,0,0,.629,0l.163-.163A.445.445,0,0,0,46,11.229a.44.44,0,0,0-.13-.313L39.085,4.13a.444.444,0,0,0-.628,0l-.166.165a.446.446,0,0,0,0,.628l1.186,1.185a1,1,0,0,1,0,1.414l-7.727,7.727a1,1,0,0,1-1.122.2,15.915,15.915,0,0,0-3.8-1.186A1,1,0,0,1,26,13.28V4a1,1,0,0,1,1-1h1.611A.389.389,0,0,0,29,2.611V2.389A.389.389,0,0,0,28.611,2H19.389A.389.389,0,0,0,19,2.389v.222A.389.389,0,0,0,19.389,3H21a1,1,0,0,1,1,1V6H20V5h-.611A2.392,2.392,0,0,1,17,2.611V2.389A2.392,2.392,0,0,1,19.389,0h9.222A2.392,2.392,0,0,1,31,2.389v.222A2.392,2.392,0,0,1,28.611,5H28v7.463a18.008,18.008,0,0,1,2.818.891l6.538-6.539-.478-.478a2.447,2.447,0,0,1,0-3.457l.165-.165a2.5,2.5,0,0,1,3.457,0L47.284,9.5a2.444,2.444,0,0,1,0,3.457l-.163.163a2.448,2.448,0,0,1-3.458,0l-.478-.478L37.6,18.227c.332.382.648.779.944,1.186Z"/><path d="M24,48a17.079,17.079,0,0,1-1.737-.088A17.984,17.984,0,0,1,10.4,18.227L8.88,16.708l1.414-1.414,2.2,2.2a1,1,0,0,1,.012,1.4,15.985,15.985,0,0,0,9.958,27.031,15.349,15.349,0,0,0,3.076,0A15.989,15.989,0,0,0,38.112,22.469l1.762-.947a17.989,17.989,0,0,1-14.143,26.39A16.875,16.875,0,0,1,24,48Z"/><path d="M16.956,15.542a1,1,0,0,1-.707-.293L8.522,7.522a1,1,0,0,1,0-1.414L9.708,4.923a.446.446,0,0,0,0-.629l-.163-.163A.445.445,0,0,0,9.229,4a.44.44,0,0,0-.313.13L2.13,10.915a.444.444,0,0,0,0,.628l.165.166a.447.447,0,0,0,.628,0l1.185-1.186a1,1,0,0,1,1.414,0l3.184,3.184L7.292,15.12,4.815,12.644l-.478.478a2.448,2.448,0,0,1-3.457,0l-.165-.166a2.446,2.446,0,0,1,0-3.457L7.5,2.716a2.5,2.5,0,0,1,3.457,0l.163.163a2.448,2.448,0,0,1,0,3.458l-.478.478,6.538,6.539A18.008,18.008,0,0,1,20,12.463V8h2v5.28a1,1,0,0,1-.824.985,15.915,15.915,0,0,0-3.8,1.186A1,1,0,0,1,16.956,15.542Z"/><path d="M30,28a3,3,0,1,1,3-3A3,3,0,0,1,30,28Zm0-4a1,1,0,1,0,1,1A1,1,0,0,0,30,24Z"/><path d="M24.5,22A2.5,2.5,0,1,1,27,19.5,2.5,2.5,0,0,1,24.5,22Zm0-3a.5.5,0,1,0,.5.5A.5.5,0,0,0,24.5,19Z"/><rect x="30" y="33" width="2" height="2"/><rect x="16" y="29" width="2" height="2"/><rect x="24" y="39" width="2" height="2"/><path d="M9.407,34.259a14.554,14.554,0,0,1-.4-2.15,1.015,1.015,0,0,1,.017-.325C10.258,26.2,13.165,23,17,23c3.577,0,5.065,1.66,6.378,3.124a7.308,7.308,0,0,0,4.754,2.89c4.174.694,5.962-1.456,8.036-4.569a1,1,0,0,1,1.779.234,23.1,23.1,0,0,1,.828,3.14l-1.967.362c-.056-.306-.121-.606-.188-.891-1.734,2.279-4.232,4.463-8.816,3.7a9.18,9.18,0,0,1-5.915-3.527C20.657,26.085,19.684,25,17,25c-3.9,0-5.468,4.806-5.987,7.054a12.532,12.532,0,0,0,.326,1.691Z"/><path d="M23.955,45a14.97,14.97,0,0,1-13.787-8.591l1.825-.818A12.805,12.805,0,0,0,23.955,43,13.037,13.037,0,0,0,37,30h2A15.039,15.039,0,0,1,23.955,45Z"/></g></svg>