<?xml version="1.0" encoding="utf-8"?>
<svg xmlns="http://www.w3.org/2000/svg" viewBox="0 0 48 48"><title>20-grinding</title><g id="_20-grinding" data-name="20-grinding"><circle cx="24" cy="3.002" r="2" style="fill:#567bff"/><circle cx="16" cy="8.002" r="3" style="fill:#567bff"/><path d="M35.08,12.862a8.633,8.633,0,0,0,2.63-3.27l3.43-7.41a2.017,2.017,0,0,1,2.69-.989A2.051,2.051,0,0,1,45,3.052a2.027,2.027,0,0,1-.19.86l-3.43,7.41A8.587,8.587,0,0,0,40.59,15H33.02A5.977,5.977,0,0,1,35.08,12.862Z" style="fill:#65769c"/><path d="M25,30a8.866,8.866,0,0,0,2.12-.25c2.63-.6,4.71-2.16,9.26-2.63A27.22,27.22,0,0,1,40,27c-1.73,6.97-8.49,13-16,13C16.57,40,9.81,33.861,8,27a9.443,9.443,0,0,1,6-2C19,25,20,30,25,30Z" style="fill:#567bff"/><path d="M46.41,18.412A1.955,1.955,0,0,1,45,19H3a2.006,2.006,0,0,1-2-2,1.955,1.955,0,0,1,.59-1.41A1.955,1.955,0,0,1,3,15H45a2.006,2.006,0,0,1,2,2A1.955,1.955,0,0,1,46.41,18.412Z" style="fill:#a6c9ff"/><path d="M3,17H45a2,2,0,0,1,1.721,1A1.959,1.959,0,0,0,47,17a2.006,2.006,0,0,0-2-2H3a1.955,1.955,0,0,0-1.41.59A1.959,1.959,0,0,0,1.279,18a1.913,1.913,0,0,1,.311-.409A1.955,1.955,0,0,1,3,17Z" style="fill:#bfd8ff"/><path d="M36.37,27l3.43-7.409c.09-.21.18-.41.26-.59H44v4.779A19.218,19.218,0,0,1,33.09,41.11,1.941,1.941,0,0,0,32,42.88V45a2.006,2.006,0,0,1-2,2H18a2.006,2.006,0,0,1-2-2V42.88a1.941,1.941,0,0,0-1.09-1.77A19.218,19.218,0,0,1,4,23.781V19H31.13l-3.82,8.249a3.872,3.872,0,0,0-.19,2.5A8.866,8.866,0,0,1,25,30c-5,0-6-5-11-5a9.443,9.443,0,0,0-6,2c1.81,6.86,8.57,13,16,13,7.51,0,14.27-6.029,16-13a27.22,27.22,0,0,0-3.62.12Z" style="fill:#d6e6ff"/><path d="M31.13,19h8.93c-.08.18-.17.38-.26.59L36.37,27l.01.12c-4.55.47-6.63,2.03-9.26,2.63a3.872,3.872,0,0,1,.19-2.5Z" style="fill:#65769c"/><path d="M29.273,32.685a4.34,4.34,0,0,0,5.385-1.977l1.654-3.579c-4.5.479-6.573,2.023-9.187,2.621A4.249,4.249,0,0,0,29.273,32.685Z" style="fill:#5369f5"/><path d="M17.4,44a2.309,2.309,0,0,1-1.4-.472V45a2.006,2.006,0,0,0,2,2H30a2.006,2.006,0,0,0,2-2V43.528A2.309,2.309,0,0,1,30.6,44Z" style="fill:#a6c9ff"/><path d="M38.915,26.989C36.258,32.607,30.408,37,24,37,17.445,37,11.417,32.22,8.844,26.385A5.57,5.57,0,0,0,8,27c1.81,6.86,8.57,13,16,13,7.51,0,14.27-6.029,16-13C39.624,26.99,39.265,26.987,38.915,26.989Z" style="fill:#4c64e0"/><path d="M24,4a2,2,0,0,1-1.929-1.5A1.973,1.973,0,0,0,22,3a2,2,0,0,0,4,0,1.973,1.973,0,0,0-.071-.5A2,2,0,0,1,24,4Z" style="fill:#3b51c4"/><path d="M16,9a2.986,2.986,0,0,1-2.817-2,3,3,0,1,0,5.634,0A2.986,2.986,0,0,1,16,9Z" style="fill:#3b51c4"/><path d="M27.873,39.458A17.778,17.778,0,0,0,40,27a27.22,27.22,0,0,0-3.62.12c-.24.025-.47.054-.7.085A19.2,19.2,0,0,1,27.873,39.458Z" style="fill:#6b95ff"/><path d="M43.83,1.193a2.016,2.016,0,0,0-2.69.989l-3.43,7.41a8.633,8.633,0,0,1-2.63,3.27A5.977,5.977,0,0,0,33.02,15H37L43.886,1.23C43.866,1.219,43.851,1.2,43.83,1.193Z" style="fill:#7989af"/><path d="M38.684,22,36.37,27l.01.12A27.22,27.22,0,0,1,40,27,17.778,17.778,0,0,1,27.873,39.458,19.19,19.19,0,0,1,25.09,41.11,1.941,1.941,0,0,0,24,42.88V44h6.6a2.309,2.309,0,0,0,1.4-.472V42.88a1.941,1.941,0,0,1,1.09-1.77A19.217,19.217,0,0,0,44,23.781V22Z" style="fill:#f7f9ff"/><path d="M36,23.781a19.322,19.322,0,0,1-.317,3.425c.227-.031.457-.06.7-.085L36.37,27l2.314-5H36Z" style="fill:#7989af"/><path d="M24,44v1a2.006,2.006,0,0,1-2,2h8a2.006,2.006,0,0,0,2-2V43.528A2.309,2.309,0,0,1,30.6,44Z" style="fill:#bfd8ff"/><path d="M40.06,19c-.08.18-.17.38-.26.589L38.684,22H44V19Z" style="fill:#f0f3ff"/><path d="M38.684,22l1.116-2.41c.09-.209.18-.409.26-.589H36v3Z" style="fill:#415372"/><path d="M38.684,22H44V19H40.06c-.08.18-.17.38-.26.589Z" style="fill:#dee3f3"/><polygon points="31.13 19.002 4 19.002 4 22.001 29.741 22.001 31.13 19.002" style="fill:#bfd8ff"/><path d="M38.684,22l1.116-2.41c.09-.209.18-.409.26-.589H31.13l-1.389,3Z" style="fill:#415372"/><circle cx="27" cy="33.001" r="1" style="fill:#6b95ff"/><circle cx="19" cy="33.001" r="1" style="fill:#78a2ff"/><circle cx="16" cy="28.001" r="1" style="fill:#78a2ff"/><circle cx="25.5" cy="34.501" r="0.5" style="fill:#4c64e0"/><circle cx="31.5" cy="30.501" r="0.5" style="fill:#567bff"/><circle cx="16.5" cy="32.501" r="0.5" style="fill:#4c64e0"/><circle cx="21.5" cy="31.501" r="0.5" style="fill:#4c64e0"/><circle cx="12.5" cy="29.501" r="0.5" style="fill:#4c64e0"/><ellipse cx="11.258" cy="27.815" rx="0.825" ry="1.148" transform="translate(-16.376 16.119) rotate(-45.025)" style="fill:#f6fafd"/><ellipse cx="17.004" cy="7.316" rx="0.413" ry="0.574" transform="translate(-0.19 14.174) rotate(-45.025)" style="fill:#f6fafd"/><path d="M39,20H3a3,3,0,0,1,0-6H5v2H3a1,1,0,0,0,0,2H39Z"/><path d="M45,20H41V18h4a1,1,0,0,0,0-2H11V14H45a3,3,0,0,1,0,6Z"/><rect x="7" y="14" width="2" height="2"/><path d="M30,48H18a3,3,0,0,1-3-3V42.884a.963.963,0,0,0-.52-.877,20.359,20.359,0,0,1-3.6-2.215l1.221-1.584a18.356,18.356,0,0,0,3.24,2A2.972,2.972,0,0,1,17,42.884V45a1,1,0,0,0,1,1H30a1,1,0,0,0,1-1V42.884a2.972,2.972,0,0,1,1.655-2.68A18.315,18.315,0,0,0,43,23.784V20H41V18h3a1,1,0,0,1,1,1v4.784A20.325,20.325,0,0,1,33.52,42.007a.963.963,0,0,0-.52.877V45A3,3,0,0,1,30,48Z"/><path d="M9.628,38.741A20.239,20.239,0,0,1,3,23.784V19a1,1,0,0,1,1-1H39v2H5v3.784a18.242,18.242,0,0,0,5.972,13.477Z"/><path d="M26.212,30.271a5,5,0,0,1,.193-3.439L29.3,20.58l1.815.84-2.889,6.251a3.04,3.04,0,0,0-.083,2.058Z"/><rect x="34.454" y="23" width="6.609" height="2" transform="translate(0.122 48.192) rotate(-65.174)"/><path d="M33.9,15.49l-1.744-.98A5.769,5.769,0,0,1,34,12.437c.14-.106.29-.221.457-.354A7.686,7.686,0,0,0,36.8,9.171l3.425-7.41A3.017,3.017,0,0,1,44.255.288a3.054,3.054,0,0,1,1.462,4.04l-3.425,7.41a7.592,7.592,0,0,0-.707,3.27l-2-.016a9.5,9.5,0,0,1,.892-4.094L43.9,3.488a1.049,1.049,0,0,0-.5-1.39,1,1,0,0,0-.777-.036,1.022,1.022,0,0,0-.582.538L38.62,10.011a9.7,9.7,0,0,1-2.914,3.634c-.18.143-.343.268-.493.382A3.853,3.853,0,0,0,33.9,15.49Z"/><path d="M24,41C16.515,41,9.062,34.962,7.033,27.255a1,1,0,0,1,.292-.993A10.467,10.467,0,0,1,14,24c2.862,0,4.6,1.451,6.14,2.731C21.6,27.949,22.862,29,25,29a11.654,11.654,0,0,0,4.547-1.112A23.672,23.672,0,0,1,40.026,26a1,1,0,0,1,.945,1.24C39.059,34.956,31.605,41,24,41ZM9.146,27.37C11.179,33.94,17.581,39,24,39c6.319,0,12.527-4.744,14.667-11.008a21.29,21.29,0,0,0-8.391,1.758A13.568,13.568,0,0,1,25,31c-2.862,0-4.6-1.451-6.14-2.731C17.4,27.051,16.138,26,14,26A9.033,9.033,0,0,0,9.146,27.37Z"/><path d="M24,6a3,3,0,1,1,3-3A3,3,0,0,1,24,6Zm0-4a1,1,0,1,0,1,1A1,1,0,0,0,24,2Z"/><path d="M16,12a4,4,0,1,1,4-4A4,4,0,0,1,16,12Zm0-6a2,2,0,1,0,2,2A2,2,0,0,0,16,6Z"/></g></svg>