<?xml version="1.0" encoding="utf-8"?>
<svg xmlns="http://www.w3.org/2000/svg" viewBox="0 0 48 48"><title>29-scientist</title><g id="_29-scientist" data-name="29-scientist"><polygon points="26 33 25 36 23 36 22 33 24 31 26 33" style="fill:#dee3f3"/><polygon points="25 36 27 47 21 47 23 36 25 36" style="fill:#f0f3ff"/><polygon points="23 36 21 47 18 47 18 29 21 34 22 33 23 36" style="fill:#567bff"/><polygon points="30 29 30 47 27 47 25 36 26 33 27 34 30 29" style="fill:#567bff"/><path d="M18,29a2.006,2.006,0,0,0,2-2l4,4-2,2-1,1Z" style="fill:#78a2ff"/><path d="M30,29l-3,5-1-1-2-2,4-4A2.006,2.006,0,0,0,30,29Z" style="fill:#78a2ff"/><path d="M13,40l3,7H9V37a8.01,8.01,0,0,1,5.92-7.73L13,36l3,2Z" style="fill:#ccd3eb"/><path d="M39,37V47H32l3-7-3-2,3-2-1.92-6.73A8.01,8.01,0,0,1,39,37Z" style="fill:#ccd3eb"/><path d="M18,29V47H16l-3-7,3-2-3-2,1.92-6.73A8.349,8.349,0,0,1,17,29Z" style="fill:#dee3f3"/><path d="M32,38l3,2-3,7H30V29h1a8.349,8.349,0,0,1,2.08.27L35,36Z" style="fill:#dee3f3"/><path d="M16,12v2H15a2,2,0,0,0-1,.27V11a10,10,0,0,1,20,0v3.27A2,2,0,0,0,33,14H32V12a6.889,6.889,0,0,1-4-5C26,10,23.74,12,16,12Z" style="fill:#2b3e5b"/><path d="M16,17a8.1,8.1,0,0,0,.06.99L16,18H15a2,2,0,0,1,0-4h1Z" style="fill:#ffc8ba"/><path d="M34,14.27A2,2,0,0,1,33,18H32l-.06-.01A8.1,8.1,0,0,0,32,17V14h1A2,2,0,0,1,34,14.27Z" style="fill:#ffd8cf"/><path d="M20,27V24l.03-.06A7.853,7.853,0,0,0,24,25a7.954,7.954,0,0,0,3.97-1.06L28,24v3l-4,4Z" style="fill:#ffd8cf"/><path d="M32,14v3a7.984,7.984,0,0,1-2.34,5.66,7.838,7.838,0,0,1-1.69,1.28A7.954,7.954,0,0,1,24,25a7.853,7.853,0,0,1-3.97-1.06,7.994,7.994,0,0,1-3.97-5.95A8.1,8.1,0,0,1,16,17V12c7.74,0,10-2,12-5a6.889,6.889,0,0,0,4,5Z" style="fill:#ffd8cf"/><path d="M21.7,28.7,20,27a2.006,2.006,0,0,1-2,2l.768,1.279A4.376,4.376,0,0,0,21.7,28.7Z" style="fill:#a6c9ff"/><path d="M29.232,30.279,30,29a2.006,2.006,0,0,1-2-2l-1.7,1.7A4.376,4.376,0,0,0,29.232,30.279Z" style="fill:#a6c9ff"/><path d="M30,10.65V17a7.984,7.984,0,0,1-2.34,5.66,7.838,7.838,0,0,1-1.69,1.28,7.981,7.981,0,0,1-2.98.994A8.2,8.2,0,0,0,24,25a7.954,7.954,0,0,0,3.97-1.06,7.838,7.838,0,0,0,1.69-1.28A7.984,7.984,0,0,0,32,17V12A5.775,5.775,0,0,1,30,10.65Z" style="fill:#ffe6e0"/><path d="M28,7c-1.815,2.722-3.858,4.616-10,4.944q-.436.022-.9.038c-.357.009-.717.018-1.1.018v5a8.1,8.1,0,0,0,.06.99,7.994,7.994,0,0,0,3.97,5.95A7.853,7.853,0,0,0,24,25a8.068,8.068,0,0,0,.99-.066,7.809,7.809,0,0,1-2.96-.994,7.994,7.994,0,0,1-3.97-5.95A8.1,8.1,0,0,1,18,17h0V15.78A1.985,1.985,0,0,1,19.729,13.8C24.55,13.227,26.367,11.449,28,9a6.889,6.889,0,0,0,4,5V12A6.889,6.889,0,0,1,28,7Z" style="fill:#ffc8ba"/><path d="M24,26h4V24l-.03-.06A7.954,7.954,0,0,1,24,25a7.853,7.853,0,0,1-3.97-1.06L20,24v3l2,2V28A2,2,0,0,1,24,26Z" style="fill:#fcaf9c"/><path d="M24,1a9.968,9.968,0,0,0-3.943.811c.349,3.1,2.665,5.8,6.07,7.459A12.189,12.189,0,0,0,28,7a7.7,7.7,0,0,0,1.92,3.567A19.262,19.262,0,0,0,34,11,10,10,0,0,0,24,1Z" style="fill:#415372"/><polygon points="24 33 25.5 34.5 26 33 24 31 22 33 22.5 34.5 24 33" style="fill:#adb5d5"/><path d="M11.9,32.844l.725-2.541A7.993,7.993,0,0,0,9,37v2A7.978,7.978,0,0,1,11.9,32.844Z" style="fill:#f0f3ff"/><path d="M35.375,30.3l.725,2.541A7.978,7.978,0,0,1,39,39V37A7.993,7.993,0,0,0,35.375,30.3Z" style="fill:#f0f3ff"/><path d="M14.92,31.27A8.349,8.349,0,0,1,17,31h1V29H17a8.349,8.349,0,0,0-2.08.27L14.284,31.5C14.5,31.421,14.7,31.329,14.92,31.27Z" style="fill:#f0f3ff"/><path d="M31,31a8.349,8.349,0,0,1,2.08.27c.22.059.424.151.636.228L33.08,29.27A8.349,8.349,0,0,0,31,29H30v2Z" style="fill:#f0f3ff"/><path d="M34.273,31.7l0,0a8,8,0,0,1,1.1.6h0a8.174,8.174,0,0,1,.725.541L35.375,30.3h0a8.112,8.112,0,0,0-1.1-.6l0,0a7.87,7.87,0,0,0-1.193-.428l.636,2.228C33.9,31.566,34.094,31.617,34.273,31.7Z" style="fill:#dee3f3"/><path d="M12.625,32.3h0a8,8,0,0,1,1.1-.6l0,0c.179-.081.372-.132.557-.2l.636-2.228a7.87,7.87,0,0,0-1.193.428l0,0a8.112,8.112,0,0,0-1.1.6h0L11.9,32.844A8.174,8.174,0,0,1,12.625,32.3Z" style="fill:#dee3f3"/><ellipse cx="28.5" cy="15.5" rx="0.5" ry="1.5" style="fill:#192b44"/><ellipse cx="19.5" cy="15.5" rx="0.5" ry="1.5" style="fill:#192b44"/><ellipse cx="31.258" cy="6.814" rx="0.825" ry="1.148" transform="translate(4.343 24.108) rotate(-45.02)" style="fill:#f6fafd"/><ellipse cx="29.004" cy="5.314" rx="0.413" ry="0.574" transform="translate(4.743 22.073) rotate(-45.02)" style="fill:#f6fafd"/><path d="M40,37H38a7.009,7.009,0,0,0-7-7H30a3,3,0,0,1-3-3V24h2v3a1,1,0,0,0,1,1h1A9.01,9.01,0,0,1,40,37Z"/><path d="M39,48H9a1,1,0,0,1-1-1V44h2v2H38V39h2v8A1,1,0,0,1,39,48Z"/><path d="M10,42H8V37a9.01,9.01,0,0,1,9-9h1a1,1,0,0,0,1-1V24h2v3a3,3,0,0,1-3,3H17a7.009,7.009,0,0,0-7,7Z"/><path d="M24,26a9.01,9.01,0,0,1-9-9V12a1,1,0,0,1,1-1c7.533,0,9.447-1.974,11.168-4.555a1,1,0,0,1,1.8.313,5.9,5.9,0,0,0,3.346,4.294A1,1,0,0,1,33,12v5A9.01,9.01,0,0,1,24,26ZM17,12.988V17a7,7,0,0,0,14,0V12.639a7.856,7.856,0,0,1-3.313-3.555C25.618,11.5,22.842,12.854,17,12.988Z"/><path d="M33,19H32V17h1a1,1,0,0,0,0-2H32V13h1a3,3,0,0,1,0,6Z"/><path d="M16,19H15a3,3,0,0,1,0-6h1v2H15a1,1,0,0,0,0,2h1Z"/><path d="M15,15H13V11a11,11,0,0,1,.5-3.3l1.908.6A9,9,0,0,0,15,11Z"/><path d="M16.2,6.5l-1.732-1a11.077,11.077,0,0,1,1.672-2.2l1.429,1.4A9.046,9.046,0,0,0,16.2,6.5Z"/><path d="M35,15H33V11a9.01,9.01,0,0,0-9-9,8.917,8.917,0,0,0-5.4,1.8L17.4,2.2A11,11,0,0,1,35,11Z"/><rect x="29" y="29" width="2" height="18"/><path d="M32.919,47.394l-1.838-.788,2.672-6.235-2.308-1.539a1,1,0,0,1,0-1.664l2.393-1.595-1.8-6.3,1.924-.548,2,7a1,1,0,0,1-.407,1.106L33.8,38l1.752,1.168a1,1,0,0,1,.364,1.226Z"/><rect x="17" y="29" width="2" height="18"/><path d="M15.081,47.394l-3-7a1,1,0,0,1,.364-1.226L14.2,38l-1.752-1.168a1,1,0,0,1-.407-1.106l2-7,1.924.548-1.8,6.3,2.393,1.595a1,1,0,0,1,0,1.664l-2.308,1.539,2.672,6.235Z"/><path d="M24,32a1,1,0,0,1-.707-.293l-4-4,1.414-1.414L24,29.586l3.293-3.293,1.414,1.414-4,4A1,1,0,0,1,24,32Z"/><path d="M27,35a1,1,0,0,1-.707-.293l-3-3,1.414-1.414L26.8,32.388l2.341-3.9,1.714,1.03-3,5A1.008,1.008,0,0,1,27,35Z"/><path d="M21,35a1.008,1.008,0,0,1-.857-.485l-3-5,1.714-1.03,2.341,3.9,2.095-2.095,1.414,1.414-3,3A1,1,0,0,1,21,35Z"/><path d="M25,37H23a1,1,0,0,1-.948-.684l-1-3,1.9-.632L23.721,35h.558l.773-2.316,1.9.632-1,3A1,1,0,0,1,25,37Z"/><rect x="25" y="35.91" width="1.999" height="11.18" transform="translate(-7.004 5.32) rotate(-10.305)"/><rect x="16.41" y="40.5" width="11.18" height="1.999" transform="translate(-22.765 55.725) rotate(-79.7)"/></g></svg>