<?xml version="1.0" encoding="utf-8"?>
<!-- Generator: Adobe Illustrator 21.1.0, SVG Export Plug-In . SVG Version: 6.00 Build 0)  -->
<svg version="1.1" id="Layer_1" xmlns="http://www.w3.org/2000/svg" xmlns:xlink="http://www.w3.org/1999/xlink" x="0px" y="0px"
	 viewBox="0 0 512 512" style="enable-background:new 0 0 512 512;" xml:space="preserve">
<style type="text/css">
	.st0{fill:#D6CD1E;}
	.st1{fill:#E56823;}
	.st2{fill:#FE8E46;}
	.st3{fill:#FEFE71;}
	.st4{fill:#463218;}
	.st5{fill:#7DAC51;}
	.st6{fill:#5B7C31;}
	.st7{fill:#FFFFFF;}
</style>
<g>
	<g>
		<g>
			<path class="st2" d="M346.716,383.244l-52.767-167.678h-75.901L165.28,383.244c-5.789,18.396,7.949,37.122,27.234,37.122h126.967
				C338.768,420.366,352.506,401.641,346.716,383.244z"/>
		</g>
	</g>
	<g>
		<g>
			<g>
				<g>
					<path class="st4" d="M353.394,381.143l-52.767-167.678c-0.917-2.915-3.621-4.898-6.677-4.898h-75.901
						c-3.057,0-5.76,1.983-6.677,4.898l-52.768,167.678c-3.436,10.919-1.523,22.474,5.248,31.702s17.218,14.521,28.664,14.521
						h126.967c11.446,0,21.894-5.293,28.664-14.521S356.829,392.062,353.394,381.143z M336.858,404.563
						c-4.104,5.594-10.438,8.803-17.376,8.803H192.515c-6.938,0-13.271-3.209-17.376-8.803c-4.104-5.595-5.264-12.6-3.181-19.218
						l51.226-162.779h65.63l51.226,162.779C342.122,391.964,340.962,398.969,336.858,404.563z"/>
				</g>
			</g>
		</g>
	</g>
	<g>
		<g>
			<path class="st3" d="M255.998,326.695L255.998,326.695c-19.075,0-34.537,15.463-34.537,34.537v59.134h69.075v-59.134
				C290.536,342.158,275.073,326.695,255.998,326.695z"/>
		</g>
	</g>
	<g>
		<g>
			<path class="st0" d="M255.998,326.695L255.998,326.695c-19.075,0-34.538,15.463-34.538,34.537v59.134h24.978v-59.134
				c0-14.669,9.149-27.192,22.048-32.2C264.613,327.528,260.404,326.695,255.998,326.695z"/>
		</g>
	</g>
	<g>
		<g>
			<g>
				<g>
					<path class="st4" d="M255.999,319.695c-22.904,0-41.538,18.634-41.538,41.537v59.134c0,3.866,3.134,7,7,7h69.075
						c3.866,0,7-3.134,7-7v-59.134C297.536,338.329,278.902,319.695,255.999,319.695z M283.536,413.366h-55.075v-52.134
						c0-15.184,12.354-27.537,27.538-27.537s27.537,12.354,27.537,27.537V413.366z"/>
				</g>
			</g>
		</g>
	</g>
	<g>
		<g>
			<circle class="st5" cx="255.998" cy="216.604" r="37.436"/>
		</g>
	</g>
	<g>
		<g>
			<circle class="st6" cx="255.998" cy="216.604" r="13.064"/>
		</g>
	</g>
	<g>
		<g>
			<g>
				<g>
					<path class="st4" d="M255.999,172.169c-24.502,0-44.436,19.934-44.436,44.436s19.934,44.436,44.436,44.436
						s44.436-19.934,44.436-44.436S280.5,172.169,255.999,172.169z M255.999,247.04c-16.782,0-30.436-13.653-30.436-30.436
						s13.653-30.436,30.436-30.436s30.436,13.653,30.436,30.436S272.781,247.04,255.999,247.04z"/>
				</g>
			</g>
		</g>
	</g>
	<g>
		<g>
			<path class="st7" d="M233.284,269.274l-5.551,12.854c8.957,3.868,18.467,5.829,28.265,5.829v-14
				C248.121,273.957,240.479,272.382,233.284,269.274z"/>
		</g>
	</g>
	<g>
		<g>
			
				<rect x="129.51" y="269.996" transform="matrix(0.5835 -0.8121 0.8121 0.5835 -157.2016 268.6907)" class="st3" width="107.656" height="35.202"/>
		</g>
	</g>
	<g>
		<g>
			<g>
				<g>
					<path class="st4" d="M235.947,253.019c-0.3-1.832-1.316-3.47-2.824-4.553l-28.589-20.539c-3.14-2.258-7.514-1.54-9.769,1.601
						l-62.813,87.432c-1.083,1.508-1.523,3.384-1.223,5.216c0.3,1.832,1.316,3.47,2.824,4.553l28.589,20.539
						c1.236,0.889,2.664,1.316,4.078,1.316c2.177,0,4.323-1.014,5.691-2.917l62.813-87.432
						C235.808,256.727,236.248,254.851,235.947,253.019z M164.625,331.812l-17.22-12.37l54.645-76.062l17.22,12.37L164.625,331.812z
						"/>
				</g>
			</g>
		</g>
	</g>
	<g>
		<g>
			<path class="st4" d="M260.092,210.927c-3.14-2.258-7.514-1.54-9.769,1.601l-26.969,37.539c-2.255,3.14-1.539,7.514,1.601,9.769
				c1.236,0.889,2.664,1.316,4.078,1.316c2.177,0,4.323-1.014,5.691-2.917l26.969-37.539
				C263.949,217.556,263.232,213.182,260.092,210.927z"/>
		</g>
	</g>
	<g>
		<g>
			
				<rect x="309.384" y="235.448" transform="matrix(0.5835 -0.8121 0.8121 0.5835 -98.7303 386.055)" class="st3" width="35.203" height="107.656"/>
		</g>
	</g>
	<g>
		<g>
			<g>
				<g>
					<path class="st4" d="M387.878,305.256c-0.3-1.832-1.316-3.47-2.823-4.553l-87.432-62.813c-1.509-1.084-3.387-1.525-5.216-1.224
						c-1.832,0.301-3.47,1.316-4.553,2.824l-20.54,28.59c-1.083,1.508-1.523,3.384-1.223,5.216s1.316,3.47,2.824,4.553
						l87.432,62.812c1.236,0.889,2.664,1.316,4.078,1.316c2.177,0,4.323-1.014,5.691-2.917l20.54-28.589
						C387.739,308.964,388.179,307.088,387.878,305.256z M358.831,325.207l-76.062-54.644l12.371-17.22l76.062,54.645
						L358.831,325.207z"/>
				</g>
			</g>
		</g>
	</g>
	<g>
		<g>
			<path class="st4" d="M297.623,237.89l-37.539-26.969c-3.139-2.257-7.513-1.54-9.769,1.601c-2.255,3.14-1.539,7.514,1.601,9.769
				l37.539,26.969c1.236,0.889,2.664,1.316,4.078,1.316c2.177,0,4.323-1.014,5.691-2.917
				C301.479,244.519,300.763,240.145,297.623,237.89z"/>
		</g>
	</g>
	<g>
		<g>
			
				<rect x="167.414" y="90.107" transform="matrix(0.5835 -0.8121 0.8121 0.5835 -39.8305 210.2105)" class="st3" width="35.203" height="107.656"/>
		</g>
	</g>
	<g>
		<g>
			<g>
				<g>
					<path class="st4" d="M245.908,159.915c-0.3-1.832-1.316-3.47-2.824-4.553L155.653,92.55c-3.139-2.258-7.513-1.54-9.769,1.601
						l-20.54,28.589c-1.083,1.508-1.523,3.384-1.223,5.216c0.3,1.832,1.316,3.47,2.823,4.553l87.432,62.813
						c1.198,0.861,2.628,1.315,4.084,1.315c0.377,0,0.755-0.03,1.132-0.092c1.832-0.301,3.47-1.316,4.553-2.824l20.54-28.59
						C245.769,163.623,246.208,161.747,245.908,159.915z M216.86,179.867l-76.062-54.645l12.371-17.219l76.062,54.644
						L216.86,179.867z"/>
				</g>
			</g>
		</g>
	</g>
	<g>
		<g>
			<path class="st4" d="M260.084,210.921l-37.539-26.969c-3.14-2.257-7.513-1.54-9.769,1.601c-2.255,3.14-1.539,7.514,1.601,9.769
				l37.539,26.969c1.236,0.889,2.664,1.316,4.078,1.316c2.177,0,4.323-1.014,5.691-2.917
				C263.94,217.55,263.224,213.176,260.084,210.921z"/>
		</g>
	</g>
	<g>
		<g>
			
				<rect x="274.842" y="128.019" transform="matrix(0.5835 -0.8121 0.8121 0.5835 18.639 327.5824)" class="st3" width="107.656" height="35.203"/>
		</g>
	</g>
	<g>
		<g>
			<g>
				<g>
					<path class="st4" d="M381.279,111.042c-0.3-1.832-1.316-3.47-2.824-4.553L349.866,85.95c-3.14-2.258-7.513-1.54-9.769,1.601
						l-62.813,87.432c-2.255,3.14-1.539,7.514,1.601,9.769l28.589,20.54c1.198,0.861,2.628,1.315,4.084,1.315
						c0.376,0,0.755-0.03,1.132-0.092c1.832-0.301,3.47-1.316,4.553-2.824l62.813-87.433
						C381.14,114.75,381.58,112.874,381.279,111.042z M309.958,189.837l-17.22-12.371l54.645-76.062l17.22,12.37L309.958,189.837z"
						/>
				</g>
			</g>
		</g>
	</g>
	<g>
		<g>
			<path class="st4" d="M287.053,173.382c-3.139-2.258-7.513-1.54-9.769,1.601l-26.969,37.539c-2.255,3.14-1.539,7.514,1.601,9.769
				c1.236,0.889,2.664,1.316,4.078,1.316c2.177,0,4.323-1.014,5.691-2.917l26.969-37.539
				C290.909,180.011,290.193,175.637,287.053,173.382z"/>
		</g>
	</g>
	<g>
		<g>
			<path class="st4" d="M160.918,174.567c-3.647-1.287-7.644,0.625-8.931,4.27c-4.158,11.775-6.266,24.133-6.266,36.729
				c0,11.18,1.668,22.211,4.959,32.79c0.933,2.999,3.698,4.923,6.682,4.923c0.688,0,1.389-0.103,2.081-0.317
				c3.691-1.148,5.753-5.072,4.605-8.764c-2.871-9.23-4.327-18.864-4.327-28.632c0-11.005,1.839-21.794,5.467-32.067
				C166.475,179.854,164.563,175.854,160.918,174.567z"/>
		</g>
	</g>
	<g>
		<g>
			<path class="st4" d="M292.884,111.61c-11.821-4.195-24.231-6.322-36.885-6.322c-9.211,0-18.367,1.139-27.213,3.386
				c-3.747,0.951-6.014,4.76-5.062,8.507c0.952,3.746,4.76,6.021,8.507,5.062c7.721-1.96,15.717-2.954,23.768-2.954
				c11.055,0,21.89,1.855,32.203,5.516c0.774,0.275,1.564,0.405,2.341,0.405c2.88,0,5.579-1.792,6.597-4.661
				C298.432,116.905,296.527,112.903,292.884,111.61z"/>
		</g>
	</g>
	<g>
		<g>
			<path class="st4" d="M360.821,181.222c-1.204-3.674-5.158-5.677-8.831-4.474c-3.674,1.203-5.677,5.157-4.474,8.831
				c3.159,9.645,4.76,19.734,4.76,29.987c0,13-2.544,25.607-7.563,37.474c-1.506,3.561,0.16,7.668,3.721,9.174
				c0.89,0.376,1.814,0.555,2.724,0.555c2.728,0,5.32-1.604,6.45-4.275c5.752-13.601,8.669-28.043,8.669-42.927
				C366.276,203.831,364.441,192.275,360.821,181.222z"/>
		</g>
	</g>
</g>
</svg>
