<?xml version="1.0" encoding="utf-8"?>
<!-- Generator: Adobe Illustrator 22.0.1, SVG Export Plug-In . SVG Version: 6.00 Build 0)  -->
<svg version="1.1" id="Layer_1" xmlns="http://www.w3.org/2000/svg" xmlns:xlink="http://www.w3.org/1999/xlink" x="0px" y="0px"
	 viewBox="0 0 256 256" style="enable-background:new 0 0 256 256;" xml:space="preserve">
<style type="text/css">
	.st0{fill:#D7E057;}
	.st1{fill:#3A312A;}
	.st2{fill:#F16C7A;}
	.st3{fill:#87796F;}
	.st4{fill-rule:evenodd;clip-rule:evenodd;fill:#FCE8CB;}
	.st5{fill:#FCE8CB;}
	.st6{fill:#F5978A;}
	.st7{fill:#CCAE8B;}
	.st8{fill:#CE4E61;}
	.st9{fill:#B9BC39;}
	.st10{fill:#6B5B51;}
	.st11{fill:#8AC6DD;}
	.st12{fill:#68A8BC;}
	.st13{fill:none;stroke:#3A312A;stroke-width:3;stroke-linecap:round;stroke-linejoin:round;stroke-miterlimit:10;}
</style>
<g id="XMLID_1362_">
	<g>
		<g>
			<path class="st0" d="M193.454,146.796c-22.3,12.274-53.809,44.682-53.809,44.682s44.238-9.283,66.538-21.557
				c22.3-12.274,34.014-33.787,34.014-33.787S215.754,134.522,193.454,146.796z"/>
		</g>
	</g>
	<g>
		<g>
			<path class="st1" d="M241.511,135.411c-0.247-0.448-0.705-0.739-1.216-0.773c-1.014-0.067-25.139-1.498-47.564,10.844
				c-22.24,12.242-52.868,43.622-54.161,44.951c-0.46,0.474-0.557,1.191-0.239,1.77c0.268,0.485,0.775,0.776,1.314,0.776
				c0.102,0,0.205-0.011,0.308-0.032c1.815-0.381,44.714-9.47,66.954-21.711c22.426-12.344,34.12-33.489,34.607-34.383
				C241.759,136.402,241.757,135.859,241.511,135.411z M205.459,168.606c-17.445,9.603-48.914,17.459-61.108,20.281
				c8.908-8.791,32.381-31.175,49.827-40.777c17.409-9.582,36.38-10.538,43.251-10.538h0.156
				C233.992,143.271,223.001,158.952,205.459,168.606z"/>
		</g>
	</g>
	<g>
		<g>
			<path class="st0" d="M203.012,197.35c-22.244-6.45-63.367-5.872-63.367-5.872s34.434,22.489,56.678,28.939
				c22.244,6.451,43.621,0.146,43.621,0.146S225.256,203.801,203.012,197.35z"/>
		</g>
	</g>
	<g>
		<g>
			<path class="st1" d="M241.072,219.575c-0.611-0.698-15.235-17.168-37.643-23.665c-22.203-6.439-62.116-5.953-63.807-5.932
				c-0.659,0.01-1.235,0.448-1.419,1.082c-0.184,0.634,0.067,1.313,0.62,1.674c1.414,0.923,34.877,22.686,57.081,29.124
				c7.737,2.244,15.325,2.986,21.982,2.986c12.624,0,21.898-2.671,22.481-2.843c0.49-0.145,0.873-0.529,1.016-1.021
				C241.527,220.49,241.41,219.96,241.072,219.575z M196.741,218.977c-17.147-4.973-41.981-19.811-51.925-25.999
				c11.71,0.09,40.627,0.839,57.777,5.813c17.242,5,29.998,16.475,34.477,20.939C230.898,221.106,213.98,223.976,196.741,218.977z"
				/>
		</g>
	</g>
	<g>
		<g>
			<path class="st0" d="M161.094,217.309c-5.892-10.705-21.449-25.83-21.449-25.83s4.456,21.236,10.348,31.94
				c5.892,10.705,16.219,16.328,16.219,16.328S166.986,228.014,161.094,217.309z"/>
		</g>
	</g>
	<g>
		<g>
			<path class="st1" d="M162.408,216.585c-5.932-10.777-21.076-25.558-21.718-26.182c-0.473-0.46-1.191-0.557-1.77-0.239
				c-0.578,0.318-0.88,0.977-0.744,1.623c0.184,0.876,4.571,21.578,10.502,32.355c6.034,10.963,16.379,16.684,16.815,16.922
				c0.224,0.122,0.471,0.183,0.718,0.183c0.249,0,0.498-0.062,0.724-0.186c0.448-0.247,0.739-0.705,0.773-1.216
				C167.741,239.349,168.442,227.549,162.408,216.585z M151.308,222.695c-3.963-7.2-7.311-19.472-9.006-26.39
				c4.938,5.132,13.514,14.523,17.477,21.727c3.979,7.227,4.799,15.04,4.938,18.999
				C161.447,234.796,155.285,229.923,151.308,222.695z"/>
		</g>
	</g>
	<g>
		<g>
			<path class="st0" d="M168.73,91.179c0,0-16.763,14.688-23.213,36.932c-6.451,22.244-5.872,63.367-5.872,63.367
				s22.489-34.434,28.939-56.678C175.035,112.556,168.73,91.179,168.73,91.179z"/>
		</g>
	</g>
	<g>
		<g>
			<path class="st1" d="M170.168,90.755c-0.145-0.49-0.529-0.873-1.02-1.016c-0.492-0.143-1.023-0.025-1.406,0.313
				c-0.698,0.611-17.168,15.234-23.665,37.642c-6.439,22.204-5.955,62.118-5.932,63.807c0.01,0.659,0.448,1.235,1.082,1.419
				c0.139,0.04,0.279,0.06,0.418,0.06c0.497,0,0.974-0.248,1.256-0.68c0.923-1.414,22.686-34.877,29.124-57.08
				C176.523,112.811,170.431,91.646,170.168,90.755z M167.144,134.383c-4.973,17.146-19.811,41.98-25.999,51.923
				c0.091-11.71,0.841-40.629,5.813-57.776c5-17.242,16.475-29.998,20.939-34.476C169.273,100.226,172.143,117.142,167.144,134.383z
				"/>
		</g>
	</g>
	<g>
		<g>
			<path class="st0" d="M129.297,159.538c-5.892-10.705-16.219-16.328-16.219-16.328s-0.774,11.733,5.118,22.438
				c5.892,10.705,21.449,25.831,21.449,25.831S135.189,170.243,129.297,159.538z"/>
		</g>
	</g>
	<g>
		<g>
			<path class="st1" d="M141.112,191.171c-0.184-0.876-4.57-21.579-10.501-32.356c-6.035-10.963-16.379-16.683-16.816-16.921
				c-0.449-0.245-0.993-0.244-1.44,0.003c-0.448,0.247-0.74,0.705-0.773,1.216c-0.033,0.497-0.733,12.296,5.301,23.26
				c5.931,10.776,21.075,25.558,21.717,26.182c0.287,0.279,0.665,0.425,1.046,0.425c0.247,0,0.496-0.061,0.724-0.186
				C140.945,192.475,141.248,191.816,141.112,191.171z M119.51,164.925c-3.978-7.227-4.798-15.04-4.937-18.998
				c3.27,2.234,9.432,7.107,13.41,14.335c3.962,7.2,7.31,19.472,9.004,26.39C132.05,181.52,123.474,172.128,119.51,164.925z"/>
		</g>
	</g>
	<g>
		<g>
			<path class="st1" d="M140.959,190.755c-0.399-0.726-1.313-0.987-2.038-0.591l-21.728,11.959c-0.726,0.4-0.99,1.312-0.591,2.038
				c0.273,0.496,0.786,0.776,1.315,0.776c0.245,0,0.493-0.06,0.722-0.186l21.729-11.959
				C141.094,192.394,141.358,191.481,140.959,190.755z"/>
		</g>
	</g>
	<g>
		<g>
			<path class="st0" d="M47.471,26.237C46.497,37.8,34.446,39.626,34.446,39.626c10.347,0.487,12.925,14.059,12.925,14.059
				c0.221-9.677,13.321-14.202,13.321-14.202C50.879,38.896,47.471,26.237,47.471,26.237z"/>
		</g>
	</g>
	<g>
		<g>
			<path class="st1" d="M60.782,37.986c-8.605-0.515-11.832-12.025-11.864-12.142c-0.191-0.703-0.864-1.165-1.583-1.101
				c-0.725,0.066-1.298,0.642-1.359,1.367c-0.86,10.216-11.313,11.964-11.754,12.032c-0.763,0.116-1.313,0.791-1.273,1.56
				c0.04,0.771,0.657,1.385,1.427,1.421c9.028,0.426,11.499,12.719,11.523,12.844c0.137,0.711,0.759,1.217,1.472,1.217
				c0.042,0,0.085-0.002,0.127-0.005c0.764-0.064,1.357-0.693,1.375-1.46c0.195-8.509,12.192-12.777,12.313-12.819
				c0.675-0.234,1.092-0.914,0.994-1.622C62.08,38.569,61.496,38.028,60.782,37.986z M47.216,48.332
				c-1.356-3.131-3.709-6.908-7.587-8.877c2.931-1.405,6.409-3.913,8.202-8.273c1.551,3.07,4.2,6.88,8.334,8.723
				C53.158,41.545,49.243,44.311,47.216,48.332z"/>
		</g>
	</g>
	<g>
		<g>
			<path class="st0" d="M25.772,43.217c-0.689,8.179-9.212,9.47-9.212,9.47c7.318,0.345,9.142,9.944,9.142,9.944
				c0.156-6.844,9.422-10.045,9.422-10.045C28.183,52.171,25.772,43.217,25.772,43.217z"/>
		</g>
	</g>
	<g>
		<g>
			<path class="st1" d="M35.213,51.09c-5.766-0.345-7.972-8.186-7.994-8.265c-0.19-0.702-0.852-1.168-1.582-1.102
				c-0.726,0.066-1.299,0.643-1.36,1.368c-0.579,6.87-7.646,8.065-7.942,8.112c-0.763,0.116-1.313,0.791-1.273,1.56
				c0.04,0.771,0.657,1.385,1.427,1.421c6.036,0.284,7.724,8.645,7.739,8.727c0.135,0.712,0.759,1.22,1.472,1.22
				c0.042,0,0.083-0.002,0.125-0.005c0.765-0.063,1.358-0.693,1.376-1.461c0.131-5.708,8.332-8.633,8.413-8.661
				c0.677-0.234,1.094-0.913,0.996-1.622C36.513,51.674,35.928,51.132,35.213,51.09z M25.629,57.885
				c-0.924-1.886-2.34-3.947-4.447-5.28c1.855-1.041,3.697-2.63,4.871-4.916c1.057,1.874,2.654,3.954,4.941,5.224
				C29.144,54.013,27.005,55.652,25.629,57.885z"/>
		</g>
	</g>
	<g>
		<g>
			<path class="st0" d="M25.772,16.56c-0.689,8.179-9.212,9.471-9.212,9.471c7.318,0.344,9.142,9.944,9.142,9.944
				c0.156-6.845,9.422-10.045,9.422-10.045C28.183,25.514,25.772,16.56,25.772,16.56z"/>
		</g>
	</g>
	<g>
		<g>
			<path class="st1" d="M35.214,24.433c-5.766-0.346-7.973-8.187-7.994-8.266c-0.19-0.702-0.852-1.168-1.582-1.102
				c-0.726,0.066-1.299,0.643-1.36,1.368c-0.579,6.871-7.646,8.066-7.942,8.113c-0.763,0.116-1.313,0.791-1.273,1.561
				c0.04,0.77,0.657,1.385,1.427,1.421c6.036,0.284,7.724,8.645,7.739,8.727c0.135,0.712,0.759,1.22,1.472,1.22
				c0.042,0,0.083-0.002,0.125-0.005c0.765-0.063,1.358-0.693,1.376-1.461c0.131-5.709,8.331-8.633,8.413-8.661
				c0.676-0.233,1.094-0.913,0.996-1.622C36.513,25.017,35.928,24.476,35.214,24.433z M25.629,31.227
				c-0.924-1.885-2.34-3.947-4.447-5.279c1.855-1.041,3.697-2.63,4.871-4.917c1.057,1.874,2.654,3.955,4.941,5.225
				C29.144,27.355,27.005,28.994,25.629,31.227z"/>
		</g>
	</g>
	<g>
		<g>
			<path class="st2" d="M115.416,97.38h-49.94c-8.88,0-16.09,7.2-16.09,16.09v109.88c0,8.89,7.21,16.09,16.09,16.09h49.94
				c8.88,0,16.09-7.2,16.09-16.09V113.47C131.507,104.58,124.297,97.38,115.416,97.38z"/>
		</g>
	</g>
	<g>
		<g>
			<path class="st1" d="M115.416,95.88h-49.94c-9.699,0-17.59,7.891-17.59,17.59v0.828c0,0.828,0.671,1.5,1.5,1.5
				c0.829,0,1.5-0.672,1.5-1.5v-0.828c0-8.045,6.545-14.59,14.59-14.59h49.94c8.045,0,14.59,6.545,14.59,14.59v109.88
				c0,8.045-6.545,14.591-14.59,14.591h-49.94c-8.045,0-14.59-6.546-14.59-14.591v-95.147c0-0.828-0.671-1.5-1.5-1.5
				c-0.829,0-1.5,0.672-1.5,1.5v95.147c0,9.699,7.891,17.591,17.59,17.591h49.94c9.699,0,17.59-7.892,17.59-17.591V113.47
				C133.007,103.771,125.116,95.88,115.416,95.88z"/>
		</g>
	</g>
	<g>
		<g>
			<rect x="65.184" y="81.252" class="st3" width="50.526" height="16.127"/>
		</g>
	</g>
	<g>
		<g>
			<path class="st1" d="M115.71,79.752H65.184c-0.829,0-1.5,0.672-1.5,1.5v16.127c0,0.828,0.671,1.5,1.5,1.5h50.526
				c0.829,0,1.5-0.672,1.5-1.5V81.252C117.21,80.424,116.538,79.752,115.71,79.752z M114.21,95.879H66.684V82.752h47.526V95.879z"/>
		</g>
	</g>
	<g>
		<g>
			<path class="st3" d="M116.328,57.5H64.565c-3.524,0-6.381,2.857-6.381,6.382v10.989c0,3.524,2.857,6.382,6.381,6.382h51.763
				c3.524,0,6.382-2.857,6.382-6.382V63.882C122.71,60.357,119.853,57.5,116.328,57.5z"/>
		</g>
	</g>
	<g>
		<g>
			<path class="st1" d="M116.328,56H64.565c-4.346,0-7.881,3.536-7.881,7.882V74.87c0,4.346,3.536,7.882,7.881,7.882h51.763
				c4.346,0,7.881-3.536,7.881-7.882V63.882C124.21,59.536,120.674,56,116.328,56z M121.21,74.87c0,2.691-2.19,4.882-4.881,4.882
				H64.565c-2.691,0-4.881-2.19-4.881-4.882V63.882c0-2.691,2.19-4.882,4.881-4.882h51.763c2.691,0,4.881,2.19,4.881,4.882V74.87z"
				/>
		</g>
	</g>
	<g>
		<g>
			<path class="st3" d="M90.447,16.56c-6.09,0-11.026,4.937-11.026,11.026V57.5h22.052V27.586
				C101.473,21.496,96.536,16.56,90.447,16.56z"/>
		</g>
	</g>
	<g>
		<g>
			<path class="st1" d="M90.446,15.06c-6.907,0-12.526,5.619-12.526,12.526V57.5c0,0.828,0.671,1.5,1.5,1.5h22.052
				c0.829,0,1.5-0.672,1.5-1.5V27.586C102.973,20.679,97.354,15.06,90.446,15.06z M99.973,56H80.92V27.586
				c0-5.253,4.273-9.526,9.526-9.526c5.253,0,9.526,4.273,9.526,9.526V56z"/>
		</g>
	</g>
	<g>
		<g>
			<polygon class="st5" points="49.387,130.5 49.387,210 99.878,210 113.122,210 131.507,210 131.507,130.5 			"/>
		</g>
	</g>
	<g>
		<g>
			<path class="st1" d="M131.507,129h-82.12c-0.829,0-1.5,0.672-1.5,1.5V210c0,0.828,0.671,1.5,1.5,1.5h50.491
				c0.829,0,1.5-0.672,1.5-1.5s-0.671-1.5-1.5-1.5H50.887V132h79.12v76.5h-16.885c-0.829,0-1.5,0.672-1.5,1.5s0.671,1.5,1.5,1.5
				h18.385c0.828,0,1.5-0.672,1.5-1.5v-79.5C133.007,129.672,132.335,129,131.507,129z"/>
		</g>
	</g>
	<g>
		<g>
			<path class="st1" d="M73.005,176.527c-4.445,0-7.06-2.778-7.06-7.191c0-4.902,3.072-7.288,7.027-7.288
				c1.765,0,3.17,0.393,4.184,0.817l1.013-3.955c-0.882-0.458-2.843-0.98-5.425-0.98c-6.667,0-12.028,4.184-12.028,11.701
				c0,6.275,3.922,11.015,11.538,11.015c2.68,0,4.739-0.49,5.654-0.948l-0.752-3.89C76.176,176.2,74.509,176.527,73.005,176.527z"/>
		</g>
	</g>
	<g>
		<g>
			<path class="st1" d="M93.136,168.454v-0.065c2.484-0.915,3.628-2.745,3.628-4.707c0-1.993-1.111-3.497-2.647-4.313
				c-1.602-0.948-3.464-1.242-6.504-1.242c-2.484,0-5.132,0.196-6.439,0.457v21.638c1.111,0.163,2.941,0.326,5.393,0.326
				c4.379,0,7.06-0.719,8.661-1.993c1.373-1.111,2.288-2.681,2.288-4.674C97.516,171.036,95.653,169.141,93.136,168.454z
				 M86.109,161.885c0.425-0.065,1.046-0.131,2.124-0.131c2.255,0,3.53,0.882,3.53,2.549c0,1.635-1.406,2.713-4.021,2.713h-1.634
				V161.885z M88.038,176.854c-0.85,0-1.438,0-1.929-0.065v-6.21h1.7c2.484,0,4.478,0.883,4.478,3.105
				C92.287,176.004,90.293,176.854,88.038,176.854z"/>
		</g>
	</g>
	<g>
		<g>
			<path class="st1" d="M116.666,160.479c-2.125-1.602-4.837-2.352-9.021-2.352c-2.517,0-4.903,0.163-6.733,0.457v21.638
				c1.242,0.163,3.072,0.326,5.654,0.326c4.314,0,7.844-0.915,10.165-2.844c2.125-1.797,3.661-4.706,3.661-8.922
				C120.392,164.892,118.954,162.179,116.666,160.479z M107.645,176.658c-0.621,0-1.307,0-1.732-0.099v-14.414
				c0.425-0.098,1.144-0.195,2.255-0.195c4.282,0,6.962,2.418,6.929,6.994C115.097,174.206,112.155,176.69,107.645,176.658z"/>
		</g>
	</g>
	<g>
		<g>
			<path class="st8" d="M117.51,211.5v11.85c0,8.04-6.55,14.59-14.59,14.59h12.5c8.04,0,14.59-6.55,14.59-14.59V211.5H117.51z"/>
		</g>
	</g>
	<g>
		<g>
			<path class="st8" d="M115.42,98.88h-12.5c8.04,0,14.59,6.54,14.59,14.59V129h12.5v-15.53
				C130.01,105.42,123.46,98.88,115.42,98.88z"/>
		</g>
	</g>
	<g>
		<g>
			<path class="st7" d="M117.51,132v29.19c1.79,1.71,2.88,4.21,2.88,7.59c0,3.69-1.17,6.37-2.88,8.18v31.54h12.5V132H117.51z"/>
		</g>
	</g>
</g>
</svg>
