<?xml version="1.0" encoding="utf-8"?>
<!-- Generator: Adobe Illustrator 21.1.0, SVG Export Plug-In . SVG Version: 6.00 Build 0)  -->
<svg version="1.1" id="Layer_1" xmlns="http://www.w3.org/2000/svg" xmlns:xlink="http://www.w3.org/1999/xlink" x="0px" y="0px"
	 viewBox="0 0 512 512" style="enable-background:new 0 0 512 512;" xml:space="preserve">
<style type="text/css">
	.st0{fill:#D6CD1E;}
	.st1{fill:#E56823;}
	.st2{fill:#FE8E46;}
	.st3{fill:#FEFE71;}
	.st4{fill:#463218;}
	.st5{fill:#7DAC51;}
	.st6{fill:#5B7C31;}
	.st7{fill:#FFFFFF;}
</style>
<g>
	<g>
		<path class="st5" d="M408.079,134.072H103.921c-10.274,0-18.604,8.329-18.604,18.603v157.859c0,0.787,0.065,1.557,0.16,2.318
			c0.024,28.786,0.04,65.076-0.035,65.076c-0.113,0,40.619-41.636,47.618-48.79h275.021c10.274,0,18.604-8.329,18.604-18.604
			V152.675C426.683,142.4,418.354,134.072,408.079,134.072z"/>
	</g>
	<g>
		<path class="st4" d="M85.441,384.928c-2.817,0-5.36-1.689-6.452-4.286c-0.595-1.412-0.718-2.642-0.527-3.747
			c0.04-4.459,0.046-27.256,0.015-63.629c-0.108-0.985-0.16-1.863-0.16-2.731V152.675c0-14.117,11.486-25.603,25.604-25.603h304.158
			c14.118,0,25.604,11.485,25.604,25.603v157.859c0,14.118-11.486,25.604-25.604,25.604H136.003
			c-26.308,26.893-42.92,43.91-45.152,46.251C89.368,384.194,87.145,384.928,85.441,384.928z M92.44,377.999
			c-0.066,1.269-0.367,2.335-0.824,3.223C92.107,380.291,92.425,379.182,92.44,377.999z M80.758,372.725
			c-0.934,0.835-1.643,1.912-2.016,3.125C79.163,374.702,79.908,373.687,80.758,372.725z M103.921,141.072
			c-6.398,0-11.604,5.205-11.604,11.603v157.859c0,0.407,0.034,0.869,0.106,1.454c0.035,0.285,0.054,0.571,0.054,0.858
			c0.012,14.396,0.021,30.667,0.02,43.34c0,1.535-0.001,3.017-0.002,4.437c2.789-2.857,5.869-6.012,9.022-9.239
			c11-11.259,22.9-23.422,26.479-27.081c1.316-1.346,3.18-2.165,5.062-2.165h275.021c6.398,0,11.604-5.205,11.604-11.604V152.675
			c0-6.397-5.206-11.603-11.604-11.603H103.921z"/>
	</g>
	<g>
		<path class="st6" d="M388.329,282.297h-7.538h-13.973h-60.601c-10.764,0-19.49,8.726-19.49,19.49v27.351h121.353l-0.26-27.351
			C407.819,291.023,399.093,282.297,388.329,282.297z"/>
	</g>
	<g>
		<path class="st4" d="M408.079,336.138H286.727c-3.866,0-7-3.134-7-7v-27.351c0-14.606,11.884-26.49,26.49-26.49h82.112
			c14.606,0,26.49,11.884,26.49,26.49l0.26,27.284c0.018,1.868-0.712,3.665-2.026,4.992
			C411.737,335.391,409.947,336.138,408.079,336.138z M293.727,322.138h107.286l-0.193-20.284c0-6.953-5.604-12.557-12.49-12.557
			h-82.112c-6.887,0-12.49,5.604-12.49,12.49V322.138z"/>
	</g>
	<g>
		<g>
			<path class="st3" d="M358.252,182.838h-21.958c-17.531,0-31.743,14.212-31.743,31.743v44.484
				c0,23.595,19.128,42.722,42.722,42.722c23.595,0,42.722-19.128,42.722-42.722v-44.484
				C389.995,197.05,375.783,182.838,358.252,182.838z"/>
		</g>
		<g>
			<path class="st0" d="M316.334,259.065v-44.484c0-17.531,14.212-31.743,31.743-31.743h-11.784
				c-17.531,0-31.743,14.212-31.743,31.743v44.484c0,23.595,19.128,42.722,42.722,42.722c1.999,0,3.966-0.141,5.892-0.406
				C332.359,298.51,316.334,280.66,316.334,259.065z"/>
		</g>
		<g>
			<path class="st4" d="M347.272,308.787c-27.417,0-49.723-22.306-49.723-49.723v-44.483c0-21.363,17.381-38.743,38.744-38.743
				h21.958c21.363,0,38.743,17.38,38.743,38.743v44.483C396.995,286.481,374.689,308.787,347.272,308.787z M336.294,189.838
				c-13.644,0-24.744,11.1-24.744,24.743v44.483c0,19.697,16.025,35.723,35.723,35.723s35.723-16.025,35.723-35.723v-44.483
				c0-13.644-11.1-24.743-24.743-24.743H336.294z"/>
		</g>
		<g>
			<path class="st2" d="M389.995,231.486L389.995,231.486v-16.905c0-17.531-14.212-31.743-31.743-31.743h-21.958
				c-17.531,0-31.743,14.212-31.743,31.743v16.905c14.888,0,26.958-12.069,26.958-26.958c0,14.888,12.069,26.958,26.958,26.958
				H389.995z"/>
		</g>
		<g>
			<g>
				<path class="st1" d="M316.334,214.581c0-17.531,14.212-31.743,31.743-31.743h-11.784c-17.531,0-31.743,14.212-31.743,31.743
					v16.905c4.226,0,8.224-0.975,11.784-2.708V214.581z"/>
			</g>
		</g>
		<g>
			<path class="st4" d="M389.995,238.486h-31.529c-10.973,0-20.746-5.23-26.958-13.33c-6.212,8.1-15.985,13.33-26.958,13.33
				c-3.866,0-7-3.134-7-7v-16.905c0-21.363,17.381-38.743,38.744-38.743h21.958c21.363,0,38.743,17.38,38.743,38.743v16.905
				C396.995,235.353,393.861,238.486,389.995,238.486z M331.508,197.528c3.866,0,7,3.134,7,7c0,11.005,8.953,19.958,19.958,19.958
				h24.529v-9.905c0-13.644-11.1-24.743-24.743-24.743h-21.958c-13.644,0-24.744,11.1-24.744,24.743v8.639
				c7.562-2.842,12.958-10.148,12.958-18.691C324.508,200.662,327.642,197.528,331.508,197.528z"/>
		</g>
	</g>
	<g>
		<rect x="109.7" y="231.629" class="st3" width="164.004" height="31.166"/>
	</g>
	<g>
		<path class="st4" d="M273.704,269.795H109.7c-3.866,0-7-3.134-7-7v-31.166c0-3.866,3.134-7,7-7h164.004c3.866,0,7,3.134,7,7
			v31.166C280.704,266.661,277.57,269.795,273.704,269.795z M116.7,255.795h150.004v-17.166H116.7V255.795z"/>
	</g>
	<g>
		<path class="st2" d="M160.192,185.099c2.003-1.952,0.898-5.353-1.87-5.755l-11.953-1.738c-1.099-0.159-2.049-0.849-2.54-1.845
			l-5.346-10.832c-1.238-2.508-4.814-2.508-6.051,0l-5.346,10.832c-0.491,0.996-1.441,1.686-2.54,1.845l-11.953,1.738
			c-2.767,0.402-3.872,3.802-1.87,5.755l8.649,8.431c0.795,0.775,1.158,1.892,0.971,2.987l-2.042,11.905
			c-0.473,2.756,2.42,4.858,4.896,3.557l10.691-5.621c0.983-0.517,2.157-0.517,3.14,0l10.691,5.621
			c2.475,1.301,5.368-0.801,4.896-3.557l-2.042-11.905c-0.188-1.095,0.175-2.212,0.97-2.987L160.192,185.099z"/>
	</g>
	<g>
		<path class="st2" d="M231.968,185.099c2.003-1.952,0.898-5.353-1.87-5.755l-11.953-1.738c-1.099-0.159-2.049-0.849-2.54-1.845
			l-5.346-10.832c-1.238-2.508-4.814-2.508-6.051,0l-5.346,10.832c-0.491,0.996-1.441,1.686-2.54,1.845l-11.953,1.738
			c-2.767,0.402-3.872,3.802-1.87,5.755l8.649,8.431c0.795,0.775,1.158,1.892,0.971,2.987l-2.042,11.905
			c-0.473,2.756,2.42,4.858,4.896,3.557l10.691-5.621c0.983-0.517,2.157-0.517,3.14,0l10.691,5.621
			c2.475,1.301,5.368-0.801,4.896-3.557l-2.042-11.905c-0.188-1.095,0.175-2.212,0.97-2.987L231.968,185.099z"/>
	</g>
	<g>
		<path class="st4" d="M121.616,219.376c-2.142,0.001-4.269-0.671-6.087-1.991c-3.219-2.339-4.8-6.227-4.128-10.147l1.72-10.025
			l-7.284-7.101c-2.85-2.778-3.854-6.854-2.624-10.638c1.229-3.782,4.439-6.486,8.375-7.058l10.064-1.463l4.502-9.122
			c1.763-3.567,5.327-5.782,9.304-5.782c3.976,0,7.54,2.215,9.302,5.779l4.502,9.125l10.067,1.464
			c3.934,0.57,7.144,3.274,8.373,7.057c1.23,3.784,0.226,7.859-2.623,10.637c0,0,0,0.001-0.001,0.001l-7.284,7.101l1.72,10.025
			c0.672,3.921-0.909,7.81-4.129,10.147c-3.217,2.338-7.406,2.64-10.925,0.788l-9.003-4.732l-9.004,4.733
			C124.923,218.979,123.265,219.376,121.616,219.376z M120.87,185.214l3.388,3.303c2.445,2.386,3.561,5.816,2.984,9.181l-0.8,4.666
			l4.188-2.202c3.02-1.59,6.634-1.589,9.659,0.003l4.183,2.199l-0.8-4.664c-0.577-3.368,0.539-6.801,2.985-9.184l3.387-3.302
			l-4.683-0.681c-3.376-0.488-6.297-2.609-7.81-5.672l-2.096-4.246l-2.094,4.243c-1.511,3.063-4.432,5.186-7.813,5.676
			L120.87,185.214z M160.192,185.099h0.01H160.192z"/>
	</g>
	<g>
		<path class="st4" d="M193.393,219.376c-2.142,0.001-4.27-0.671-6.088-1.992c-3.219-2.338-4.8-6.226-4.128-10.146l1.72-10.025
			l-7.284-7.101c-2.849-2.776-3.854-6.853-2.624-10.636c1.229-3.783,4.439-6.488,8.376-7.06l10.064-1.463l4.502-9.122
			c1.761-3.567,5.325-5.782,9.303-5.782s7.542,2.215,9.303,5.781l4.502,9.123l10.066,1.464c3.935,0.57,7.145,3.275,8.374,7.059
			c1.23,3.783,0.225,7.859-2.625,10.636l-7.283,7.1l1.72,10.026c0.672,3.921-0.909,7.81-4.129,10.147
			c-3.218,2.338-7.406,2.64-10.925,0.788l-9.003-4.732l-9.004,4.733C196.699,218.979,195.041,219.376,193.393,219.376z
			 M217.491,209.604h0.01H217.491z M192.646,185.214l3.389,3.303c2.446,2.384,3.562,5.819,2.982,9.187l-0.799,4.66l4.188-2.202
			c3.021-1.59,6.634-1.589,9.657,0.002l4.186,2.2l-0.8-4.664c-0.576-3.366,0.538-6.798,2.981-9.181l3.39-3.305l-4.683-0.681
			c-3.379-0.489-6.3-2.611-7.812-5.677l-2.093-4.24l-2.094,4.242c-1.511,3.063-4.432,5.186-7.813,5.676L192.646,185.214z
			 M227.082,180.086c-0.001,0-0.001,0.001-0.002,0.002L227.082,180.086L227.082,180.086z"/>
	</g>
	<g>
		<rect x="375" y="150" class="st7" width="25" height="14"/>
	</g>
</g>
</svg>
