<?xml version="1.0" encoding="utf-8"?>
<!-- Generator: Adobe Illustrator 22.0.1, SVG Export Plug-In . SVG Version: 6.00 Build 0)  -->
<svg version="1.1" id="Layer_1" xmlns="http://www.w3.org/2000/svg" xmlns:xlink="http://www.w3.org/1999/xlink" x="0px" y="0px"
	 viewBox="0 0 256 256" style="enable-background:new 0 0 256 256;" xml:space="preserve">
<style type="text/css">
	.st0{fill:#D7E057;}
	.st1{fill:#3A312A;}
	.st2{fill:#F16C7A;}
	.st3{fill:#87796F;}
	.st4{fill-rule:evenodd;clip-rule:evenodd;fill:#FCE8CB;}
	.st5{fill:#FCE8CB;}
	.st6{fill:#F5978A;}
	.st7{fill:#CCAE8B;}
	.st8{fill:#CE4E61;}
	.st9{fill:#B9BC39;}
	.st10{fill:#6B5B51;}
	.st11{fill:#8AC6DD;}
	.st12{fill:#68A8BC;}
	.st13{fill:none;stroke:#3A312A;stroke-width:3;stroke-linecap:round;stroke-linejoin:round;stroke-miterlimit:10;}
</style>
<g id="XMLID_696_">
	<g>
		<g>
			<path class="st0" d="M82.874,130.404C81.9,141.967,69.85,143.793,69.85,143.793c10.347,0.487,12.925,14.059,12.925,14.059
				c0.221-9.677,13.321-14.202,13.321-14.202C86.282,143.063,82.874,130.404,82.874,130.404z"/>
		</g>
	</g>
	<g>
		<g>
			<path class="st1" d="M96.185,142.152c-8.604-0.515-11.831-12.024-11.863-12.141c-0.191-0.703-0.864-1.172-1.583-1.102
				c-0.725,0.066-1.298,0.642-1.359,1.367c-0.86,10.216-11.313,11.964-11.755,12.032c-0.763,0.116-1.313,0.791-1.273,1.561
				c0.04,0.77,0.657,1.385,1.427,1.421c9.028,0.426,11.499,12.719,11.523,12.844c0.137,0.711,0.759,1.217,1.472,1.217
				c0.042,0,0.084-0.002,0.127-0.005c0.764-0.064,1.357-0.693,1.374-1.46c0.195-8.51,12.192-12.778,12.313-12.82
				c0.675-0.234,1.092-0.914,0.994-1.622C97.483,142.735,96.899,142.194,96.185,142.152z M82.62,152.499
				c-1.356-3.131-3.709-6.908-7.587-8.877c2.931-1.404,6.409-3.913,8.202-8.273c1.551,3.071,4.2,6.88,8.334,8.723
				C88.561,145.711,84.646,148.477,82.62,152.499z"/>
		</g>
	</g>
	<g>
		<g>
			<path class="st0" d="M61.176,147.384c-0.689,8.179-9.212,9.471-9.212,9.471c7.318,0.344,9.142,9.944,9.142,9.944
				c0.156-6.844,9.422-10.045,9.422-10.045C63.586,156.338,61.176,147.384,61.176,147.384z"/>
		</g>
	</g>
	<g>
		<g>
			<path class="st1" d="M70.617,155.256c-5.766-0.345-7.972-8.186-7.993-8.265c-0.19-0.702-0.854-1.175-1.582-1.102
				c-0.726,0.065-1.299,0.643-1.36,1.368c-0.579,6.871-7.646,8.066-7.942,8.113c-0.763,0.116-1.313,0.791-1.273,1.561
				c0.04,0.771,0.657,1.385,1.427,1.421c6.035,0.284,7.723,8.645,7.739,8.727c0.135,0.713,0.759,1.22,1.472,1.22
				c0.041,0,0.083-0.002,0.125-0.005c0.765-0.063,1.358-0.693,1.376-1.461c0.13-5.709,8.331-8.634,8.412-8.662
				c0.677-0.234,1.094-0.913,0.996-1.622C71.916,155.84,71.331,155.298,70.617,155.256z M61.033,162.051
				c-0.924-1.885-2.34-3.947-4.447-5.279c1.855-1.041,3.697-2.63,4.871-4.917c1.057,1.874,2.654,3.954,4.941,5.224
				C64.547,158.179,62.409,159.818,61.033,162.051z"/>
		</g>
	</g>
	<g>
		<g>
			<path class="st0" d="M61.176,120.727c-0.689,8.179-9.212,9.47-9.212,9.47c7.318,0.344,9.142,9.944,9.142,9.944
				c0.156-6.844,9.422-10.046,9.422-10.046C63.586,129.68,61.176,120.727,61.176,120.727z"/>
		</g>
	</g>
	<g>
		<g>
			<path class="st1" d="M70.617,128.599c-5.766-0.345-7.972-8.186-7.993-8.265c-0.19-0.702-0.854-1.168-1.582-1.102
				c-0.726,0.065-1.299,0.643-1.36,1.368c-0.579,6.871-7.646,8.066-7.942,8.113c-0.763,0.116-1.313,0.791-1.273,1.561
				c0.04,0.771,0.657,1.385,1.428,1.421c6.035,0.284,7.723,8.645,7.739,8.727c0.135,0.713,0.759,1.22,1.472,1.22
				c0.041,0,0.083-0.002,0.125-0.005c0.765-0.064,1.358-0.693,1.376-1.461c0.13-5.709,8.331-8.634,8.412-8.662
				c0.677-0.234,1.094-0.913,0.996-1.622C71.916,129.183,71.331,128.641,70.617,128.599z M61.033,135.394
				c-0.924-1.886-2.34-3.947-4.447-5.279c1.855-1.041,3.697-2.63,4.87-4.917c1.057,1.874,2.654,3.954,4.941,5.224
				C64.547,131.521,62.409,133.161,61.033,135.394z"/>
		</g>
	</g>
	<g>
		<g>
			<path class="st0" d="M177.277,166.533h-17.684V154.99h-29.71v11.542h-17.684c-14.779,0-26.76,11.981-26.76,26.76v35.878h118.598
				v-35.878C204.037,178.513,192.056,166.533,177.277,166.533z"/>
		</g>
	</g>
	<g>
		<g>
			<path class="st1" d="M177.277,165.032h-16.184V154.99c0-0.828-0.671-1.5-1.5-1.5h-29.71c-0.829,0-1.5,0.672-1.5,1.5v10.042
				h-16.184c-15.582,0-28.26,12.678-28.26,28.26v35.878c0,0.828,0.671,1.5,1.5,1.5h118.597c0.829,0,1.5-0.672,1.5-1.5v-35.878
				C205.537,177.71,192.859,165.032,177.277,165.032z M202.537,227.67H86.939v-34.378c0-13.929,11.332-25.26,25.26-25.26h17.684
				c0.829,0,1.5-0.672,1.5-1.5V156.49h26.71v10.042c0,0.828,0.671,1.5,1.5,1.5h17.684c13.928,0,25.259,11.331,25.259,25.26V227.67z"
				/>
		</g>
	</g>
	<g>
		<g>
			<path class="st3" d="M123.56,166.53h-11.363c-14.78,0-26.76,11.98-26.76,26.76v35.88h42.05L123.56,166.53z"/>
		</g>
	</g>
	<g>
		<g>
			<path class="st1" d="M125.057,166.436c-0.049-0.791-0.705-1.406-1.497-1.406h-11.363c-15.583,0-28.26,12.678-28.26,28.26v35.88
				c0,0.828,0.671,1.5,1.5,1.5h42.05c0.414,0,0.81-0.171,1.093-0.473c0.284-0.302,0.43-0.708,0.404-1.121L125.057,166.436z
				 M86.937,227.67v-34.38c0-13.929,11.332-25.26,25.26-25.26h9.955l3.738,59.64H86.937z"/>
		</g>
	</g>
	<g>
		<g>
			<path class="st3" d="M177.277,166.53h-10.87l-1.686,26.93l-0.854,13.639l-1.381,22.071h41.55v-35.88
				C204.037,178.51,192.057,166.53,177.277,166.53z"/>
		</g>
	</g>
	<g>
		<g>
			<path class="st1" d="M177.277,165.03h-10.87c-0.792,0-1.448,0.616-1.497,1.406l-1.686,26.93
				c-0.052,0.827,0.577,1.539,1.403,1.591c0.828,0.062,1.539-0.576,1.591-1.403l1.598-25.523h9.46
				c13.928,0,25.26,11.331,25.26,25.26v34.38h-38.453l1.282-20.478c0.052-0.827-0.577-1.539-1.403-1.591
				c-0.82-0.046-1.539,0.576-1.591,1.403l-1.381,22.071c-0.026,0.413,0.12,0.819,0.404,1.121c0.284,0.302,0.679,0.473,1.093,0.473
				h41.55c0.829,0,1.5-0.672,1.5-1.5v-35.88C205.537,177.708,192.859,165.03,177.277,165.03z"/>
		</g>
	</g>
	<g>
		<g>
			<circle class="st4" cx="98.786" cy="100.2" r="10.53"/>
		</g>
	</g>
	<g>
		<g>
			<path class="st1" d="M98.786,88.171c-6.633,0-12.029,5.396-12.029,12.029c0,6.634,5.396,12.03,12.029,12.03
				c6.633,0,12.03-5.396,12.03-12.03C110.816,93.567,105.419,88.171,98.786,88.171z M98.786,109.23c-4.979,0-9.029-4.051-9.029-9.03
				c0-4.979,4.05-9.029,9.029-9.029c4.979,0,9.03,4.051,9.03,9.029C107.816,105.18,103.765,109.23,98.786,109.23z"/>
		</g>
	</g>
	<g>
		<g>
			<path class="st4" d="M190.69,89.671c-5.815,0-10.529,4.714-10.529,10.53c0,5.815,4.714,10.53,10.529,10.53
				c5.816,0,10.53-4.714,10.53-10.53C201.219,94.385,196.505,89.671,190.69,89.671z"/>
		</g>
	</g>
	<g>
		<g>
			<path class="st1" d="M190.69,88.171c-6.633,0-12.029,5.396-12.029,12.029c0,6.634,5.396,12.03,12.029,12.03
				c6.633,0,12.03-5.396,12.03-12.03C202.72,93.567,197.323,88.171,190.69,88.171z M190.69,109.23c-4.979,0-9.029-4.051-9.029-9.03
				c0-4.979,4.05-9.029,9.029-9.029c4.979,0,9.03,4.051,9.03,9.029C199.72,105.18,195.669,109.23,190.69,109.23z"/>
		</g>
	</g>
	<g>
		<g>
			<path class="st5" d="M144.738,48.411c-25.78,0-46.678,20.899-46.678,46.678c0,25.779,25.821,65.349,46.678,65.349
				c21.85,0,46.678-39.57,46.678-65.349C191.416,69.31,170.518,48.411,144.738,48.411z"/>
		</g>
	</g>
	<g>
		<g>
			<path class="st1" d="M144.738,46.911c-26.565,0-48.178,21.612-48.178,48.178c0,12.555,6.048,29.105,15.784,43.195
				c10.235,14.812,22.345,23.654,32.395,23.654c22.8,0,48.178-39.847,48.178-66.85C192.916,68.523,171.304,46.911,144.738,46.911z
				 M144.738,158.939c-9.064,0-20.252-8.358-29.926-22.36c-9.408-13.614-15.252-29.512-15.252-41.489
				c0-24.911,20.267-45.178,45.178-45.178c24.911,0,45.178,20.267,45.178,45.178C189.916,120.3,165.684,158.939,144.738,158.939z"/>
		</g>
	</g>
	<g>
		<g>
			<path class="st1" d="M128.258,90.006c-2.516,0-4.556,2.04-4.556,4.556c0,2.516,2.04,4.556,4.556,4.556
				c2.516,0,4.556-2.04,4.556-4.556C132.814,92.046,130.774,90.006,128.258,90.006z"/>
		</g>
	</g>
	<g>
		<g>
			<path class="st1" d="M161.218,90.006c-2.516,0-4.556,2.04-4.556,4.556c0,2.516,2.04,4.556,4.556,4.556
				c2.516,0,4.556-2.04,4.556-4.556C165.774,92.046,163.734,90.006,161.218,90.006z"/>
		</g>
	</g>
	<g>
		<g>
			<ellipse class="st6" cx="119.152" cy="108.107" rx="7.848" ry="5.867"/>
		</g>
	</g>
	<g>
		<g>
			<path class="st6" d="M170.324,102.24c-4.334,0-7.848,2.627-7.848,5.867c0,3.24,3.514,5.867,7.848,5.867
				c4.334,0,7.848-2.627,7.848-5.867C178.172,104.867,174.658,102.24,170.324,102.24z"/>
		</g>
	</g>
	<g>
		<g>
			<path class="st7" d="M158.138,166.537v-8.793c-4.426,2.629-8.969,4.163-13.395,4.163c-4.411,0-8.954-1.607-13.395-4.324v8.954
				c0,0.453-0.204,0.862-0.54,1.139c4.645,3.257,9.392,5.186,13.935,5.186c4.63,0,9.422-1.884,14.066-5.098
				C158.4,167.501,158.138,167.048,158.138,166.537z"/>
		</g>
	</g>
	<g>
		<g>
			<path class="st3" d="M193.59,84.3c0-25.51-21.631-46.191-48.314-46.191c-26.683,0-48.313,20.68-48.313,46.192
				c0,2.7,0.488,4.712,1.396,7.225c0.428,1.185,7.346-2.599,7.935-3.014c2.946-2.074,5.353-4.885,7.152-7.993
				c0.744-1.292,1.364-2.607,1.864-3.922c1.592-4.196,5.919-15.871,10.313-14.956c5.892,1.228,12.569,1.922,19.653,1.922
				c7.084,0,13.762-0.694,19.653-1.922c4.393-0.916,8.721,10.76,10.313,14.956c0.499,1.316,1.12,2.63,1.864,3.923
				c2.972,5.141,7.992,10.035,14.099,10.926c0.015-0.295,0.388-0.396,0.665-0.497C193.871,90.222,193.59,85.902,193.59,84.3z"/>
		</g>
	</g>
	<g>
		<g>
			<path class="st1" d="M195.096,84.818L195.09,84.3c0-26.297-22.346-47.69-49.813-47.69c-27.467,0-49.813,21.394-49.813,47.691
				c0,3.016,0.568,5.195,1.485,7.733c0.192,0.533,0.624,0.939,1.184,1.116c0.182,0.058,0.393,0.084,0.627,0.084
				c2.673,0,8.344-3.457,8.4-3.496c2.965-2.088,5.588-5.017,7.588-8.471c0.769-1.336,1.431-2.728,1.966-4.139l0.098-0.26
				c4.746-12.524,7.366-13.999,8.506-13.76c6.216,1.296,12.932,1.953,19.959,1.953c7.028,0,13.743-0.657,19.959-1.953
				c1.133-0.253,3.76,1.235,8.504,13.756l0.1,0.264c0.534,1.408,1.196,2.8,1.967,4.141c3.734,6.46,9.409,10.818,15.182,11.659
				c0.421,0.064,0.842-0.057,1.168-0.325c0.091-0.074,0.172-0.159,0.243-0.251C195.191,91.322,195.129,87.093,195.096,84.818z
				 M191.294,89.562c-0.222,0.078-0.421,0.168-0.597,0.271c-4.626-0.965-9.176-4.673-12.291-10.063
				c-0.691-1.199-1.284-2.446-1.761-3.705l-0.1-0.263c-3.145-8.302-7.02-16.636-11.922-15.63
				c-6.015,1.255-12.524,1.891-19.347,1.891c-6.823,0-13.332-0.636-19.347-1.891c-4.901-1.009-8.778,7.33-11.924,15.635
				l-0.098,0.258c-0.479,1.262-1.072,2.508-1.76,3.703c-1.782,3.078-4.105,5.678-6.712,7.514c-0.78,0.526-4.341,2.358-5.974,2.85
				c-0.625-1.873-0.999-3.599-0.999-5.831c0-24.643,21-44.691,46.813-44.691c25.813,0,46.813,20.048,46.813,44.69l0.006,0.563
				C192.156,88.932,191.548,89.47,191.294,89.562z"/>
		</g>
	</g>
	<g>
		<g>
			<path class="st1" d="M182.902,208.507c-0.829,0-1.5,0.672-1.5,1.5v19.167c0,0.828,0.671,1.5,1.5,1.5c0.829,0,1.5-0.672,1.5-1.5
				v-19.167C184.402,209.179,183.73,208.507,182.902,208.507z"/>
		</g>
	</g>
	<g>
		<g>
			<path class="st3" d="M144.404,21.343C111.5,40.701,92.401,3.49,92.401,20.46c0,5.364,2.161,10.714,4.998,15.582l7.853,11.132
				c7.923,9.977,17.402,20.614,28.849,23.869c18.438,5.242,51.073-1.297,51.073-27.836C185.173,26.237,170.95,5.726,144.404,21.343z
				"/>
		</g>
	</g>
	<g>
		<g>
			<path class="st1" d="M173.111,17.166c-5.682-3.25-15.406-5.387-29.468,2.884c-19.066,11.217-33.275,2.696-41.764-2.395
				c-4.09-2.453-6.793-4.076-8.941-2.856c-1.806,1.022-2.038,3.562-2.038,5.661c0,4.987,1.702,10.331,5.202,16.336
				c0.417,0.716,1.334,0.958,2.051,0.541c0.716-0.417,0.958-1.336,0.541-2.051c-3.226-5.535-4.794-10.385-4.794-14.826
				c0-2.641,0.511-3.048,0.516-3.051c0.635-0.349,3.813,1.555,5.92,2.818c8.466,5.08,24.226,14.53,44.829,2.408
				c10.149-5.971,19.299-6.96,26.457-2.865c8.325,4.761,12.052,15.201,12.052,23.437c0,8.354-3.346,15.116-9.944,20.101
				c-11.014,8.319-28.065,9.461-39.218,6.293c-10.821-3.077-19.893-13.046-28.084-23.359c-0.515-0.648-1.458-0.757-2.108-0.242
				c-0.649,0.516-0.757,1.459-0.242,2.107c8.503,10.707,17.976,21.07,29.613,24.379c3.908,1.111,8.5,1.721,13.325,1.721
				c9.825,0,20.61-2.529,28.522-8.505c7.285-5.503,11.136-13.281,11.136-22.494C186.673,34.105,182.48,22.524,173.111,17.166z"/>
		</g>
	</g>
	<g>
		<g>
			<path class="st10" d="M171.626,19.769c-4.45-2.54-9.66-3.12-15.41-1.77c1.49,0.4,2.92,1,4.27,1.77
				c8.33,4.76,12.05,15.2,12.05,23.44c0,8.35-3.34,15.11-9.94,20.1c-5.89,4.44-13.5,6.84-21.01,7.62
				c10.47,1.13,23.27-0.91,32.14-7.62c6.6-4.99,9.95-11.75,9.95-20.1C183.676,34.969,179.947,24.529,171.626,19.769z"/>
		</g>
	</g>
	<g>
		<g>
			<path class="st1" d="M153.987,124h-18.5c-0.829,0-1.5,0.672-1.5,1.5s0.671,1.5,1.5,1.5h18.5c0.829,0,1.5-0.672,1.5-1.5
				S154.815,124,153.987,124z"/>
		</g>
	</g>
	<g>
		<g>
			<path class="st2" d="M150.917,146.414h-11.855c-2.108,0-3.82,1.709-3.82,3.819v26.083c0,2.11,1.712,3.819,3.82,3.819h11.855
				c2.108,0,3.819-1.709,3.819-3.819v-26.083C154.737,148.124,153.025,146.414,150.917,146.414z"/>
		</g>
	</g>
	<g>
		<g>
			<path class="st1" d="M150.917,144.914h-11.854c-2.934,0-5.32,2.387-5.32,5.319v26.083c0,2.933,2.386,5.319,5.32,5.319h11.854
				c2.933,0,5.319-2.387,5.319-5.319v-26.083C156.237,147.301,153.851,144.914,150.917,144.914z M153.237,176.316
				c0,1.279-1.04,2.319-2.319,2.319h-11.854c-1.279,0-2.32-1.04-2.32-2.319v-26.083c0-1.279,1.04-2.319,2.32-2.319h11.854
				c1.279,0,2.319,1.04,2.319,2.319V176.316z"/>
		</g>
	</g>
	<g>
		<g>
			<rect x="138.993" y="142.586" class="st3" width="11.994" height="3.828"/>
		</g>
	</g>
	<g>
		<g>
			<path class="st1" d="M150.987,141.086h-11.994c-0.829,0-1.5,0.672-1.5,1.5v3.828c0,0.828,0.671,1.5,1.5,1.5h11.994
				c0.829,0,1.5-0.672,1.5-1.5v-3.828C152.487,141.758,151.815,141.086,150.987,141.086z M149.487,144.914h-8.994v-0.828h8.994
				V144.914z"/>
		</g>
	</g>
	<g>
		<g>
			<path class="st3" d="M149.829,136.948h-9.679c-1.557,0-2.819,1.262-2.819,2.819c0,1.557,1.262,2.819,2.819,2.819h9.679
				c1.557,0,2.819-1.262,2.819-2.819C152.649,138.21,151.386,136.948,149.829,136.948z"/>
		</g>
	</g>
	<g>
		<g>
			<path class="st1" d="M149.83,135.447h-9.679c-2.382,0-4.319,1.938-4.319,4.319s1.938,4.319,4.319,4.319h9.679
				c2.381,0,4.319-1.938,4.319-4.319S152.211,135.447,149.83,135.447z M149.83,141.086h-9.679c-0.728,0-1.319-0.592-1.319-1.319
				c0-0.728,0.592-1.319,1.319-1.319h9.679c0.727,0,1.319,0.592,1.319,1.319C151.148,140.494,150.557,141.086,149.83,141.086z"/>
		</g>
	</g>
	<g>
		<g>
			<path class="st3" d="M144.99,127.229c-1.446,0-2.617,1.172-2.617,2.617v7.101h5.235v-7.101
				C147.607,128.401,146.435,127.229,144.99,127.229z"/>
		</g>
	</g>
	<g>
		<g>
			<path class="st1" d="M144.99,125.729c-2.27,0-4.118,1.847-4.118,4.117v7.101c0,0.828,0.671,1.5,1.5,1.5h5.235
				c0.829,0,1.5-0.672,1.5-1.5v-7.101C149.107,127.576,147.26,125.729,144.99,125.729z M146.107,135.447h-2.235v-5.601
				c0-0.616,0.501-1.117,1.118-1.117c0.616,0,1.117,0.501,1.117,1.117V135.447z"/>
		</g>
	</g>
	<g>
		<g>
			<rect x="135.243" y="154.276" class="st5" width="19.494" height="18.872"/>
		</g>
	</g>
	<g>
		<g>
			<path class="st1" d="M154.737,152.776h-19.494c-0.829,0-1.5,0.672-1.5,1.5v18.871c0,0.828,0.671,1.5,1.5,1.5h19.494
				c0.829,0,1.5-0.672,1.5-1.5v-18.871C156.237,153.448,155.565,152.776,154.737,152.776z M153.237,171.648h-16.494v-15.871h16.494
				V171.648z"/>
		</g>
	</g>
	<g>
		<g>
			<path class="st5" d="M153.174,171.188c-3.69-3.69-9.672-3.69-13.361,0l-10.61,10.609l13.361,13.361l10.61-10.61
				C156.864,180.859,156.864,174.877,153.174,171.188z"/>
		</g>
	</g>
	<g>
		<g>
			<path class="st1" d="M154.235,170.127c-4.269-4.27-11.214-4.27-15.483,0l-10.609,10.609c-0.586,0.586-0.586,1.535,0,2.121
				l13.361,13.361c0.293,0.293,0.677,0.439,1.061,0.439c0.384,0,0.768-0.146,1.061-0.439l10.609-10.609
				C158.503,181.341,158.503,174.395,154.235,170.127z M152.114,183.488l-9.549,9.549l-11.24-11.24l9.549-9.549
				c3.099-3.1,8.142-3.1,11.24,0C155.212,175.347,155.212,180.39,152.114,183.488z"/>
		</g>
	</g>
	<g>
		<g>
			<path class="st3" d="M128.032,180.597l-39.314,39.314c-4.344,4.345-4.344,11.389,0,15.733c4.345,4.344,11.389,4.344,15.733,0
				l39.314-39.314L128.032,180.597z"/>
		</g>
	</g>
	<g>
		<g>
			<path class="st1" d="M144.825,195.27l-15.733-15.733c-0.563-0.563-1.559-0.563-2.121,0l-39.314,39.314
				c-2.385,2.385-3.698,5.555-3.698,8.928c0,3.372,1.314,6.542,3.698,8.927c2.384,2.385,5.555,3.698,8.927,3.698
				c3.372,0,6.543-1.314,8.927-3.698l39.314-39.314C145.411,196.805,145.411,195.855,144.825,195.27z M103.39,234.584
				c-3.753,3.752-9.859,3.752-13.612,0c-3.753-3.753-3.753-9.859,0-13.612l38.254-38.254l13.612,13.612L103.39,234.584z"/>
		</g>
	</g>
</g>
</svg>
