<?xml version="1.0" encoding="utf-8"?>
<svg xmlns="http://www.w3.org/2000/svg" viewBox="0 0 128 128"><title>Farmer</title><g id="Farmer"><path d="M26,92.86v7.73l2.29-2.3,1.42,1.42L26,103.41V105H37V78.81l-8.41,8.47A3.83,3.83,0,0,1,29,89,4,4,0,0,1,26,92.86Z" style="fill:#c7d95d"/><polygon points="98 105 98 93 100 93 100 105 102 105 102 93.22 96 88.51 96 105 98 105" style="fill:#c7d95d"/><path d="M46,104a6,6,0,0,1,5-5.92V91h2V88.51L39.79,76l-.79.79V105h7Z" style="fill:#c7d95d"/><path d="M80.45,100A5.94,5.94,0,0,1,82,104v1h8V90h2v15h2V86.94L92.8,86l-.8.64V87h-.45l-6.49,5.18L83.86,100Z" style="fill:#c7d95d"/><polygon points="106 105 106 98 108 98 108 105 111 105 117 105 104 94.79 104 105 106 105" style="fill:#c7d95d"/><polygon points="65 99.87 63 97.98 63 105 65 105 65 99.87" style="fill:#c7d95d"/><path d="M21,105h3v-1.59l-3.71-3.7,1.42-1.42,2.29,2.3V92.86a4.08,4.08,0,0,1-.69-.26L11,105H21Z" style="fill:#c7d95d"/><path d="M111,105h-4v2H21v-2H17v2H11v10H117V107h-6Zm-88,6H16v-2h7Zm12,0H29v-2h6Zm67,0H96v-2h6Zm10-2v2h-4v-2Z" style="fill:#a7c23b"/><polygon points="96 105 96 88.51 96 84 94 84 94 86.94 94 105 96 105" style="fill:#ffff3d"/><rect x="98" y="93" width="2" height="12" style="fill:#ffff3d"/><polygon points="104 105 104 94.79 104 82 102 82 102 93.22 102 105 104 105" style="fill:#ffff3d"/><rect x="90" y="90" width="2" height="15" style="fill:#ffff3d"/><polygon points="92 86.64 92 82 90 82 90 87 91.55 87 92 87 92 86.64" style="fill:#ffff3d"/><rect x="98" y="87" width="2" height="3" style="fill:#ffff3d"/><polygon points="106 98 106 105 107 105 108 105 108 98 106 98" style="fill:#ffff3d"/><path d="M98.29,44a14,14,0,1,0-14-14A14,14,0,0,0,98.29,44Zm0-23.33A9.33,9.33,0,1,1,89,30,9.33,9.33,0,0,1,98.29,20.67Z" style="fill:#ffdf69"/><path d="M98.29,39.33A9.33,9.33,0,1,0,89,30,9.33,9.33,0,0,0,98.29,39.33Zm0-14.33a5,5,0,1,1-5,5A5,5,0,0,1,98.29,25Z" style="fill:#ffbb30"/><circle cx="98.29" cy="30" r="3" style="fill:#de6e52"/><path d="M98.29,35a5,5,0,1,0-5-5A5,5,0,0,0,98.29,35Zm0-8a3,3,0,1,1-3,3A3,3,0,0,1,98.29,27Z"/><polygon points="83.83 87 75 87 75 89 83.53 89 83.83 87" style="fill:#b7e09f"/><polygon points="77 91 77 97 77 98 82.14 98 83.22 91 77 91" style="fill:#b7e09f"/><path d="M39,105V73H53V91H51v7.08A6,6,0,0,0,46,104v1h2v-1a4,4,0,0,1,4-4h1V97h8v8h2V80h2v25h2V97h8v3h1a4,4,0,0,1,4,4v1h2v-1a5.94,5.94,0,0,0-1.55-4h3.41l1.2-7.82L86.17,85H86a10.45,10.45,0,0,0-6-9.08V53a5,5,0,0,0-5-5H68V45.65A10.05,10.05,0,0,0,72.79,32H80V30H72.68l-2.17-6.54A6.47,6.47,0,0,0,64.39,19H63.16A6.46,6.46,0,0,0,57,23.46L54.87,30H48v2h6.75A10.06,10.06,0,0,0,60,45.85V48H53a5,5,0,0,0-5,5V65H39V50h1a5,5,0,0,0,5-5V33H43V45a3,3,0,0,1-2,2.82V33H39V48H37V33H35V47.82A3,3,0,0,1,33,45V33H31V45a5,5,0,0,0,5,5h1v55ZM53,95V93h8v2Zm29.14,3H77V91h6.22ZM75,50a3,3,0,0,1,3,3V73H75Zm0,25h3v2a1,1,0,0,1-1,1H75Zm0,5h2a3,3,0,0,0,2.8-2A8.33,8.33,0,0,1,84,85H75Zm0,7h8.83l-.3,2H75Zm0,8H67V93h8ZM58.93,24.09A4.48,4.48,0,0,1,63.16,21h1.23a4.46,4.46,0,0,1,4.22,3.09l2,5.91H57ZM55.68,36.5A8.1,8.1,0,0,1,57.05,32H70.49a8.09,8.09,0,1,1-14.81,4.5ZM66,46.34V48H62V46.42a9.48,9.48,0,0,0,1.77.17A10.23,10.23,0,0,0,66,46.34ZM59,50H69v5H59ZM55,69V50h2v7H71V50h2V91H67V78H61V91H55V69ZM43,67h7V53a3,3,0,0,1,3-3V71H43Zm-4,0h2v4H39Z"/><path d="M53,50a3,3,0,0,0-3,3V67H43v4H53Z" style="fill:#fff"/><path d="M78,53a3,3,0,0,0-3-3V73h3Z" style="fill:#fff"/><path d="M69,50H59v5H69Z" style="fill:#fff"/><path d="M78,77V75H75v3h2A1,1,0,0,0,78,77Z" style="fill:#ffd787"/><path d="M62,46.42V48h4V46.34a10.23,10.23,0,0,1-2.23.25A9.48,9.48,0,0,1,62,46.42Z" style="fill:#fff"/><path d="M71.86,36.5A8,8,0,0,0,70.49,32H57.05a8.09,8.09,0,1,0,14.81,4.5ZM60,41a1,1,0,0,1,1-1h6a1,1,0,0,1,0,2H61A1,1,0,0,1,60,41Z" style="fill:#ffd787"/><path d="M68.61,24.09A4.46,4.46,0,0,0,64.39,21H63.16a4.48,4.48,0,0,0-4.23,3.09L57,30H70.57ZM62,25.32l-1,3A1,1,0,0,1,60,29a1.25,1.25,0,0,1-.32-.05,1,1,0,0,1-.63-1.27l1-3a1,1,0,0,1,1.9.64Z" style="fill:#d99425"/><path d="M61,97H53v3H52a4,4,0,0,0-4,4v1H61Z" style="fill:#d99425"/><path d="M61,93H53v2h8Z" style="fill:#ffae00"/><path d="M80,104a4,4,0,0,0-4-4H75V97H67v8H80Z" style="fill:#d99425"/><polygon points="67 93 67 95 75 95 75 93 73 93 67 93" style="fill:#ffae00"/><rect x="39" y="67" width="2" height="4" style="fill:#ffd787"/><path d="M61.32,24.05a1,1,0,0,0-1.27.63l-1,3A1,1,0,0,0,59.68,29,1.25,1.25,0,0,0,60,29a1,1,0,0,0,1-.68l1-3A1,1,0,0,0,61.32,24.05Z" style="fill:#ffdf9c"/><path d="M68,41a1,1,0,0,0-1-1H61a1,1,0,0,0,0,2h6A1,1,0,0,0,68,41Z" style="fill:#ef7169"/><rect x="57" y="59" width="2" height="6" style="fill:#fff"/><path d="M73,50H71v7H57V50H55V69H73ZM59,65H57V59h2Z" style="fill:#ccc600"/><path d="M55,91h6V78h6V91h6V73H55Z" style="fill:#ccc600"/><path d="M73,73V69H55v4H73Z" style="fill:#6d8f1e"/><circle cx="25" cy="89" r="2" style="fill:#ff5c5c"/><path d="M25,93a4.09,4.09,0,0,0,1-.14A4,4,0,0,0,29,89a3.83,3.83,0,0,0-.41-1.72,4,4,0,1,0-5.28,5.32A4,4,0,0,0,25,93Zm-2-4a2,2,0,1,1,2,2A2,2,0,0,1,23,89Z" style="fill:#fff"/><path d="M104,105H26v-1.59l3.71-3.7-1.42-1.42L26,100.59V92.86a3.64,3.64,0,0,1-2,0v7.73l-2.29-2.3-1.42,1.42,3.71,3.7V105H21v2h86v-2h-3Z" style="fill:#5f7000"/><rect x="11" y="105" width="6" height="2" style="fill:#5f7000"/><rect x="111" y="105" width="6" height="2" style="fill:#5f7000"/><rect x="16" y="109" width="7" height="2" style="fill:#5f7000"/><rect x="29" y="109" width="6" height="2" style="fill:#5f7000"/><rect x="96" y="109" width="6" height="2" style="fill:#5f7000"/><rect x="108" y="109" width="4" height="2" style="fill:#5f7000"/><polygon points="26.74 60.21 25.33 58.79 22.5 61.62 19.67 58.79 18.26 60.21 22.5 64.45 26.74 60.21" style="fill:#c77326"/><path d="M26,22H40a4,4,0,0,0,0-8H26a4,4,0,0,0,0,8Z" style="fill:#8dd4a9"/><path d="M106,67c0-1.41-1.14-3-2.55-3h-8.9C93.14,64,92,65.59,92,67s1.14,3,2.55,3h8.9C104.86,70,106,68.41,106,67Z" style="fill:#8dd4a9"/></g></svg>