<?xml version="1.0" encoding="utf-8"?>
<!-- Generator: Adobe Illustrator 21.1.0, SVG Export Plug-In . SVG Version: 6.00 Build 0)  -->
<svg version="1.1" id="Layer_1" xmlns="http://www.w3.org/2000/svg" xmlns:xlink="http://www.w3.org/1999/xlink" x="0px" y="0px"
	 viewBox="0 0 512 512" style="enable-background:new 0 0 512 512;" xml:space="preserve">
<style type="text/css">
	.st0{fill:#D6CD1E;}
	.st1{fill:#E56823;}
	.st2{fill:#FE8E46;}
	.st3{fill:#FEFE71;}
	.st4{fill:#463218;}
	.st5{fill:#7DAC51;}
	.st6{fill:#5B7C31;}
	.st7{fill:#FFFFFF;}
</style>
<g>
	<g>
		<g>
			<rect x="108.218" y="330.534" class="st2" width="272.245" height="79.066"/>
		</g>
	</g>
	<g>
		<g>
			<rect x="108.218" y="330.534" class="st1" width="61.464" height="79.066"/>
		</g>
	</g>
	<g>
		<g>
			<rect x="108.218" y="350.743" class="st1" width="61.464" height="58.857"/>
		</g>
	</g>
	<g>
		<g>
			<path class="st5" d="M323.083,293.154h-14.458h-26.8H165.598c-20.645,0-37.381,16.736-37.381,37.38h153.608h26.8h51.838
				C360.463,309.89,343.727,293.154,323.083,293.154z"/>
		</g>
	</g>
	<g>
		<g>
			<g>
				<g>
					<path class="st4" d="M323.083,286.154H165.598c-24.472,0-44.381,19.909-44.381,44.38c0,3.866,3.134,7,7,7h232.246
						c3.866,0,7-3.134,7-7C367.463,306.063,347.554,286.154,323.083,286.154z M136.031,323.534
						c3.169-13.389,15.224-23.38,29.567-23.38h157.484c14.344,0,26.398,9.991,29.567,23.38H136.031z"/>
				</g>
			</g>
		</g>
	</g>
	<g>
		<g>
			<path class="st3" d="M265.397,102.4h-42.114c-33.624,0-60.881,27.257-60.881,60.881v85.315c0,45.253,36.685,81.938,81.938,81.938
				c45.253,0,81.938-36.685,81.938-81.938v-85.315C326.278,129.657,299.021,102.4,265.397,102.4z"/>
		</g>
	</g>
	<g>
		<g>
			<path class="st0" d="M185.003,248.596v-85.315c0-33.623,27.257-60.88,60.881-60.88h-22.601c-33.624,0-60.881,27.257-60.881,60.88
				v85.315c0,45.253,36.685,81.938,81.938,81.938c3.835,0,7.606-0.27,11.3-0.779C215.736,324.249,185.003,290.015,185.003,248.596z"
				/>
		</g>
	</g>
	<g>
		<g>
			<path class="st0" d="M144.196,213.909c0,10.055,8.151,18.207,18.206,18.207v-36.413
				C152.347,195.703,144.196,203.854,144.196,213.909z"/>
		</g>
	</g>
	<g>
		<g>
			<path class="st0" d="M326.278,195.703v36.413c10.055,0,18.206-8.151,18.206-18.207S336.333,195.703,326.278,195.703z"/>
		</g>
	</g>
	<g>
		<g>
			<g>
				<g>
					<path class="st4" d="M265.397,95.4h-42.113c-37.43,0-67.881,30.451-67.881,67.881v85.315c0,49.04,39.897,88.938,88.938,88.938
						s88.938-39.897,88.938-88.938v-85.315C333.278,125.852,302.827,95.4,265.397,95.4z M319.278,248.597
						c0,41.32-33.617,74.938-74.938,74.938s-74.938-33.617-74.938-74.938v-85.315c0-29.71,24.171-53.881,53.881-53.881h42.113
						c29.71,0,53.881,24.171,53.881,53.881V248.597z"/>
				</g>
			</g>
		</g>
	</g>
	<g>
		<g>
			<g>
				<g>
					<path class="st4" d="M162.403,188.703c-13.899,0-25.207,11.308-25.207,25.206c0,13.899,11.308,25.207,25.207,25.207
						c3.866,0,7-3.134,7-7v-36.413C169.403,191.837,166.269,188.703,162.403,188.703z M155.403,222.655
						c-2.563-2.056-4.207-5.212-4.207-8.746c0-3.533,1.644-6.689,4.207-8.745V222.655z"/>
				</g>
			</g>
		</g>
	</g>
	<g>
		<g>
			<g>
				<g>
					<path class="st4" d="M326.278,188.703c-3.866,0-7,3.134-7,7v36.413c0,3.866,3.134,7,7,7c13.899,0,25.207-11.308,25.207-25.207
						C351.485,200.011,340.177,188.703,326.278,188.703z M333.278,222.655v-17.491c2.563,2.056,4.207,5.212,4.207,8.745
						C337.485,217.443,335.841,220.6,333.278,222.655z"/>
				</g>
			</g>
		</g>
	</g>
	<g>
		<g>
			<path class="st2" d="M265.397,102.4h-42.114c-33.624,0-60.881,27.257-60.881,60.88v32.422c28.554,0,51.703-23.148,51.703-51.702
				c0,28.554,23.148,51.702,51.702,51.702h60.471v-32.422C326.278,129.658,299.021,102.4,265.397,102.4z"/>
		</g>
	</g>
	<g>
		<g>
			<path class="st7" d="M284.732,117.498l-5.461,12.891c7.992,3.386,14.482,9.559,18.275,17.381l12.598-6.109
				C304.871,130.787,295.846,122.206,284.732,117.498z"/>
		</g>
	</g>
	<g>
		<g>
			<path class="st1" d="M223.283,102.4c-33.624,0-60.881,27.257-60.881,60.88v32.422c8.105,0,15.773-1.869,22.601-5.194v-27.228
				c0-33.623,27.257-60.88,60.881-60.88H223.283z"/>
		</g>
	</g>
	<g>
		<g>
			<g>
				<g>
					<path class="st4" d="M265.397,95.4h-42.113c-37.43,0-67.881,30.451-67.881,67.881v32.422c0,3.866,3.134,7,7,7
						c22.324,0,41.778-12.527,51.702-30.921c9.924,18.394,29.378,30.921,51.702,30.921h60.471c3.866,0,7-3.134,7-7v-32.422
						C333.278,125.852,302.827,95.4,265.397,95.4z M319.278,188.703h-53.471c-24.648,0-44.702-20.054-44.702-44.703
						c0-3.866-3.134-7-7-7s-7,3.134-7,7c0,22.268-16.367,40.785-37.702,44.156v-24.875c0-29.71,24.171-53.881,53.881-53.881h42.113
						c29.71,0,53.881,24.171,53.881,53.881V188.703z"/>
				</g>
			</g>
		</g>
	</g>
	<g>
		<g>
			<path class="st4" d="M226.688,215.684c-2.734-2.732-7.165-2.733-9.899,0.001c-2.096,2.096-4.882,3.25-7.845,3.25
				c-2.964,0-5.75-1.154-7.846-3.25c-2.732-2.733-7.165-2.733-9.899-0.001c-2.734,2.733-2.734,7.166-0.001,9.899
				c4.74,4.74,11.042,7.352,17.746,7.352c6.703,0,13.005-2.611,17.745-7.352C229.422,222.85,229.422,218.417,226.688,215.684z"/>
		</g>
	</g>
	<g>
		<g>
			<path class="st4" d="M297.482,215.684c-2.734-2.732-7.165-2.733-9.899,0.001c-2.096,2.096-4.882,3.25-7.846,3.25
				c-2.963,0-5.749-1.154-7.845-3.25c-2.733-2.733-7.166-2.733-9.899-0.001c-2.734,2.733-2.734,7.166-0.001,9.899
				c4.74,4.74,11.042,7.352,17.745,7.352c6.704,0,13.006-2.611,17.746-7.352C300.216,222.85,300.216,218.417,297.482,215.684z"/>
		</g>
	</g>
	<g>
		<g>
			<rect x="108.218" y="330.534" class="st3" width="272.245" height="20.209"/>
		</g>
	</g>
	<g>
		<g>
			<rect x="108.218" y="330.534" class="st0" width="61.464" height="20.209"/>
		</g>
	</g>
	<g>
		<g>
			<g>
				<g>
					<path class="st4" d="M380.463,323.534H108.217c-3.866,0-7,3.134-7,7V409.6c0,3.866,3.134,7,7,7h272.246c3.866,0,7-3.134,7-7
						v-79.065C387.463,326.668,384.33,323.534,380.463,323.534z M373.463,402.6H115.217v-65.065h258.246V402.6z"/>
				</g>
			</g>
		</g>
	</g>
	<g>
		<g>
			<g>
				<g>
					<path class="st4" d="M380.463,343.743H108.217c-3.866,0-7,3.134-7,7V409.6c0,3.866,3.134,7,7,7h272.246c3.866,0,7-3.134,7-7
						v-58.856C387.463,346.877,384.33,343.743,380.463,343.743z M373.463,402.6H115.217v-44.856h258.246V402.6z"/>
				</g>
			</g>
		</g>
	</g>
	<g>
		<g>
			<g>
				<g>
					<path class="st4" d="M244.342,261.969c-11.608,0-21.052,9.443-21.052,21.051s9.443,21.051,21.052,21.051
						c11.607,0,21.051-9.443,21.051-21.051S255.95,261.969,244.342,261.969z M244.342,290.07c-3.889,0-7.052-3.163-7.052-7.051
						s3.163-7.051,7.052-7.051c3.888,0,7.051,3.163,7.051,7.051S248.23,290.07,244.342,290.07z"/>
				</g>
			</g>
		</g>
	</g>
	<g>
		<g>
			<path class="st4" d="M375.892,269.576H363.64l17.202-17.203c2.002-2.002,2.601-5.013,1.517-7.628
				c-1.083-2.616-3.636-4.321-6.467-4.321h-29.151c-3.866,0-7,3.134-7,7s3.134,7,7,7h12.252l-17.202,17.203
				c-2.002,2.002-2.601,5.013-1.517,7.628c1.083,2.616,3.636,4.321,6.467,4.321h29.151c3.866,0,7-3.134,7-7
				S379.758,269.576,375.892,269.576z"/>
		</g>
	</g>
	<g>
		<g>
			<path class="st4" d="M403.783,212.376h-3.519l8.469-8.468c2.002-2.002,2.601-5.014,1.517-7.629
				c-1.083-2.616-3.636-4.321-6.467-4.321h-20.418c-3.866,0-7,3.134-7,7s3.134,7,7,7h3.519l-8.469,8.468
				c-2.002,2.002-2.601,5.014-1.517,7.629c1.083,2.616,3.636,4.321,6.467,4.321h20.418c3.866,0,7-3.134,7-7
				S407.649,212.376,403.783,212.376z"/>
		</g>
	</g>
</g>
</svg>
