<?xml version="1.0" encoding="utf-8"?>
<!-- Generator: Adobe Illustrator 21.1.0, SVG Export Plug-In . SVG Version: 6.00 Build 0)  -->
<svg version="1.1" id="Layer_1" xmlns="http://www.w3.org/2000/svg" xmlns:xlink="http://www.w3.org/1999/xlink" x="0px" y="0px"
	 viewBox="0 0 512 512" style="enable-background:new 0 0 512 512;" xml:space="preserve">
<style type="text/css">
	.st0{fill:#D6CD1E;}
	.st1{fill:#E56823;}
	.st2{fill:#FE8E46;}
	.st3{fill:#FEFE71;}
	.st4{fill:#463218;}
	.st5{fill:#7DAC51;}
	.st6{fill:#5B7C31;}
	.st7{fill:#FFFFFF;}
</style>
<g>
	<g>
		<g>
			<path class="st4" d="M183.489,238.283h-57.742c-3.866,0-7,3.134-7,7s3.134,7,7,7h57.742c3.866,0,7-3.134,7-7
				S187.355,238.283,183.489,238.283z"/>
		</g>
	</g>
	<g>
		<g>
			<path class="st4" d="M187.798,192.389l-20.415-20.415c-2.733-2.732-7.166-2.732-9.899,0c-2.734,2.734-2.734,7.166,0,9.9
				l20.415,20.415c1.367,1.366,3.158,2.05,4.95,2.05s3.583-0.684,4.95-2.05C190.531,199.555,190.531,195.123,187.798,192.389z"/>
		</g>
	</g>
	<g>
		<g>
			<path class="st4" d="M187.798,282.992c-2.733-2.732-7.166-2.732-9.899,0l-20.415,20.415c-2.734,2.734-2.734,7.166,0,9.9
				c1.367,1.366,3.158,2.05,4.95,2.05s3.583-0.684,4.95-2.05l20.415-20.415C190.531,290.158,190.531,285.727,187.798,282.992z"/>
		</g>
	</g>
	<g>
		<g>
			<path class="st3" d="M307.346,215.349L386.253,102.4H269.689l-48.145,96.291c-8.513,17.025-9.913,36.734-3.894,54.792
				L284.295,409.6h49.523l-31.248-172.4C301.186,229.571,302.906,221.705,307.346,215.349z"/>
		</g>
	</g>
	<g>
		<g>
			<path class="st0" d="M307.346,215.349L386.253,102.4h-30.478l-78.906,112.949c-4.441,6.356-6.16,14.222-4.777,21.851
				L303.34,409.6h30.478L302.569,237.2C301.186,229.571,302.906,221.705,307.346,215.349z"/>
		</g>
	</g>
	<g>
		<g>
			<g>
				<g>
					<path class="st4" d="M391.991,106.409c1.494-2.139,1.675-4.931,0.469-7.244s-3.598-3.765-6.207-3.765H269.689
						c-2.651,0-5.075,1.498-6.261,3.869l-48.146,96.29c-9.41,18.819-10.928,40.177-4.274,60.137c0.06,0.181,0.128,0.359,0.203,0.534
						l66.646,156.117c1.101,2.579,3.634,4.252,6.438,4.252h49.522c2.075,0,4.043-0.921,5.373-2.514s1.885-3.693,1.515-5.734
						l-31.248-172.399c-1.043-5.753,0.279-11.802,3.628-16.595L391.991,106.409z M295.681,238.448L325.434,402.6h-36.517
						l-64.715-151.597c-5.37-16.336-4.093-33.791,3.602-49.182l46.211-92.421h98.808L301.608,211.34
						C296.138,219.17,293.978,229.051,295.681,238.448z"/>
				</g>
			</g>
		</g>
	</g>
	<g>
		<g>
			<path class="st5" d="M322.038,344.613h-65.486c0,0,11.799,29.173-22.109,29.173c-33.907,0-40.842,35.813-40.842,35.813h140.215
				L322.038,344.613z"/>
		</g>
	</g>
	<g>
		<g>
			<polygon class="st6" points="322.038,344.613 291.561,344.613 303.34,409.6 333.817,409.6 			"/>
		</g>
	</g>
	<g>
		<g>
			<g>
				<g>
					<path class="st4" d="M340.705,408.352l-11.779-64.986c-0.604-3.331-3.503-5.752-6.888-5.752h-65.485
						c-2.327,0-4.503,1.157-5.804,3.087c-1.302,1.93-1.559,4.38-0.686,6.538c0.036,0.088,3.427,9.108-0.148,14.411
						c-2.863,4.246-9.993,5.138-15.471,5.138c-31.388,0-44.936,27.134-47.714,41.481c-0.397,2.052,0.143,4.174,1.473,5.785
						c1.33,1.612,3.31,2.546,5.4,2.546h140.215c2.075,0,4.043-0.921,5.373-2.514S341.075,410.393,340.705,408.352z M203.299,402.6
						c0.968-2.188,2.225-4.611,3.833-7.021c6.546-9.814,15.735-14.791,27.312-14.791c12.907,0,22.018-3.806,27.078-11.311
						c3.95-5.858,4.41-12.539,3.838-17.863h50.832l9.242,50.986H203.299z"/>
				</g>
			</g>
		</g>
	</g>
	<g>
		<g>
			
				<rect x="290.118" y="364.536" transform="matrix(0.984 -0.1784 0.1784 0.984 -62.1922 59.0373)" class="st7" width="14" height="21.472"/>
		</g>
	</g>
</g>
</svg>
