<?xml version="1.0" encoding="utf-8"?>
<svg xmlns="http://www.w3.org/2000/svg" viewBox="0 0 128 128"><title>Plant_Propagation</title><g id="Plant_Propagation"><path d="M47,67h5.74A10.08,10.08,0,0,1,63,77V65.54a8.07,8.07,0,0,1-3.43-4.24,7.55,7.55,0,0,1-6.39.19l-.28-.14-.14-.28c-.91-1.71-.83-4,.18-6.39a7.5,7.5,0,0,1-4.65-4.39L48.2,50l.09-.29a7.5,7.5,0,0,1,4.65-4.39c-1-2.39-1.09-4.68-.18-6.39l.14-.28.28-.14a7.55,7.55,0,0,1,6.39.19A7.49,7.49,0,0,1,64,34l.29-.09.29.09a7.49,7.49,0,0,1,4.39,4.66,7.55,7.55,0,0,1,6.39-.19l.28.14.14.28c.91,1.71.83,4-.18,6.39a7.5,7.5,0,0,1,4.65,4.39l.09.29-.09.29a7.5,7.5,0,0,1-4.65,4.39c1,2.39,1.09,4.68.18,6.39l-.14.28-.28.14a7.55,7.55,0,0,1-6.39-.19A7.74,7.74,0,0,1,65,65.78V78a28,28,0,1,0-16.3-4.52A9.64,9.64,0,0,1,47,68Z" style="fill:#ffdf69"/><path d="M66.74,105H84.26A5.45,5.45,0,0,1,83,101.5,5.51,5.51,0,0,1,88.5,96h5a4.07,4.07,0,0,1,.5,0V82.17L93.83,82H89.89a7.9,7.9,0,0,1-2.17-.31L67.55,99.33a5.48,5.48,0,0,1-.81,5.67Z" style="fill:#c7d95d"/><path d="M34,88.27l0,0V89A5.85,5.85,0,0,1,34,88.27Z" style="fill:#c7d95d"/><path d="M99,101.5a5.45,5.45,0,0,1-1.26,3.5H117L96,84.16V96.61A5.49,5.49,0,0,1,99,101.5Z" style="fill:#c7d95d"/><path d="M21,105h1.26A5.45,5.45,0,0,1,21,101.5,5.51,5.51,0,0,1,26.5,96h5a4.07,4.07,0,0,1,.5,0V90h-.34L11,105H21Z" style="fill:#c7d95d"/><path d="M34,90v6.61A5.49,5.49,0,0,1,35.74,105H53.26a5.49,5.49,0,0,1-.34-6.54L40.05,89.85a7.31,7.31,0,0,1-1.49.15Z" style="fill:#c7d95d"/><path d="M109,105h-4v2H21v-2H17v2H11v10H117V107h-8Zm-81,6H21v-2h7Zm7,4H30v-2h5Zm4-4H34v-2h5Zm53,0H86v-2h6Zm10,4H93v-2h9Zm8-6v2h-5v-2Z" style="fill:#a7c23b"/><path d="M93.5,107H105v-2H97.74A5.5,5.5,0,0,1,93.5,107Z" style="fill:#5f7000"/><path d="M84.26,105H66.74a5.5,5.5,0,0,1-4.24,2h26A5.5,5.5,0,0,1,84.26,105Z" style="fill:#5f7000"/><path d="M22.26,105H21v2h5.5A5.5,5.5,0,0,1,22.26,105Z" style="fill:#5f7000"/><path d="M53.26,105H35.74a5.5,5.5,0,0,1-4.24,2h26A5.5,5.5,0,0,1,53.26,105Z" style="fill:#5f7000"/><rect x="11" y="105" width="6" height="2" style="fill:#5f7000"/><rect x="109" y="105" width="8" height="2" style="fill:#5f7000"/><rect x="21" y="109" width="7" height="2" style="fill:#5f7000"/><rect x="30" y="113" width="5" height="2" style="fill:#5f7000"/><rect x="34" y="109" width="5" height="2" style="fill:#5f7000"/><rect x="105" y="109" width="5" height="2" style="fill:#5f7000"/><rect x="93" y="113" width="9" height="2" style="fill:#5f7000"/><rect x="86" y="109" width="6" height="2" style="fill:#5f7000"/><path d="M106.09,76h-2.2c-2.47,0-5.1,1.07-5.58,4h2.25A5.77,5.77,0,0,0,106.09,76Z" style="fill:#6d8f1e"/><path d="M100.56,82A7.34,7.34,0,0,0,108,75V74h-4.11C99.24,74,96,76.75,96,81v1Zm3.33-6h2.2a5.77,5.77,0,0,1-5.53,4H98.31C98.79,77.07,101.42,76,103.89,76Z"/><path d="M92.15,80c-.49-2.93-3.11-4-5.59-4H84.37a5.75,5.75,0,0,0,5.52,4Z" style="fill:#6d8f1e"/><path d="M93.83,82H94V81c0-4.25-2.78-7-7.44-7H82v1c0,3,2.56,5.8,5.72,6.69a7.9,7.9,0,0,0,2.17.31Zm-9.46-6h2.19c2.48,0,5.1,1.07,5.59,4H89.89A5.75,5.75,0,0,1,84.37,76Z"/><path d="M94,82.17V96a5.21,5.21,0,0,1,2,.58V80H94v2.17Z" style="fill:#416100"/><path d="M97,101.5A3.5,3.5,0,0,0,93.5,98h-5a3.5,3.5,0,0,0,0,7h5A3.5,3.5,0,0,0,97,101.5Zm-4,.5H88v-2h5Z" style="fill:#ccc600"/><path d="M97.74,105A5.49,5.49,0,0,0,96,96.61,5.21,5.21,0,0,0,94,96a4.07,4.07,0,0,0-.5,0h-5a5.51,5.51,0,0,0-5.5,5.5,5.51,5.51,0,0,0,5.5,5.5h5A5.5,5.5,0,0,0,97.74,105Zm-9.24,0a3.5,3.5,0,0,1,0-7h5a3.5,3.5,0,0,1,0,7Z"/><rect x="88" y="100" width="5" height="2" style="fill:#fff"/><path d="M65,91V65.78c-.15.06-.3.13-.46.18l-.29.09L64,66a5.82,5.82,0,0,1-1-.42V96a5.21,5.21,0,0,1,2,.58Z" style="fill:#416100"/><path d="M78.93,82H75.26a8.33,8.33,0,0,0-8.4,7h3.67A8.33,8.33,0,0,0,78.93,82Z" style="fill:#6d8f1e"/><path d="M70.53,91A10.26,10.26,0,0,0,81,81V80H75.26A10.08,10.08,0,0,0,65,90v1Zm4.73-9h3.67a8.33,8.33,0,0,1-8.4,7H66.86A8.33,8.33,0,0,1,75.26,82Z"/><path d="M57.47,76h3.67a8.33,8.33,0,0,0-8.4-7H49.07A8.33,8.33,0,0,0,57.47,76Z" style="fill:#6d8f1e"/><path d="M63,77A10.08,10.08,0,0,0,52.74,67H47v1a9.64,9.64,0,0,0,1.7,5.45A10.61,10.61,0,0,0,57.47,78H63ZM52.74,69a8.33,8.33,0,0,1,8.4,7H57.47a8.33,8.33,0,0,1-8.4-7Z"/><path d="M54,101.5a3.5,3.5,0,0,0,3.5,3.5h5a3.5,3.5,0,0,0,0-7h-5A3.5,3.5,0,0,0,54,101.5Zm8-1.5v2H57v-2Z" style="fill:#e0812b"/><path d="M53.26,105a5.5,5.5,0,0,0,4.24,2h5a5.51,5.51,0,0,0,5.5-5.5,5.44,5.44,0,0,0-.45-2.17A5.53,5.53,0,0,0,65,96.61,5.21,5.21,0,0,0,63,96a4.07,4.07,0,0,0-.5,0h-5a5.5,5.5,0,0,0-4.24,9Zm4.24-7h5a3.5,3.5,0,0,1,0,7h-5a3.5,3.5,0,0,1,0-7Z"/><rect x="57" y="100" width="5" height="2" style="fill:#f5ce5a"/><path d="M32,90v6a5.21,5.21,0,0,1,2,.58V87H32v3Z" style="fill:#416100"/><path d="M36.31,88h2.25a5.77,5.77,0,0,0,5.53-4h-2.2C39.42,84,36.79,85.07,36.31,88Z" style="fill:#6d8f1e"/><path d="M34,90h4.56A7.45,7.45,0,0,0,46,83V82H41.89c-4.38,0-7.51,2.44-7.85,6.27A5.85,5.85,0,0,0,34,89Zm7.89-6h2.2a5.77,5.77,0,0,1-5.53,4H36.31C36.79,85.07,39.42,84,41.89,84Z"/><path d="M24.56,84H22.37a5.75,5.75,0,0,0,5.52,4h2.26C29.66,85.07,27,84,24.56,84Z" style="fill:#6d8f1e"/><path d="M32,89c0-4.25-2.78-7-7.44-7H20v1c0,3.73,3.81,7,7.89,7H32Zm-4.11-1a5.75,5.75,0,0,1-5.52-4h2.19c2.48,0,5.1,1.07,5.59,4Z"/><path d="M35,101.5A3.5,3.5,0,0,0,31.5,98h-5a3.5,3.5,0,0,0,0,7h5A3.5,3.5,0,0,0,35,101.5Zm-4,.5H26v-2h5Z" style="fill:#ccc600"/><path d="M35.74,105A5.49,5.49,0,0,0,34,96.61,5.21,5.21,0,0,0,32,96a4.07,4.07,0,0,0-.5,0h-5a5.51,5.51,0,0,0-5.5,5.5,5.51,5.51,0,0,0,5.5,5.5h5A5.5,5.5,0,0,0,35.74,105Zm-9.24,0a3.5,3.5,0,0,1,0-7h5a3.5,3.5,0,0,1,0,7Z"/><rect x="26" y="100" width="5" height="2" style="fill:#fff"/><path d="M67.76,58.46l1.07.58c2,1.05,3.94,1.35,5.27.81.55-1.34.25-3.28-.81-5.27l-.58-1.07,1.17-.36C76,52.5,77.62,51.34,78.19,50c-.57-1.34-2.15-2.5-4.31-3.15l-1.17-.36.58-1.07c1.06-2,1.36-3.93.81-5.27-1.33-.54-3.31-.24-5.27.81l-1.07.58-.36-1.17c-.65-2.16-1.81-3.74-3.15-4.31-1.34.57-2.5,2.15-3.15,4.31l-.36,1.17L59.67,41c-2-1.05-3.94-1.35-5.27-.81-.55,1.34-.25,3.28.81,5.27l.58,1.07-1.17.36c-2.16.65-3.74,1.81-4.31,3.15.57,1.34,2.15,2.5,4.31,3.15l1.17.36-.58,1.07c-1.06,2-1.36,3.93-.81,5.27,1.33.54,3.31.24,5.27-.81l1.07-.58.36,1.17c.65,2.16,1.81,3.74,3.15,4.31,1.34-.57,2.5-2.15,3.15-4.31ZM63.91,54a4,4,0,1,1,4-4A4,4,0,0,1,63.91,54Z" style="fill:#de6e52"/><path d="M68.93,61.3a7.55,7.55,0,0,0,6.39.19l.28-.14.14-.28c.91-1.71.83-4-.18-6.39a7.5,7.5,0,0,0,4.65-4.39L80.3,50l-.09-.29a7.5,7.5,0,0,0-4.65-4.39c1-2.39,1.09-4.68.18-6.39l-.14-.28-.28-.14a7.55,7.55,0,0,0-6.39.19A7.49,7.49,0,0,0,64.54,34L64.25,34,64,34a7.49,7.49,0,0,0-4.39,4.66,7.55,7.55,0,0,0-6.39-.19l-.28.14-.14.28c-.91,1.71-.83,4,.18,6.39a7.5,7.5,0,0,0-4.65,4.39L48.2,50l.09.29a7.5,7.5,0,0,0,4.65,4.39c-1,2.39-1.09,4.68-.18,6.39l.14.28.28.14a7.55,7.55,0,0,0,6.39-.19A8.07,8.07,0,0,0,63,65.54,5.82,5.82,0,0,0,64,66l.29.09.29-.09c.16,0,.31-.12.46-.18A7.74,7.74,0,0,0,68.93,61.3Zm-4.68,2.64c-1.34-.57-2.5-2.15-3.15-4.31l-.36-1.17L59.67,59c-2,1.05-3.94,1.35-5.27.81-.55-1.34-.25-3.28.81-5.27l.58-1.07-1.17-.36c-2.16-.65-3.74-1.81-4.31-3.15.57-1.34,2.15-2.5,4.31-3.15l1.17-.36-.58-1.07c-1.06-2-1.36-3.93-.81-5.27,1.33-.54,3.31-.24,5.27.81l1.07.58.36-1.17c.65-2.16,1.81-3.74,3.15-4.31,1.34.57,2.5,2.15,3.15,4.31l.36,1.17L68.83,41c2-1.05,3.94-1.35,5.27-.81.55,1.34.25,3.28-.81,5.27l-.58,1.07,1.17.36c2.16.65,3.74,1.81,4.31,3.15-.57,1.34-2.15,2.5-4.31,3.15l-1.17.36.58,1.07c1.06,2,1.36,3.93.81,5.27-1.33.54-3.31.24-5.27-.81l-1.07-.58-.36,1.17C66.75,61.79,65.59,63.37,64.25,63.94Z"/><circle cx="63.91" cy="50" r="4" style="fill:#ffff3d"/><path d="M86,24H98V22H86a4.38,4.38,0,1,1,4.5-4h2A6.47,6.47,0,0,0,86,11.25a6.3,6.3,0,0,0-6.5,6.25A6.51,6.51,0,0,0,86,24Z" style="fill:#7bcad4"/><rect x="100" y="22" width="6" height="2" style="fill:#7bcad4"/><path d="M26,76h9V74H26a2,2,0,0,1-2-2V71a2,2,0,0,1,2-2h1a2,2,0,0,1,2,2h2a4,4,0,0,0-4-4H26a4,4,0,0,0-4,4v1A4,4,0,0,0,26,76Z" style="fill:#7bcad4"/><rect x="37" y="74" width="4" height="2" style="fill:#7bcad4"/></g></svg>