<?xml version="1.0" encoding="utf-8"?>
<svg xmlns="http://www.w3.org/2000/svg" viewBox="0 0 128 128"><title>Plant_Conservation</title><g id="Plant_Conservation"><path d="M109,105h-4v2H21v-2H17v2H11v10H117V107h-8Zm-81,6H21v-2h7Zm7,4H30v-2h5Zm4-4H34v-2h5Zm53,0H86v-2h6Zm10,4H93v-2h9Zm9-6v2h-7v-2Z" style="fill:#c7bba7"/><rect x="58" y="105" width="11" height="2" style="fill:#7d7569"/><rect x="21" y="105" width="23" height="2" style="fill:#7d7569"/><rect x="83" y="105" width="22" height="2" style="fill:#7d7569"/><rect x="11" y="105" width="6" height="2" style="fill:#7d7569"/><rect x="109" y="105" width="8" height="2" style="fill:#7d7569"/><rect x="21" y="109" width="7" height="2" style="fill:#7d7569"/><rect x="30" y="113" width="5" height="2" style="fill:#7d7569"/><rect x="34" y="109" width="5" height="2" style="fill:#7d7569"/><rect x="104" y="109" width="7" height="2" style="fill:#7d7569"/><rect x="93" y="113" width="9" height="2" style="fill:#7d7569"/><rect x="86" y="109" width="6" height="2" style="fill:#7d7569"/><path d="M15.12,85.2a52.43,52.43,0,0,0,9,15.64l3.07-2.58a47.13,47.13,0,0,1-4.81-6.85A48.07,48.07,0,0,1,18.88,51a48.85,48.85,0,0,1,3.54-7.58L19,41.4a53,53,0,0,0-3.84,8.22,52.16,52.16,0,0,0,0,35.58Z" style="fill:#e0f279"/><path d="M111.28,59.07a48.66,48.66,0,0,1,0,16.68,47.66,47.66,0,0,1-2.16,8.08,47.8,47.8,0,0,1-8.35,14.43l3.06,2.58a52.06,52.06,0,0,0,9-51.22A53,53,0,0,0,109,41.4l-3.46,2A48.85,48.85,0,0,1,109.12,51,48.16,48.16,0,0,1,111.28,59.07Z" style="fill:#e0f279"/><path d="M64,18.53c.64.56.69.6,1,.9a47.42,47.42,0,0,1,15.42,2.86,47.8,47.8,0,0,1,14.43,8.35l2.58-3.06A51.65,51.65,0,0,0,90,22.37a51.09,51.09,0,0,0-8.21-3.84A51.88,51.88,0,0,0,38,22.37a53,53,0,0,0-7.43,5.2l2.58,3.07A47.13,47.13,0,0,1,40,25.83a47.67,47.67,0,0,1,15.66-5.7,48.52,48.52,0,0,1,7.34-.7C63.31,19.13,63.34,19.11,64,18.53Z" style="fill:#e0f279"/><path d="M21.09,67.41a43.09,43.09,0,0,0,2.58,14.68,42.61,42.61,0,0,0,3.16,6.78A43.19,43.19,0,0,0,31.13,95l3.06-2.57a39,39,0,0,1-3.89-5.56,38.53,38.53,0,0,1-4.62-12.69,39,39,0,0,1,0-13.52A38.69,38.69,0,0,1,30.3,48l-3.47-2a43.5,43.5,0,0,0-3.16,6.78,43.09,43.09,0,0,0-2.58,14.68Z" style="fill:#b6d43f"/><path d="M102.32,60.65a39,39,0,0,1,0,13.52A38.53,38.53,0,0,1,97.7,86.86a39,39,0,0,1-3.89,5.56L96.87,95a43,43,0,0,0,7.46-42.26A42.66,42.66,0,0,0,101.16,46L97.7,48a38.69,38.69,0,0,1,4.62,12.7Z" style="fill:#b6d43f"/><path d="M58.93,24.81c-.8.09-1.59.2-2.38.34a42.56,42.56,0,0,0-20.13,9.39L39,37.6a39.5,39.5,0,0,1,5.55-3.89,38.69,38.69,0,0,1,12.7-4.62c.25-.05.51-.08.76-.12v-.62A8.22,8.22,0,0,1,58.93,24.81Z" style="fill:#b6d43f"/><path d="M70,29c.25,0,.51.07.76.12a38.69,38.69,0,0,1,12.7,4.62A39.5,39.5,0,0,1,89,37.6l2.57-3.06a42.65,42.65,0,0,0-20.13-9.39c-.79-.14-1.58-.25-2.38-.34A8.22,8.22,0,0,1,70,28.35Z" style="fill:#b6d43f"/><path d="M35.82,59A3.24,3.24,0,0,1,39,62V74.68a2.62,2.62,0,0,0,1,2.08v-3.9a2.84,2.84,0,0,1,1.48-2.39,23.7,23.7,0,0,1-.21-3.06A22.71,22.71,0,0,1,52.69,47.7a13.47,13.47,0,0,1-6-7A31.88,31.88,0,0,0,33.28,59.11,2.51,2.51,0,0,1,34,59Z" style="fill:#e0f279"/><path d="M69,98.83V93.77a16.28,16.28,0,0,1,.6-4.33,23,23,0,0,1-5.6.7,22.62,22.62,0,0,1-6.67-1A16.45,16.45,0,0,1,58,93.77v4.88a31.22,31.22,0,0,0,6,.58A31.73,31.73,0,0,0,69,98.83Z" style="fill:#e0f279"/><path d="M75.31,47.7A22.63,22.63,0,0,1,86.4,71.21a2.69,2.69,0,0,1,.6,1.65v3.9a2.62,2.62,0,0,0,1-2.08V62a3.35,3.35,0,0,1,3.27-3h1.82a2.8,2.8,0,0,1,1.77.67,31.85,31.85,0,0,0-13.58-19A13.47,13.47,0,0,1,75.31,47.7Z" style="fill:#e0f279"/><path d="M65,38.48v3.88a9.62,9.62,0,0,1,6.66-5.83,31.2,31.2,0,0,0-4.25-.76A22.56,22.56,0,0,1,65,38.48Z" style="fill:#e0f279"/><path d="M63,42.36V38.48a22.56,22.56,0,0,1-2.41-2.71,31.2,31.2,0,0,0-4.25.76A9.62,9.62,0,0,1,63,42.36Z" style="fill:#e0f279"/><path d="M69.6,89.44A16.48,16.48,0,0,1,79,78.63V72.86A3.16,3.16,0,0,1,82.18,70H84a3.06,3.06,0,0,1,2.4,1.21A22.63,22.63,0,0,0,75.31,47.7a10.32,10.32,0,0,1-5,1.3H65v4.82a13.64,13.64,0,1,1-2,0V49H57.64a10.32,10.32,0,0,1-5-1.3A22.71,22.71,0,0,0,41.27,67.41a23.7,23.7,0,0,0,.21,3.06A3.19,3.19,0,0,1,43.09,70h1.82A3.1,3.1,0,0,1,48,72.86v5.77a16.5,16.5,0,0,1,9.33,10.51,22.62,22.62,0,0,0,6.67,1A23,23,0,0,0,69.6,89.44Z" style="fill:#c4d948"/><path d="M75,60v8H72v4.14C72,75.92,69.23,79,65.82,79H62.18C58.77,79,56,75.92,56,72.14V68H53V60H63V53.82a13.64,13.64,0,1,0,2,0V60Z" style="fill:#95b323"/><path d="M38.31,88.26,46,94.19V105H56V93.77A14.49,14.49,0,0,0,48.39,81c-.92-.57-1.82-1.07-2.39-1.38V72.86c0-.39-.59-.86-1.09-.86H43.09c-.5,0-1.09.47-1.09.86V86H40V79a4.61,4.61,0,0,1-3-4.33V62c0-.4-.69-1-1.18-1H34a1.13,1.13,0,0,0-1,1V77.61A13.72,13.72,0,0,0,38.31,88.26Z" style="fill:#ffd4a1"/><path d="M58,107V93.77A16.5,16.5,0,0,0,48,78.63V72.86A3.1,3.1,0,0,0,44.91,70H43.09a3.19,3.19,0,0,0-1.61.47A2.84,2.84,0,0,0,40,72.86v3.9a2.62,2.62,0,0,1-1-2.08V62a3.24,3.24,0,0,0-3.18-3H34a2.51,2.51,0,0,0-.72.11A3.09,3.09,0,0,0,31,62V77.61a15.73,15.73,0,0,0,6.08,12.23L44,95.17V107ZM33,62a1.13,1.13,0,0,1,1-1h1.82c.49,0,1.18.55,1.18,1V74.68A4.61,4.61,0,0,0,40,79v7h2V72.86c0-.39.59-.86,1.09-.86h1.82c.5,0,1.09.47,1.09.86v6.79c.57.31,1.47.81,2.39,1.38A14.49,14.49,0,0,1,56,93.77V105H46V94.19l-7.69-5.93A13.72,13.72,0,0,1,33,77.61Z"/><path d="M93.09,61H91.27c-.55,0-1.27.6-1.27,1V74.68A4.61,4.61,0,0,1,87,79v7H85V72.86A1,1,0,0,0,84,72H82.18c-.56,0-1.18.51-1.18.86v6.9a18.69,18.69,0,0,0-3.4,1.88l-1,.74A14.46,14.46,0,0,0,71,93.77V105H81V94.19l7.69-5.93A13.72,13.72,0,0,0,94,77.61V62A1,1,0,0,0,93.09,61Z" style="fill:#ffd4a1"/><path d="M91.27,59A3.35,3.35,0,0,0,88,62V74.68a2.62,2.62,0,0,1-1,2.08v-3.9a2.69,2.69,0,0,0-.6-1.65A3.06,3.06,0,0,0,84,70H82.18A3.16,3.16,0,0,0,79,72.86v5.77a16.48,16.48,0,0,0-9.4,10.81,16.28,16.28,0,0,0-.6,4.33V107H83V95.17l6.92-5.33A15.73,15.73,0,0,0,96,77.61V62a3,3,0,0,0-1.14-2.28A2.8,2.8,0,0,0,93.09,59ZM94,77.61a13.72,13.72,0,0,1-5.31,10.65L81,94.19V105H71V93.77a14.46,14.46,0,0,1,5.57-11.39l1-.74A18.69,18.69,0,0,1,81,79.76v-6.9c0-.35.62-.86,1.18-.86H84a1,1,0,0,1,1,.86V86h2V79a4.61,4.61,0,0,0,3-4.33V62c0-.35.72-1,1.27-1h1.82A1,1,0,0,1,94,62Z"/><path d="M64,39.38c-.64-.57-.7-.61-1-.9v3.88A15,15,0,0,1,64,48a15,15,0,0,1,1-5.64V38.48C64.7,38.77,64.65,38.8,64,39.38Z" style="fill:#416100"/><path d="M63,60h2V49H63V60Z" style="fill:#416100"/><path d="M70,68H58v4.14C58,74.48,59.68,77,62.18,77h3.64c2.5,0,4.18-2.52,4.18-4.86ZM60,71V69h4v2Z" style="fill:#d99425"/><path d="M73,66V62H55v4Z" style="fill:#ffd130"/><path d="M53,68h3v4.14C56,75.92,58.77,79,62.18,79h3.64C69.23,79,72,75.92,72,72.14V68h3V60H53Zm2-6H73v4H55ZM65.82,77H62.18C59.68,77,58,74.48,58,72.14V68H70v4.14C70,74.48,68.32,77,65.82,77Z"/><rect x="60" y="69" width="4" height="2" style="fill:#f5ce5a"/><path d="M57.64,47h4.42c-.46-7.8-6.3-9-9.84-9H47.8C48.4,42.28,52.69,47,57.64,47ZM51,38.55,60.08,44l-1,1.71L50,40.27Z" style="fill:#6d8f1e"/><path d="M52.69,47.7a10.32,10.32,0,0,0,5,1.3H70.36a10.32,10.32,0,0,0,5-1.3,13.47,13.47,0,0,0,6-7A10.66,10.66,0,0,0,82,37V36H75.78a15.12,15.12,0,0,0-4.12.53A9.62,9.62,0,0,0,65,42.36,15,15,0,0,0,64,48a15,15,0,0,0-1-5.64,9.62,9.62,0,0,0-6.66-5.83A15.12,15.12,0,0,0,52.22,36H46v1a10.66,10.66,0,0,0,.72,3.7A13.47,13.47,0,0,0,52.69,47.7ZM80.2,38c-.6,4.28-4.89,9-9.84,9H65.94c.46-7.8,6.3-9,9.84-9ZM47.8,38h4.42c3.54,0,9.38,1.2,9.84,9H57.64C52.69,47,48.4,42.28,47.8,38Z"/><rect x="54.02" y="36.84" width="2" height="10.6" transform="translate(-9.42 67.62) rotate(-59.03)" style="fill:#b6d43f"/><path d="M65.94,47h4.42c5,0,9.24-4.72,9.84-9H75.78C72.24,38,66.4,39.2,65.94,47ZM77,38.55l1,1.72L69,45.72l-1-1.71Z" style="fill:#6d8f1e"/><rect x="67.68" y="41.14" width="10.6" height="2" transform="translate(-11.28 43.55) rotate(-30.96)" style="fill:#b6d43f"/><path d="M64,36.66c1.52-1.54,4-4.58,4-7.1V28.35c0-2.52-2.48-5.56-4-7.1-1.52,1.54-4,4.58-4,7.1v1.21C60,32.08,62.48,35.12,64,36.66ZM63,25h2v8H63Z" style="fill:#6d8f1e"/><path d="M63,38.48c.3.29.35.32,1,.9.64-.57.7-.61,1-.9a22.56,22.56,0,0,0,2.41-2.71c3.12-4.12,2.51-6.49,2.59-6.8v-.62a8.22,8.22,0,0,0-.93-3.54A20.75,20.75,0,0,0,65,19.43c-.31-.3-.34-.32-1-.9-.64.56-.69.6-1,.9a20.75,20.75,0,0,0-4.07,5.38A8.22,8.22,0,0,0,58,28.35V29c.08.33-.54,2.66,2.59,6.8A22.56,22.56,0,0,0,63,38.48ZM60,28.35c0-2.52,2.48-5.56,4-7.1,1.52,1.54,4,4.58,4,7.1v1.21c0,2.52-2.48,5.56-4,7.1-1.52-1.54-4-4.58-4-7.1Z"/><rect x="63" y="25" width="2" height="8" style="fill:#b6d43f"/></g></svg>