<?xml version="1.0" encoding="utf-8"?>
<!-- Generator: Adobe Illustrator 21.1.0, SVG Export Plug-In . SVG Version: 6.00 Build 0)  -->
<svg version="1.1" id="Layer_1" xmlns="http://www.w3.org/2000/svg" xmlns:xlink="http://www.w3.org/1999/xlink" x="0px" y="0px"
	 viewBox="0 0 512 512" style="enable-background:new 0 0 512 512;" xml:space="preserve">
<style type="text/css">
	.st0{fill:#D6CD1E;}
	.st1{fill:#E56823;}
	.st2{fill:#FE8E46;}
	.st3{fill:#FEFE71;}
	.st4{fill:#463218;}
	.st5{fill:#7DAC51;}
	.st6{fill:#5B7C31;}
	.st7{fill:#FFFFFF;}
</style>
<g>
	<g>
		<g>
			<path class="st3" d="M256,80.8c-13.255,0-24,10.316-24,23.041V179.2h48v-75.359C280,91.116,269.255,80.8,256,80.8z"/>
		</g>
	</g>
	<g>
		<g>
			<rect x="196" y="179.2" class="st2" width="120" height="40.8"/>
		</g>
	</g>
	<g>
		<g>
			<rect x="196" y="179.2" class="st1" width="36" height="40.8"/>
		</g>
	</g>
	<g>
		<g>
			<rect x="226" y="220" class="st5" width="60" height="31.2"/>
		</g>
	</g>
	<g>
		<g>
			<rect x="226" y="220" class="st6" width="31.2" height="31.2"/>
		</g>
	</g>
	<g>
		<g>
			<path class="st5" d="M291,251.2h-70c-13.807,0-25,11.193-25,25v155h120v-155C316,262.393,304.807,251.2,291,251.2z"/>
		</g>
	</g>
	<g>
		<g>
			<path class="st6" d="M226,251.2c-16.569,0-30,13.431-30,30v150h44.401v-150c0-16.569,13.432-30,30-30H226z"/>
		</g>
	</g>
	<g>
		<g>
			<g>
				<g>
					<path class="st4" d="M291,244.2h-70c-17.645,0-32,14.355-32,32v155c0,3.866,3.134,7,7,7h120c3.866,0,7-3.134,7-7v-155
						C323,258.555,308.645,244.2,291,244.2z M309,424.2H203v-148c0-9.925,8.075-18,18-18h70c9.925,0,18,8.075,18,18V424.2z"/>
				</g>
			</g>
		</g>
	</g>
	<g>
		<g>
			<g>
				<g>
					<path class="st4" d="M286,213h-60c-3.866,0-7,3.134-7,7v31.2c0,3.866,3.134,7,7,7h60c3.866,0,7-3.134,7-7V220
						C293,216.134,289.866,213,286,213z M279,244.2h-46V227h46V244.2z"/>
				</g>
			</g>
		</g>
	</g>
	<g>
		<g>
			<g>
				<g>
					<path class="st4" d="M316,172.2H196c-3.866,0-7,3.134-7,7V220c0,3.866,3.134,7,7,7h120c3.866,0,7-3.134,7-7v-40.8
						C323,175.334,319.866,172.2,316,172.2z M309,213H203v-26.8h106V213z"/>
				</g>
			</g>
		</g>
	</g>
	<g>
		<g>
			<g>
				<g>
					<path class="st4" d="M256,73.8c-17.094,0-31,13.477-31,30.041V179.2c0,3.866,3.134,7,7,7h48c3.866,0,7-3.134,7-7v-75.359
						C287,87.277,273.094,73.8,256,73.8z M273,172.2h-34v-68.359c0-8.845,7.626-16.041,17-16.041s17,7.196,17,16.041V172.2z"/>
				</g>
			</g>
		</g>
	</g>
	<g>
		<g>
			<rect x="279" y="282.017" class="st7" width="14" height="28.2"/>
		</g>
	</g>
	<g>
		<g>
			<rect x="279" y="341.2" class="st7" width="14" height="28.2"/>
		</g>
	</g>
</g>
</svg>
